<svg xmlns="http://www.w3.org/2000/svg" viewBox="0 0 58.32 85.86"><defs><style>.cls-1{fill:#fff;}</style></defs><g id="Layer_2" data-name="Layer 2"><g id="Layer_1-2" data-name="Layer 1"><path class="cls-1" d="M0,43.18c5.39-5.39,10.31-10.34,15.25-15.26,8.49-8.45,17.17-16.73,25.42-25.41C44-1,46.14-.77,48.94,2.71c1.77,2.19,3.94,4.05,5.92,6.07,4.66,4.75,4.63,4.73-.22,9.63C46.47,26.68,38.33,35,29.3,44.2c8.18,7.94,16.53,16,24.81,24.07,5.25,5.15,5.2,5.2.11,10.26-9.82,9.78-9.8,9.76-19.47,0Q19.49,63,4.17,47.64C2.91,46.36,1.71,45,0,43.18Z"/></g></g></svg>