<svg xmlns="http://www.w3.org/2000/svg" viewBox="0 0 1598.42 690.6"><defs><style>.cls-1{fill:#c8c8c8;}.cls-2{fill:#efea8f;}.cls-3{fill:#d8d088;}.cls-4{fill:#e0e0e0;}.cls-5{fill:#fcf6b1;}.cls-6{fill:#d1ca6b;}.cls-7{fill:#c18c46;}.cls-8{fill:#aa814f;}.cls-9{fill:#ce9e63;}.cls-10{fill:#c64242;}.cls-11{fill:#b73e3e;}.cls-12{fill:#cc5656;}.cls-13{fill:#ad8350;}.cls-14{fill:#72789e;}.cls-15,.cls-17{fill:#5b617f;}.cls-16{fill:#9a9ca8;}.cls-17,.cls-18{stroke:#efea8f;}.cls-17,.cls-18,.cls-22,.cls-26,.cls-46{stroke-miterlimit:10;}.cls-17,.cls-18,.cls-26,.cls-46{stroke-width:2px;}.cls-18,.cls-22,.cls-26,.cls-46{fill:none;}.cls-19{fill:#bfa35c;}.cls-20{fill:#e5c86c;}.cls-21{fill:#ead598;}.cls-22,.cls-26{stroke:#5b5b5b;}.cls-23{fill:#8e6042;}.cls-24{fill:#996a50;}.cls-25{fill:#70503f;}.cls-27{fill:#a5a5a5;}.cls-28{fill:#bfbebe;}.cls-29{fill:#ff7a45;}.cls-30{fill:#3f3f3f;}.cls-31{fill:#8c8c8c;}.cls-32{fill:#4c4c4c;}.cls-33{fill:#5b5b5b;}.cls-34{fill:#383838;}.cls-35{fill:#ddbc94;}.cls-36{fill:#e0cab1;}.cls-37{fill:#c0c8f9;}.cls-38{fill:#bfa588;}.cls-39{fill:#d2c1db;}.cls-40{fill:#e7e2ed;}.cls-41{fill:#c2b4cc;}.cls-42{fill:#545482;}.cls-43{fill:#8e5b38;}.cls-44{fill:#a87d60;}.cls-45{fill:#9e6f4f;}.cls-46{stroke:#4c4c4c;}</style></defs><g id="Layer_2" data-name="Layer 2"><g id="books"><ellipse class="cls-1" cx="799.21" cy="618.81" rx="799.21" ry="71.79"/><path class="cls-2" d="M57.38,603.15a10.92,10.92,0,0,0,4.78,14.25c11.52,6.1,30.56,16,36.82,18.09,8.43,2.81,60-50.44,68.52-59.28a10.87,10.87,0,0,0,1.93-2.76L321.07,263.33a10.88,10.88,0,0,0,1-3.43l13.52-107.39c0-.23.06-.45.1-.68l1.61-8.43c.84-4.41-16-11.14-19.8-13.53l-.29-5.75c-2.05-1.29-.51-.93-2.92-.69l-29.14,2.86a10.89,10.89,0,0,0-8.83,6.26Z"/><path class="cls-3" d="M336.49,155.46l-4.66-1L105,633.52c18-10.63,63.64-58.54,63.64-58.54L322.34,261.5Z"/><path class="cls-4" d="M279,126.89l-.36.77,48,23.45.14.08,5.12,2.92a2.51,2.51,0,0,0,3.74-1.86h0c0-.05,0-.11,0-.16s2.56-12.1,1.68-12.65l-19.82-9.57,1.24-6.35a2.45,2.45,0,0,0-1.58-.37Z"/><rect class="cls-5" x="170.7" y="123.97" width="10.74" height="505.31" rx="4.75" transform="translate(174.61 -39.12) rotate(24.86)"/><path class="cls-6" d="M317.19,123.15c-2.05-1.29-.46,0-2.87.28l-29.14,2.86a10.89,10.89,0,0,0-7.33,3.89l12.29,3.1,27.39-3.41Z"/><path class="cls-7" d="M404.85,122.59l-61.33-6.36a3.08,3.08,0,0,0-3.38,2.69L276.07,632.34a3.09,3.09,0,0,0,2.86,3.47l53.41,3.51"/><polygon class="cls-8" points="410.47 356.43 423.83 113.86 404.85 122.59 332.34 639.32 379.83 577.53 410.47 356.43"/><path class="cls-8" d="M352.85,110.29l43.94-3a.46.46,0,0,1,.49.49l-.32,5.44a.46.46,0,0,1-.44.43l-38.12,2.27H342.64a.46.46,0,0,1-.2-.88l10.25-4.7Z"/><polygon class="cls-4" points="400 113.62 421.81 114.65 404.85 122.59 340.51 115.92 396.94 113.62 400 113.62"/><rect class="cls-9" x="313.8" y="127.53" width="12.26" height="500.17" rx="6.13" transform="translate(49.5 -36.89) rotate(7.15)"/><polygon class="cls-4" points="477.76 111.57 452.74 110.67 426.02 120.51 483.89 120.51 486.38 116.94 501.02 111.58 477.76 111.57"/><path class="cls-10" d="M409.86,119.49h71.19a3,3,0,0,1,3,3l10.77,515.32a3,3,0,0,1-3,3.08H425a3,3,0,0,1-3-2.93L406.84,122.6A3,3,0,0,1,409.86,119.49Z"/><path class="cls-11" d="M452.43,110.83l-26.2,9.64a.78.78,0,0,1-.21,0h-16a.62.62,0,0,1-.22-1.2l42-16.35a.63.63,0,0,1,.85.57l.14,6.7A.63.63,0,0,1,452.43,110.83Z"/><rect class="cls-12" x="417.79" y="125.29" width="13.96" height="505.33" rx="6.91" transform="matrix(1, -0.03, 0.03, 1, -11.61, 13.47)"/><rect class="cls-7" x="415.91" y="254.47" width="64" height="2.72"/><rect class="cls-7" x="416.43" y="259.57" width="64" height="2.72"/><rect class="cls-7" x="419.66" y="372.6" width="64" height="2.72"/><rect class="cls-7" x="420" y="377.62" width="64" height="2.72"/><rect class="cls-7" x="421.7" y="490.38" width="64" height="2.72"/><rect class="cls-7" x="422.04" y="496.17" width="64" height="2.72"/><rect class="cls-7" x="424.43" y="607.49" width="64" height="2.72"/><rect class="cls-7" x="424.77" y="612.6" width="64" height="2.72"/><rect class="cls-7" x="412.17" y="133.28" width="64" height="2.72"/><rect class="cls-7" x="411.65" y="140.09" width="64" height="2.72"/><polygon class="cls-4" points="544.94 110.67 574.78 110.67 557.44 120.51 508.5 115.88 527.57 110.67 544.94 110.67"/><path class="cls-7" d="M496.94,640.85s.68,1,4.08,1.7,50.21.06,54.5,0a1.92,1.92,0,0,1,.58.07,6.74,6.74,0,0,0,5.18-.78l2.51-1.55a2.28,2.28,0,0,0,.38-.3l3.28-3.28a2.11,2.11,0,0,0,.62-1.53L556.9,118a2.09,2.09,0,0,0-2.09-2l-68.66-.31a2.1,2.1,0,0,0-2.11,2.14L494.87,638.3a2.11,2.11,0,0,0,.84,1.63Z"/><rect class="cls-9" x="495.57" y="122.17" width="10.89" height="510.32" rx="5.45" transform="translate(-8.42 11.44) rotate(-1.3)"/><path class="cls-13" d="M527.57,110.21v-6.68a.65.65,0,0,0-.83-.62L488.09,114.4a.65.65,0,0,0,.18,1.27l20.14.23a.37.37,0,0,0,.18,0l18.51-5A.64.64,0,0,0,527.57,110.21Z"/><rect class="cls-2" x="488.77" y="129.53" width="57.87" height="11.91" rx="5.96"/><rect class="cls-2" x="494.89" y="368" width="57.87" height="11.91" rx="5.96"/><rect class="cls-2" x="490.47" y="187.4" width="57.87" height="11.91" rx="5.96"/><rect class="cls-2" x="493.19" y="249.87" width="57.87" height="11.91" rx="5.96"/><rect class="cls-2" x="494.89" y="427.49" width="57.87" height="11.91" rx="5.96"/><rect class="cls-2" x="497.11" y="490.21" width="57.87" height="11.91" rx="5.96"/><rect class="cls-2" x="499.5" y="546.47" width="57.87" height="11.91" rx="5.96"/><rect class="cls-2" x="494.89" y="308.51" width="57.87" height="11.91" rx="5.96"/><polygon class="cls-4" points="594.3 112.69 639.01 112.99 629.45 119.57 577.28 119.15 594.3 112.69"/><path class="cls-14" d="M624.75,118H561.37a4.36,4.36,0,0,0-4.36,4.47l11.06,516.25c0,2.37,3.61,5.84,6,5.84h62.08a4.38,4.38,0,0,0,4.37-4.47L629.12,122.31A4.37,4.37,0,0,0,624.75,118Z"/><path class="cls-15" d="M646.34,108l-16.89,12a1.3,1.3,0,0,0-.54,1.09l.13,6.28a1.25,1.25,0,0,0,2,1l16.76-12.16a1.3,1.3,0,0,0,.53-1V109A1.25,1.25,0,0,0,646.34,108Z"/><path class="cls-15" d="M594.3,111.32v-7.55a.64.64,0,0,0-.88-.59L559.88,117a.64.64,0,0,0,.25,1.23h17c.08,0,2.51,0,2.58,0L594,112.69C594.23,112.6,594.3,111.58,594.3,111.32Z"/><rect class="cls-16" x="569.14" y="127.01" width="11.32" height="511.15" rx="5.66" transform="translate(-8.52 13.11) rotate(-1.3)"/><rect class="cls-17" x="565.02" y="159.83" width="55.83" height="125.28" rx="5.04" transform="translate(-4.89 13.48) rotate(-1.3)"/><rect class="cls-18" x="569.5" y="321.04" width="55.83" height="125.28" rx="6.5" transform="translate(-8.53 13.62) rotate(-1.3)"/><rect class="cls-18" x="573.18" y="483.83" width="55.83" height="125.28" rx="8.46" transform="translate(-12.22 13.75) rotate(-1.3)"/><rect class="cls-2" x="563.66" y="127.17" width="54.47" height="4.41" transform="translate(-2.78 13.41) rotate(-1.3)"/><path class="cls-19" d="M654.31,110.74l-23.1,16.43a.76.76,0,0,0,.46,1.37l14.69-.25a.83.83,0,0,0,.41-.13l8.84-6a.76.76,0,0,0,.33-.66l-.43-10.18A.76.76,0,0,0,654.31,110.74Z"/><rect class="cls-2" x="567.72" y="289.87" width="54.47" height="4.41" transform="translate(-6.46 13.55) rotate(-1.3)"/><rect class="cls-2" x="567.96" y="312.97" width="54.47" height="4.41" transform="translate(-6.98 13.56) rotate(-1.3)"/><rect class="cls-2" x="571.81" y="452.16" width="54.47" height="4.41" transform="translate(-10.13 13.68) rotate(-1.3)"/><rect class="cls-2" x="571.82" y="476.39" width="54.47" height="4.41" transform="translate(-10.68 13.69) rotate(-1.3)"/><rect class="cls-2" x="575.86" y="614.11" width="54.47" height="4.41" transform="translate(-13.8 13.81) rotate(-1.3)"/><polygon class="cls-4" points="666.47 122 655.96 122 646.58 128.35 713.1 127.23 718.57 122 666.47 122"/><rect class="cls-2" x="563.64" y="149.96" width="54.47" height="4.41" transform="translate(-3.29 13.42) rotate(-1.3)"/><path class="cls-20" d="M710.91,125.78l-79.5,1.35a2.17,2.17,0,0,0-2.14,2.23l11.3,513.92a2.16,2.16,0,0,0,1.2,1.9l1.09.55a2.2,2.2,0,0,0,1,.23H710a2.2,2.2,0,0,0,1.28-.42L719,640a2.17,2.17,0,0,0,.9-1.79l-6.77-510.26A2.19,2.19,0,0,0,710.91,125.78Z"/><rect class="cls-21" x="642.83" y="135.93" width="13.15" height="504.5" rx="6.57" transform="translate(-8.62 14.8) rotate(-1.3)"/><rect class="cls-22" x="641.96" y="161.87" width="58.89" height="124.6" transform="translate(-4.9 15.26) rotate(-1.3)"/><rect class="cls-22" x="644" y="325.28" width="58.55" height="127.66" transform="translate(-8.64 15.34) rotate(-1.3)"/><rect class="cls-22" x="646.72" y="487.66" width="59.91" height="122.55" transform="translate(-12.26 15.46) rotate(-1.3)"/><polygon class="cls-19" points="713.1 125.75 725.36 114 725.36 116.65 715.88 123.69 713.1 125.75 713.1 125.75"/><polygon class="cls-23" points="719.91 639.32 732.17 644.6 804.68 644.6 814.38 640.85 813.36 122.46 713.1 125.75 719.91 639.32"/><rect class="cls-24" x="727.94" y="135.47" width="11.4" height="499.23" rx="5.7" transform="translate(-5.1 9.87) rotate(-0.77)"/><polygon class="cls-25" points="742.61 103.85 713.1 125.75 730.49 125.17 742.61 115.92 742.61 103.85"/><polygon class="cls-4" points="750.89 115.92 742.61 115.92 730.49 125.17 810.43 122.69 816.16 114.73 750.89 115.92"/><polygon class="cls-25" points="821.42 107.42 810.43 122.69 819.73 122.46 822.01 120.64 821.42 107.42"/><rect class="cls-26" x="732.89" y="162.62" width="62.98" height="440.81" transform="translate(-5.07 10.28) rotate(-0.77)"/><polygon class="cls-23" points="814.38 640.85 911.4 642.72 912.94 122.46 813.36 122.46 814.38 640.85"/><rect class="cls-24" x="822.04" y="135.49" width="11.23" height="496.68" rx="5.4"/><polygon class="cls-25" points="829.7 112.85 829.7 103.85 814.38 122.46 822.04 122.46 829.7 112.85"/><polygon class="cls-4" points="856.43 113.15 829.16 112.85 822.04 122.46 906.47 122.46 906.47 112.85 856.43 113.15"/><rect class="cls-26" x="826.13" y="157.77" width="72.85" height="453.47"/><path class="cls-27" d="M921.11,639.83s4.08,4.08,8.85,4.77,75.23,0,75.23,0l7.49-6.47L1012,94.81H921.11Z"/><rect class="cls-28" x="925.19" y="103.85" width="7.49" height="528.32" rx="3.74"/><path class="cls-29" d="M933.27,256.39l66.47-1.92a5,5,0,0,1,5.18,5v30.55a5,5,0,0,1-4.88,5L933.56,297a5,5,0,0,1-5.18-5V261.42A5,5,0,0,1,933.27,256.39Z"/><path class="cls-30" d="M933.75,309.37l65.62-.86a6.71,6.71,0,0,1,6.8,6.71v42.14a6.71,6.71,0,0,1-6.71,6.71H933.84a6.71,6.71,0,0,1-6.71-6.71V316.08A6.71,6.71,0,0,1,933.75,309.37Z"/><polygon class="cls-31" points="921.11 94.81 929.28 81.87 929.28 94.81 921.11 94.81"/><polygon class="cls-32" points="1012.02 131.23 1146.81 131.23 1142.72 644.6 1021.7 644.9 1012.68 638.13 1012.02 131.23"/><rect class="cls-33" x="1085.02" y="143.49" width="17.87" height="486.13" rx="7.91"/><polygon class="cls-34" points="1022.21 114.81 1012.02 114.81 1012.02 131.23 1032.94 131.23 1022.21 114.81"/><polygon class="cls-34" points="1146.81 131.23 1118.72 117.65 1118.72 131.23 1146.81 131.23"/><polygon class="cls-35" points="1149.36 644.9 1252 644.9 1254.55 635.23 1261.7 134.81 1146.81 134.81 1142.84 629.62 1149.36 644.9"/><rect class="cls-36" x="1154.47" y="143.49" width="16.85" height="493.28" rx="8.43"/><path class="cls-37" d="M1161.61,197.62h86.82a7.13,7.13,0,0,1,7.14,7.14v24.8a7.14,7.14,0,0,1-7.12,7.14l-86.82.22a7.14,7.14,0,0,1-7.16-7.14v-25A7.14,7.14,0,0,1,1161.61,197.62Z"/><path class="cls-29" d="M1163.13,244.48h82a8.76,8.76,0,0,1,8.76,8.9l-2.27,142.42a8.77,8.77,0,0,1-8.76,8.63h-81.33a8.77,8.77,0,0,1-8.76-8.86l1.59-142.43A8.76,8.76,0,0,1,1163.13,244.48Z"/><path class="cls-37" d="M1159.53,409.53h84.66a8.21,8.21,0,0,1,8.21,8.32l-2.84,206.23a8.2,8.2,0,0,1-8.21,8.09h-83.71a8.2,8.2,0,0,1-8.2-8.28l1.89-206.23A8.2,8.2,0,0,1,1159.53,409.53Z"/><polygon class="cls-38" points="1218.81 134.81 1218.81 114.81 1261.7 134.81 1218.81 134.81"/><polygon class="cls-39" points="1256.6 640.34 1261.7 644.9 1330.13 644.9 1332.17 640.34 1345.91 87.9 1267.83 87.32 1261.7 134.81 1254.55 635.23 1256.6 640.34"/><polygon class="cls-40" points="1231.57 74.55 1267.83 87.32 1261.7 134.81 1229.19 119.65 1229.19 74.55 1231.57 74.55"/><polygon class="cls-41" points="1289.28 84.77 1289.28 74.55 1345.91 87.9 1289.28 87.9 1289.28 84.77"/><path class="cls-42" d="M1278.18,199.4h52.57a9,9,0,0,0,8.81-9l1.62-87.06a9,9,0,0,0-8.57-9.37l-54.19-1.53a9,9,0,0,0-9.06,9.19v88.59A9,9,0,0,0,1278.18,199.4Z"/><path class="cls-43" d="M1446.14,641.81l-105.64-1.36a8.23,8.23,0,0,1-8.12-8.44l15.41-619.6a8.23,8.23,0,0,1,8.53-8l109.12,4a8.24,8.24,0,0,1,7.93,8.48l-18.9,617A8.22,8.22,0,0,1,1446.14,641.81Z"/><rect class="cls-44" x="1345.26" y="17.87" width="15.44" height="620.43" rx="7.72" transform="translate(9.01 -35.16) rotate(1.49)"/><path class="cls-45" d="M1348,4.09s-12.77,2-22,3.06a55.5,55.5,0,0,1-18.38-1.53L1298.72,0l-5.36,3.7-2,70.85,54.59,13.35Z"/><line class="cls-46" x1="1345.13" y1="119.31" x2="1470.17" y2="121.37"/><line class="cls-46" x1="1345.13" y1="126.47" x2="1469.95" y2="128"/><line class="cls-46" x1="1342.42" y1="219.32" x2="1467.45" y2="221.38"/><line class="cls-46" x1="1342.42" y1="226.48" x2="1465.79" y2="228.52"/><line class="cls-46" x1="1340.38" y1="321.61" x2="1463.95" y2="323.56"/><line class="cls-46" x1="1340.38" y1="328.77" x2="1463.75" y2="330.81"/><line class="cls-46" x1="1337.67" y1="420.61" x2="1461.32" y2="422.79"/><line class="cls-46" x1="1337.46" y1="428.88" x2="1460.76" y2="429.93"/><line class="cls-46" x1="1335.46" y1="518.09" x2="1457.96" y2="519.49"/><line class="cls-46" x1="1335.46" y1="525.25" x2="1457.74" y2="526.78"/><circle class="cls-20" cx="1415.7" cy="73.02" r="12.8"/><circle class="cls-20" cx="1412.63" cy="173.91" r="12.8"/><circle class="cls-20" cx="1407.92" cy="279.7" r="12.8"/><circle class="cls-20" cx="1407.18" cy="380.52" r="12.8"/><circle class="cls-20" cx="1405.24" cy="478.09" r="12.8"/><circle class="cls-20" cx="1402.29" cy="574.55" r="12.8"/><rect class="cls-25" x="810.43" y="123.32" width="3.96" height="517.02" rx="1.98"/></g></g></svg>