<svg id="visual" viewBox="0 0 900 600" width="900" height="600" xmlns="http://www.w3.org/2000/svg" xmlns:xlink="http://www.w3.org/1999/xlink" version="1.1"><rect x="0" y="0" width="900" height="600" fill="#fff"></rect><path d="M0 192L100 275L200 248L300 239L400 249L500 206L600 200L700 235L800 255L900 244L900 601L800 601L700 601L600 601L500 601L400 601L300 601L200 601L100 601L0 601Z" fill="#f3f3f3"></path><path d="M0 235L100 269L200 332L300 278L400 331L500 284L600 232L700 322L800 274L900 243L900 601L800 601L700 601L600 601L500 601L400 601L300 601L200 601L100 601L0 601Z" fill="#cbcacf"></path><path d="M0 310L100 335L200 318L300 350L400 361L500 289L600 301L700 377L800 339L900 319L900 601L800 601L700 601L600 601L500 601L400 601L300 601L200 601L100 601L0 601Z" fill="#a4a3ac"></path><path d="M0 412L100 360L200 424L300 387L400 365L500 344L600 417L700 399L800 404L900 414L900 601L800 601L700 601L600 601L500 601L400 601L300 601L200 601L100 601L0 601Z" fill="#7f7d8a"></path><path d="M0 473L100 418L200 453L300 422L400 453L500 468L600 425L700 472L800 464L900 470L900 601L800 601L700 601L600 601L500 601L400 601L300 601L200 601L100 601L0 601Z" fill="#5b596a"></path><path d="M0 505L100 514L200 468L300 466L400 516L500 492L600 496L700 486L800 500L900 454L900 601L800 601L700 601L600 601L500 601L400 601L300 601L200 601L100 601L0 601Z" fill="#3a384b"></path><path d="M0 510L100 559L200 529L300 509L400 532L500 552L600 558L700 527L800 523L900 551L900 601L800 601L700 601L600 601L500 601L400 601L300 601L200 601L100 601L0 601Z" fill="#1a1a2e"></path></svg>