<svg xmlns="http://www.w3.org/2000/svg" viewBox="0 0 603.87 710.09"><defs><style>.cls-1{fill:#c8c8c8;}.cls-2{fill:#fff;}.cls-3{fill:#ededed;}.cls-4{fill:#724e33;}.cls-5{fill:#efefef;}.cls-6{fill:#e0e0e0;}.cls-7{fill:#a57450;}</style></defs><g id="Layer_2" data-name="Layer 2"><g id="Layer_2-2" data-name="Layer 2"><ellipse class="cls-1" cx="237.23" cy="637.58" rx="188.77" ry="72.51"/><ellipse class="cls-1" cx="423.32" cy="602.36" rx="64.94" ry="16.04" transform="translate(-104.1 88.68) rotate(-10.66)"/><path class="cls-2" d="M94.07,568.14a235.2,235.2,0,0,0,36.54,50A133,133,0,0,0,168,645.32c12,5.81,24.32,11.5,37.47,14,13.36,2.5,27,2.34,40.56,1.78,25.43-1.07,49.92-5.19,71.72-19.14,12.76-8.17,30.12-23,39.83-34.21s33.19-50,45.44-82.21,19.41-56.68,27.07-89.87,26.55-143,30.64-167,9.7-74,12.76-108.77c1-11.75,1.42-23.56,2.83-35.27,1.47-12.21,3.46-24.85,0-36.91-5.41-18.67-22-31.12-37.72-41C405.49,25.78,368.21,15.82,330,8.81A535.71,535.71,0,0,0,212.34.41c-31.3,1.22-63.45,4.71-94,11.51-26.82,6-54.9,15-77.84,30.51C24.68,53.16,10.89,68,4.77,78.69s-4.6,28.6-4.6,28.6S9.87,200.22,16,246.69,34.38,370.77,41.53,407c9.57,48.51,23.1,97.41,43.33,142.6Q89,559,94.07,568.14Z"/><path class="cls-3" d="M455.23,118.65a60.93,60.93,0,0,1-12.33,14.68c-23.26,20.76-51.82,32.74-82,39.69s-62.23,10.5-93.18,12.4c-25,1.53-58.25-.87-85.28-2.56-32.68-2-64.85-10.21-86.81-16.85s-64.55-33.37-69.95-41.87l-.34-.54c-7.17-11.31-17.9-30.53,5.44-59.72C54.53,34.23,100.26,22,119.66,17.93S171.75,7.71,199.32,7.2s47-2.55,72,0S332.09,14.35,355.07,21s25,6.13,44.42,14.3,31.15,15.83,43.41,27.06C453.12,71.73,469.39,94.25,455.23,118.65Z"/><path class="cls-4" d="M455.23,118.65a60.93,60.93,0,0,1-12.33,14.68c-23.26,20.76-51.82,32.74-82,39.69s-62.23,10.5-93.18,12.4c-25,1.53-58.25-.87-85.28-2.56-32.68-2-64.85-10.21-86.81-16.85s-64.55-33.37-69.95-41.87l-.34-.54a15.44,15.44,0,0,1,.82-4.77c2.3-5.83,9.86-12.59,14.28-17.08C51.79,90.29,65.32,81.14,79.69,74c45.39-22.71,98.89-29.57,149.11-30.49,50.05-.91,102.71,1.24,150.51,17.36a212.47,212.47,0,0,1,24.52,9.94C426.5,81.7,443.66,97.42,455.23,118.65Z"/><path class="cls-3" d="M5.28,115c.55,8,7.29,14.24,12.78,19.36l20.59,19.15c3.42,3.18,2.38,11.8,2.73,16q.87,10.38,1.91,20.73,2.07,20.7,4.78,41.34,5.43,41.25,13.43,82.13c5.09,26,8.61,52.31,13.6,78.4q7.59,39.75,18.14,78.85c6.94,25.73,13.94,51.52,23.53,76.41A515.89,515.89,0,0,0,151.82,620q2.77,4.8,5.72,9.49c1.62,2.58,3.88,5.18,5,8,.26.6-5.25-2-5.9-2.34a81.84,81.84,0,0,1-7.58-4.92c-9.76-7.12-17.74-16.56-25.23-26a277.19,277.19,0,0,1-20.51-29.57A355.74,355.74,0,0,1,73,509.47q-3.39-9.56-6.34-19.25c-10.12-33.07-17.06-67-23.39-101-3.15-16.86-6.16-33.74-8.89-50.67C29.28,306.94,23.66,272.73,19.06,237s-6.12-54.64-9.19-77.11C6.85,137.74,5.32,115.59,5.28,115Z"/><path class="cls-5" d="M156.9,189.64c2.83-1.8,9.19-.1,12.12.06q10.53.59,21,1.08c16.73.8,33.48,1.52,50.23,1.78a471.62,471.62,0,0,0,60.64-3.06l24.51,1.31,22.46,60s6.64,208.35,5.11,214.47-21.45,95.49-26,120.51-47.49,66.39-47.49,66.39l-20.8,4.08c-5,.17-13.87,2-18.29-.25-7.22-3.66-11.27-18.76-13.72-25.71A714.73,714.73,0,0,1,196.36,514c-6.91-40.07-14-80.16-20-120.44q-6.09-40.47-10.72-81.14-6.69-59.68-10.12-119.67A3.15,3.15,0,0,1,156.9,189.64Z"/><path class="cls-2" d="M471.13,193.08c1.82-21.15,3.2-42.36,4.8-63.53l.49-6.6c.07-.91,11.82-4.1,13-4.49A158.9,158.9,0,0,1,542,111.22c16.09.51,29.8,5.51,41.55,16.61,16.88,16,21.15,37.43,20.17,59.79-.71,16.42-5.28,33.54-12,48.5-4.49,10.08-10.2,19.56-16.08,28.9-19.56,31.07-42.82,59.34-67.62,86.35-15.32,16.68-73.2,74.21-73.2,74.21l-3.4,2.73,18-88.51s42.56-40.17,56.17-56.86S534,247.2,540.43,235.29s16.68-32.69,18.72-46c1.56-10.18,4.69-30.71-5.56-37.33-4.14-2.67-9.38-3.2-14.24-2.39s-9.42,2.86-13.84,5C505,164.78,488.54,178.56,471.13,193.08Z"/><path class="cls-3" d="M602.32,166.73c.64-.21,1-1.11,1-3.1-.1-3.37-1.78-7-3.17-10-7.18-15.52-26.6-26.06-43.09-27.33-9.59-.74-19.21.46-28.75,1.64-19.66,2.44-37.38,6-53.54,18q-.89,12.19-1.78,24.4c-.56,7.45-2.21,15.73-1.7,23.07,13-14.59,29.6-25.74,46.85-34.68C534.25,150.31,555.42,139,574,146c8.83,3.35,15.27,10.55,22.25,16.59C598.17,164.25,600.89,167.21,602.32,166.73Z"/><path class="cls-6" d="M539,277.86c13.16-16.57,24.66-34,33.9-53.58,4.51-9.52,8.52-19.45,9.75-29.9a59.07,59.07,0,0,0-5.57-32.63,32.4,32.4,0,0,0-6.21-9.08c-8.73-8.52-21-6.72-31.52-3.06,4.86-.81,10.1-.28,14.24,2.39,10.25,6.62,7.12,27.15,5.56,37.33-2,13.27-12.26,34-18.72,46s-21.11,31-34.73,47.65-56.17,56.86-56.17,56.86l-9.24,45.34a5.09,5.09,0,0,0,5.16-1.77c13.95-14.64,27.91-30.3,27.91-30.3l52-59C530.11,288.72,534.65,283.34,539,277.86Z"/><path class="cls-6" d="M300.94,189.5s32.68-2,53.1-7.15,54.13-14.3,71-24.51,41.87-31.66,45.45-38.81-8.17,81.19-12.77,121.53-25,174.64-36.76,215c-6.56,22.51-14.42,44.63-23.14,66.4-8.22,20.52-16.47,41.53-28.73,60-10.87,16.39-24.8,30.43-39.11,43.8-10.81,10.11-19.8,17.3-34.13,22.26-13.09,4.53-16.25,4.1-16.34,4.09,2.06.31,13.76-37.88,14.84-41.11,18.47-55.31,24.05-115.36,26.18-172.85,2.71-73.27,2.72-144.34-7.42-211.77C311.16,213.57,306,201.45,300.94,189.5Z"/><path class="cls-7" d="M245.4,179.55c-49.45,0-96.07-5.76-131.28-16.21C74.76,151.65,54,135.3,54,116.06s20.8-35.59,60.16-47.28C149.33,58.33,196,52.57,245.4,52.57s96.08,5.76,131.28,16.21c39.36,11.69,60.17,28,60.17,47.28S416,151.65,376.68,163.34C341.48,173.79,294.86,179.55,245.4,179.55Z"/><ellipse class="cls-4" cx="245.4" cy="123.41" rx="183.3" ry="61.26"/><path class="cls-7" d="M245.4,161.89c-35.12,0-68.23-4.09-93.23-11.51-27.95-8.3-42.72-19.91-42.72-33.58s14.77-25.27,42.72-33.57c25-7.43,58.11-11.51,93.23-11.51s68.23,4.08,93.23,11.51c28,8.3,42.73,19.91,42.73,33.57s-14.77,25.28-42.73,33.58C313.63,157.8,280.52,161.89,245.4,161.89Z"/><ellipse class="cls-4" cx="245.4" cy="122.02" rx="130.17" ry="43.5"/><path class="cls-7" d="M245.4,142.06c-19,0-37-2.21-50.51-6.24-15.14-4.49-23.15-10.78-23.15-18.18s8-13.7,23.15-18.19c13.55-4,31.49-6.24,50.51-6.24s37,2.21,50.51,6.24c15.15,4.49,23.15,10.78,23.15,18.19s-8,13.69-23.15,18.18C282.37,139.85,264.43,142.06,245.4,142.06Z"/><ellipse class="cls-4" cx="245.4" cy="120.46" rx="70.52" ry="23.57"/></g></g></svg>