<svg xmlns="http://www.w3.org/2000/svg" xmlns:xlink="http://www.w3.org/1999/xlink" viewBox="0 0 731.33 724.36"><defs><style>.cls-1{fill:#fff;}.cls-2{fill:#ededed;}.cls-3{fill:#603813;}.cls-4{fill:#e0e0e0;}.cls-5{fill:#a0693c;}</style></defs><g id="Layer_2" data-name="Layer 2"><g id="Layer_1-2" data-name="Layer 1"><image width="420" height="416" transform="scale(1.74)" xlink:href="../coffee.png"/></g><g id="Layer_2-2" data-name="Layer 2"><path class="cls-1" d="M201.05,605.24a235.2,235.2,0,0,0,36.54,50A133,133,0,0,0,275,682.42c12,5.81,24.32,11.5,37.47,14,13.35,2.5,27,2.34,40.56,1.78C378.48,697.09,403,693,424.77,679c12.76-8.17,30.12-23,39.83-34.21s33.19-50,45.44-82.21,19.41-56.68,27.07-89.88,26.55-143,30.63-167S577.45,231.7,580.51,197c1-11.75,1.41-23.56,2.83-35.27,1.47-12.21,3.46-24.85,0-36.91-5.41-18.67-22-31.12-37.72-41C512.47,62.87,475.19,52.92,437,45.9a536.36,536.36,0,0,0-117.65-8.39c-31.3,1.22-63.45,4.71-94,11.51-26.81,6-54.9,15-77.83,30.51-15.83,10.73-29.62,25.53-35.75,36.26s-4.59,28.59-4.59,28.59,9.7,92.94,15.83,139.41,18.38,124.08,25.53,160.34c9.56,48.5,23.1,97.41,43.33,142.6C194.63,593,197.71,599.16,201.05,605.24Z"/><path class="cls-2" d="M562.21,155.74a60.93,60.93,0,0,1-12.33,14.68c-23.26,20.76-51.82,32.74-82,39.69s-62.23,10.5-93.18,12.4c-25,1.53-58.25-.87-85.28-2.56-32.68-2-64.85-10.21-86.81-16.85s-64.55-33.37-69.95-41.87l-.34-.54c-7.17-11.31-17.9-30.53,5.44-59.72C161.51,71.32,207.24,59.1,226.64,55S278.73,44.8,306.3,44.29s47-2.55,72,0,60.77,7.15,83.75,13.79,25,6.13,44.42,14.3,31.15,15.83,43.41,27.06C560.1,108.82,576.37,131.34,562.21,155.74Z"/><path class="cls-3" d="M562.21,155.74a60.93,60.93,0,0,1-12.33,14.68c-23.26,20.76-51.82,32.74-82,39.69s-62.23,10.5-93.18,12.4c-25,1.53-58.25-.87-85.28-2.56-32.68-2-64.85-10.21-86.81-16.85s-64.55-33.37-69.95-41.87l-.34-.54a15.44,15.44,0,0,1,.82-4.77c2.3-5.83,9.86-12.59,14.28-17.08,11.32-11.46,24.85-20.61,39.22-27.79,45.38-22.7,98.89-29.56,149.11-30.48,50.05-.91,102.7,1.24,150.51,17.36a212.41,212.41,0,0,1,24.52,9.93C533.48,118.79,550.64,134.51,562.21,155.74Z"/><path class="cls-2" d="M263.88,226.74c2.82-1.8,9.19-.1,12.12.06q10.53.57,21.05,1.08c16.73.8,33.47,1.52,50.23,1.78a471.37,471.37,0,0,0,60.63-3.06l24.52,1.31,22.46,60s6.64,208.34,5.11,214.47-21.45,95.49-26,120.51-47.49,66.39-47.49,66.39l-20.81,4.08c-5,.17-13.86,2-18.29-.25-7.21-3.66-11.26-18.76-13.71-25.71a714.73,714.73,0,0,1-30.32-116.29c-6.91-40.07-14-80.16-20-120.44q-6.09-40.47-10.72-81.15-6.69-59.67-10.12-119.66A3.15,3.15,0,0,1,263.88,226.74Z"/><path class="cls-1" d="M578.1,230.18c1.83-21.15,3.21-42.36,4.81-63.53l.49-6.6c.07-.91,11.82-4.1,13-4.49A158.9,158.9,0,0,1,649,148.32c16.09.51,29.8,5.51,41.55,16.61,16.87,15.95,21.15,37.43,20.17,59.79-.71,16.41-5.28,33.53-12,48.49-4.49,10.08-10.2,19.57-16.08,28.91-19.56,31.06-42.82,59.34-67.63,86.35-15.32,16.68-73.19,74.21-73.19,74.21l-3.4,2.73,18-88.52s42.55-40.17,56.17-56.85,28.26-35.74,34.72-47.66,16.69-32.68,18.73-45.95c1.56-10.18,4.69-30.72-5.56-37.33-4.14-2.68-9.39-3.21-14.25-2.39s-9.41,2.86-13.83,5C612,201.88,595.52,215.66,578.1,230.18Z"/><path class="cls-2" d="M709.3,203.83c.64-.21,1-1.11,1-3.11-.11-3.36-1.78-7-3.18-10-7.17-15.51-26.59-26-43.08-27.32-9.59-.74-19.21.46-28.75,1.64-19.66,2.44-37.38,6-53.54,18q-.88,12.19-1.78,24.4c-.56,7.45-2.21,15.73-1.7,23.07,13-14.59,29.6-25.74,46.85-34.68,16.15-8.38,37.32-19.74,55.85-12.73,8.83,3.34,15.27,10.54,22.25,16.58C705.15,201.35,707.87,204.31,709.3,203.83Z"/><path class="cls-4" d="M646,315c13.16-16.57,24.66-34,33.9-53.58,4.51-9.52,8.52-19.45,9.75-29.91a59.12,59.12,0,0,0-5.57-32.62,32.47,32.47,0,0,0-6.21-9.08c-8.73-8.52-21-6.73-31.53-3.06,4.86-.82,10.11-.29,14.25,2.39,10.25,6.61,7.12,27.15,5.56,37.33-2,13.27-12.26,34-18.73,45.95s-21.1,31-34.72,47.66-56.17,56.85-56.17,56.85l-9.24,45.35a5.09,5.09,0,0,0,5.16-1.77c14-14.64,27.91-30.3,27.91-30.3l52-59C637.09,325.82,641.63,320.44,646,315Z"/><path class="cls-4" d="M407.91,226.6s32.69-2,53.11-7.15,54.13-14.3,71-24.51,41.87-31.66,45.45-38.81-8.17,81.19-12.77,121.53-25,174.64-36.77,215c-6.55,22.51-14.41,44.63-23.13,66.4-8.22,20.52-16.47,41.53-28.74,60.05-10.86,16.39-24.79,30.43-39.1,43.8-10.81,10.11-19.8,17.3-34.13,22.26-13.09,4.53-16.25,4.1-16.34,4.09,2,.31,13.76-37.88,14.84-41.11,18.47-55.31,24.05-115.36,26.18-172.85,2.71-73.27,2.72-144.34-7.42-211.77C418.14,250.66,413,238.55,407.91,226.6Z"/><path class="cls-5" d="M352.38,219.35c-51.65,0-100.35-6-137.12-16.93-41.11-12.2-62.83-29.28-62.83-49.38s21.72-37.17,62.83-49.37C252,92.75,300.73,86.74,352.38,86.74s100.35,6,137.12,16.93c41.11,12.2,62.84,29.28,62.84,49.37s-21.73,37.18-62.84,49.38C452.73,213.34,404,219.35,352.38,219.35Z"/><ellipse class="cls-3" cx="352.38" cy="160.72" rx="191.45" ry="63.98"/><path class="cls-5" d="M352.38,203c-38.41,0-74.63-4.47-102-12.59-30.57-9.07-46.73-21.77-46.73-36.72s16.16-27.65,46.73-36.72c27.34-8.12,63.56-12.59,102-12.59s74.63,4.47,102,12.59c30.58,9.07,46.74,21.77,46.74,36.72s-16.16,27.65-46.74,36.72C427,198.57,390.79,203,352.38,203Z"/><ellipse class="cls-3" cx="352.38" cy="159.44" rx="142.38" ry="47.58"/><path class="cls-5" d="M352.38,185.46c-24.14,0-46.89-2.81-64.08-7.91-19.21-5.71-29.37-13.69-29.37-23.08s10.16-17.37,29.37-23.08c17.19-5.1,39.94-7.91,64.08-7.91s46.9,2.81,64.08,7.91c19.21,5.71,29.37,13.69,29.37,23.08s-10.16,17.37-29.37,23.08C399.28,182.65,376.52,185.46,352.38,185.46Z"/><ellipse class="cls-3" cx="352.38" cy="158.06" rx="89.47" ry="29.9"/></g></g></svg>