<svg xmlns="http://www.w3.org/2000/svg" viewBox="0 0 838.66 848.29"><defs><style>.cls-1{fill:#c8c8c8;}.cls-2{fill:none;}.cls-3{fill:#ce9d67;}.cls-4{fill:#af8c69;}.cls-5{fill:#e0af73;}.cls-6{fill:#e94560;}.cls-7{fill:#ea5e78;}.cls-8{fill:#fff;}.cls-9{fill:#eaeaea;}.cls-10{font-size:48px;font-family:I-pixel-u, I pixel u;}</style></defs><g id="Layer_2" data-name="Layer 2"><g id="Layer_2-2" data-name="Layer 2"><ellipse class="cls-1" cx="419.33" cy="775.25" rx="419.33" ry="73.04"/><path class="cls-2" d="M87.42,772.18,666.48,811l86.81-42.89V757.2L740,753.8s-10.56-3.06-14-8.17S722,733.37,722,733.37H691L664.1,743.59l-92.6,5.78-213.78-17.7L140.53,720.78,120.1,732.69s-3.74,10.9-8.51,14.3-17.36,7.83-20.77,9.53A10.88,10.88,0,0,0,86.06,762v9.87Z"/><polygon class="cls-3" points="87.42 772.18 665.8 810.95 665.8 798.74 90.14 761.97 86.06 761.97 86.06 771.84 87.42 772.18"/><polygon class="cls-4" points="748.53 759.93 668.53 797.03 665.8 798.74 665.8 810.95 666.48 810.99 753.29 768.1 753.29 757.8 748.53 759.93"/><path class="cls-5" d="M722,733.37H691L664.1,743.59l-92.6,5.78-213.78-17.7L140.53,720.78l-19.74,11.51,529.35,36.15,71.93-34.31C722,733.65,722,733.37,722,733.37Z"/><path class="cls-3" d="M117,739.75l535.15,35.5-.77-7.42-7.74.17L292.53,744,130.66,733l-9.87-.68-.69.4S118.72,736.39,117,739.75Z"/><path class="cls-4" d="M661.14,763.19l-9.72,4.64.77,7.42,19-9.36,45-22.64,4.8-2.46c.54-.27,2-.73,2.24-1.32s-.57-2.21-.7-2.8a12.23,12.23,0,0,0-.69-3.17c-3.92,1.51-7.67,4.14-11.37,6.16Z"/><path class="cls-3" d="M726.06,745.63a23.56,23.56,0,0,1-2.76-6h0l-71.11,35.64L650.48,779l2.73,12.6,12.59,7.15,87.49-40.94-13.27-4S729.46,750.74,726.06,745.63Z"/><path class="cls-5" d="M652.19,775.25,443.33,761.12l-121.2-8.2-88.82-6L146.13,741,117,739.75c-1.47,2.82-3.36,5.75-5.45,7.24-4.77,3.41-17.36,7.83-20.77,9.53A10.88,10.88,0,0,0,86.06,762L665.8,798.74Z"/><path class="cls-6" d="M704.27,733.37V245.2s-10.21-128.68-143-212.42-311.86,19.4-311.86,19.4L258,72.61,385.12,41,470.4,63.42l73.53,51.06,38.81,54.13,28.59,71.49L624.61,380,619.5,692.52,643,762Z"/><path class="cls-7" d="M135.42,729.29,643,762V261.54S615.42,75.67,478.57,36.86s-199.15-5.1-257.36,32.68-80.68,98.05-85.79,126.64-8.17,51.07-8.17,51.07Z"/><path class="cls-5" d="M606.23,311.59c0,134.8-105.19,241-224.94,228.76C264.59,528.41,161,425,161,290.14S259.6,59.33,381.29,59.33,606.23,176.78,606.23,311.59Z"/><path class="cls-3" d="M562.31,315c0,113.78-88.78,203.43-189.85,193.08-98.5-10.08-186-97.41-186-211.19s83.27-194.81,186-194.81S562.31,201.19,562.31,315Z"/><path class="cls-8" d="M562.31,305.13c0,108.52-84.68,194-181.08,184.17-94-9.62-177.38-92.91-177.38-201.44,0-72.07,35-130.36,87.24-161.39a175.63,175.63,0,0,1,90.14-24.42C479.2,102.05,562.31,196.61,562.31,305.13Z"/><path class="cls-9" d="M290,127.16l73.18,134.9L478.41,465.58c49.69-31.8,83.9-91.47,83.9-160.45,0-108.52-83.11-203.08-181.08-203.08a175.63,175.63,0,0,0-90.14,24.42Z"/><text class="cls-10" transform="translate(353.08 156.48)">12</text><text class="cls-10" transform="translate(226.06 308.91)">9</text><text class="cls-10" transform="translate(371.72 469.89)">6</text><text class="cls-10" transform="translate(515.97 308.91)">3</text><circle cx="453.8" cy="166.82" r="8.17"/><circle cx="509.8" cy="224.27" r="8.13"/><circle cx="512.78" cy="359.08" r="8.17"/><circle cx="458.4" cy="424.57" r="8.11"/><circle cx="310.57" cy="424.18" r="8.17"/><circle cx="256.06" cy="359.08" r="8.43"/><circle cx="256.06" cy="224.27" r="8.43"/><circle cx="311.33" cy="166.82" r="8.17"/><polygon points="275.74 235.96 272.7 241.57 380.88 300.32 381.86 298.53 383.93 294.71 275.74 235.96"/><polygon points="459.39 253.47 456.07 248.02 379.27 294.88 380.34 296.62 382.6 300.32 459.39 253.47"/></g></g></svg>