<svg id="Layer_1" data-name="Layer 1" xmlns="http://www.w3.org/2000/svg" viewBox="0 0 92 92"><defs><style>.cls-1{fill:#e94560;}</style></defs><path class="cls-1" d="M93.15,6.85a9.74,9.74,0,0,0-13.77,0s-.14.13-.32.32c0,0,0,0,0,0L8.6,77.61a2,2,0,0,0-.51.9l-4,15A2,2,0,0,0,6,96a1.91,1.91,0,0,0,.52-.07l15-4a2,2,0,0,0,.9-.52L92.79,21a.56.56,0,0,0,0-.08l.3-.3A9.73,9.73,0,0,0,93.15,6.85ZM90.32,9.68a5.75,5.75,0,0,1,0,8.11L88.61,19.5,80.5,11.39l1.71-1.71a5.73,5.73,0,0,1,8.11,0ZM11.21,82.3l6.49,6.49L8.83,91.17Z" transform="translate(-4 -4)"/></svg>