<svg id="visual" viewBox="0 0 900 600" width="900" height="600" xmlns="http://www.w3.org/2000/svg" xmlns:xlink="http://www.w3.org/1999/xlink" version="1.1"><path d="M0 300L13.7 299.5C27.3 299 54.7 298 82 289.8C109.3 281.7 136.7 266.3 163.8 273.5C191 280.7 218 310.3 245.2 322.8C272.3 335.3 299.7 330.7 327 317C354.3 303.3 381.7 280.7 409 287.8C436.3 295 463.7 332 491 341.7C518.3 351.3 545.7 333.7 573 327C600.3 320.3 627.7 324.7 654.8 330.2C682 335.7 709 342.3 736.2 342C763.3 341.7 790.7 334.3 818 331.8C845.3 329.3 872.7 331.7 886.3 332.8L900 334L900 601L886.3 601C872.7 601 845.3 601 818 601C790.7 601 763.3 601 736.2 601C709 601 682 601 654.8 601C627.7 601 600.3 601 573 601C545.7 601 518.3 601 491 601C463.7 601 436.3 601 409 601C381.7 601 354.3 601 327 601C299.7 601 272.3 601 245.2 601C218 601 191 601 163.8 601C136.7 601 109.3 601 82 601C54.7 601 27.3 601 13.7 601L0 601Z" fill="#e94560"></path><path d="M0 340L13.7 332.3C27.3 324.7 54.7 309.3 82 315.5C109.3 321.7 136.7 349.3 163.8 361.8C191 374.3 218 371.7 245.2 376.7C272.3 381.7 299.7 394.3 327 383C354.3 371.7 381.7 336.3 409 330.7C436.3 325 463.7 349 491 364.3C518.3 379.7 545.7 386.3 573 381C600.3 375.7 627.7 358.3 654.8 354.2C682 350 709 359 736.2 352.3C763.3 345.7 790.7 323.3 818 316.5C845.3 309.7 872.7 318.3 886.3 322.7L900 327L900 601L886.3 601C872.7 601 845.3 601 818 601C790.7 601 763.3 601 736.2 601C709 601 682 601 654.8 601C627.7 601 600.3 601 573 601C545.7 601 518.3 601 491 601C463.7 601 436.3 601 409 601C381.7 601 354.3 601 327 601C299.7 601 272.3 601 245.2 601C218 601 191 601 163.8 601C136.7 601 109.3 601 82 601C54.7 601 27.3 601 13.7 601L0 601Z" fill="#c9396d"></path><path d="M0 368L13.7 374.7C27.3 381.3 54.7 394.7 82 395.8C109.3 397 136.7 386 163.8 390.2C191 394.3 218 413.7 245.2 409.3C272.3 405 299.7 377 327 361.2C354.3 345.3 381.7 341.7 409 344.5C436.3 347.3 463.7 356.7 491 363C518.3 369.3 545.7 372.7 573 379.8C600.3 387 627.7 398 654.8 392.3C682 386.7 709 364.3 736.2 357C763.3 349.7 790.7 357.3 818 356.8C845.3 356.3 872.7 347.7 886.3 343.3L900 339L900 601L886.3 601C872.7 601 845.3 601 818 601C790.7 601 763.3 601 736.2 601C709 601 682 601 654.8 601C627.7 601 600.3 601 573 601C545.7 601 518.3 601 491 601C463.7 601 436.3 601 409 601C381.7 601 354.3 601 327 601C299.7 601 272.3 601 245.2 601C218 601 191 601 163.8 601C136.7 601 109.3 601 82 601C54.7 601 27.3 601 13.7 601L0 601Z" fill="#a43573"></path><path d="M0 423L13.7 426.2C27.3 429.3 54.7 435.7 82 429.2C109.3 422.7 136.7 403.3 163.8 400.8C191 398.3 218 412.7 245.2 426.8C272.3 441 299.7 455 327 457.5C354.3 460 381.7 451 409 437.8C436.3 424.7 463.7 407.3 491 398.2C518.3 389 545.7 388 573 397C600.3 406 627.7 425 654.8 425.2C682 425.3 709 406.7 736.2 402.5C763.3 398.3 790.7 408.7 818 417.7C845.3 426.7 872.7 434.3 886.3 438.2L900 442L900 601L886.3 601C872.7 601 845.3 601 818 601C790.7 601 763.3 601 736.2 601C709 601 682 601 654.8 601C627.7 601 600.3 601 573 601C545.7 601 518.3 601 491 601C463.7 601 436.3 601 409 601C381.7 601 354.3 601 327 601C299.7 601 272.3 601 245.2 601C218 601 191 601 163.8 601C136.7 601 109.3 601 82 601C54.7 601 27.3 601 13.7 601L0 601Z" fill="#7c3471"></path><path d="M0 501L13.7 499.5C27.3 498 54.7 495 82 493.3C109.3 491.7 136.7 491.3 163.8 493.7C191 496 218 501 245.2 496.8C272.3 492.7 299.7 479.3 327 477.7C354.3 476 381.7 486 409 481.8C436.3 477.7 463.7 459.3 491 449.3C518.3 439.3 545.7 437.7 573 441.2C600.3 444.7 627.7 453.3 654.8 464.5C682 475.7 709 489.3 736.2 489.3C763.3 489.3 790.7 475.7 818 469.8C845.3 464 872.7 466 886.3 467L900 468L900 601L886.3 601C872.7 601 845.3 601 818 601C790.7 601 763.3 601 736.2 601C709 601 682 601 654.8 601C627.7 601 600.3 601 573 601C545.7 601 518.3 601 491 601C463.7 601 436.3 601 409 601C381.7 601 354.3 601 327 601C299.7 601 272.3 601 245.2 601C218 601 191 601 163.8 601C136.7 601 109.3 601 82 601C54.7 601 27.3 601 13.7 601L0 601Z" fill="#553166"></path><path d="M0 509L13.7 506.3C27.3 503.7 54.7 498.3 82 497.8C109.3 497.3 136.7 501.7 163.8 504.8C191 508 218 510 245.2 514C272.3 518 299.7 524 327 527.7C354.3 531.3 381.7 532.7 409 530.7C436.3 528.7 463.7 523.3 491 515.5C518.3 507.7 545.7 497.3 573 495C600.3 492.7 627.7 498.3 654.8 506.8C682 515.3 709 526.7 736.2 532.3C763.3 538 790.7 538 818 528.7C845.3 519.3 872.7 500.7 886.3 491.3L900 482L900 601L886.3 601C872.7 601 845.3 601 818 601C790.7 601 763.3 601 736.2 601C709 601 682 601 654.8 601C627.7 601 600.3 601 573 601C545.7 601 518.3 601 491 601C463.7 601 436.3 601 409 601C381.7 601 354.3 601 327 601C299.7 601 272.3 601 245.2 601C218 601 191 601 163.8 601C136.7 601 109.3 601 82 601C54.7 601 27.3 601 13.7 601L0 601Z" fill="#322b55"></path><path d="M0 566L13.7 560C27.3 554 54.7 542 82 536.3C109.3 530.7 136.7 531.3 163.8 537C191 542.7 218 553.3 245.2 552C272.3 550.7 299.7 537.3 327 533C354.3 528.7 381.7 533.3 409 537C436.3 540.7 463.7 543.3 491 545.2C518.3 547 545.7 548 573 547.5C600.3 547 627.7 545 654.8 545.3C682 545.7 709 548.3 736.2 546.2C763.3 544 790.7 537 818 535C845.3 533 872.7 536 886.3 537.5L900 539L900 601L886.3 601C872.7 601 845.3 601 818 601C790.7 601 763.3 601 736.2 601C709 601 682 601 654.8 601C627.7 601 600.3 601 573 601C545.7 601 518.3 601 491 601C463.7 601 436.3 601 409 601C381.7 601 354.3 601 327 601C299.7 601 272.3 601 245.2 601C218 601 191 601 163.8 601C136.7 601 109.3 601 82 601C54.7 601 27.3 601 13.7 601L0 601Z" fill="#16213e"></path></svg>