<svg xmlns="http://www.w3.org/2000/svg" viewBox="0 0 1222.25 772.12"><defs><style>.cls-1{fill:#969696;}.cls-2,.cls-3{fill:#efefef;}.cls-3{stroke:#fff;stroke-miterlimit:10;stroke-width:10px;}.cls-4{fill:#e0e0e0;}.cls-5{fill:#a0a0a0;}.cls-6{fill:#adadad;}</style></defs><g id="Layer_2" data-name="Layer 2"><g id="Layer_2-2" data-name="Layer 2"><path class="cls-1" d="M612,161.12C277,155.2,3,287.15,0,455.83S266.2,766,601.18,771.93s609-126,611.94-294.7S947,167,612,161.12Zm-8.43,477.73c-189-3.34-340.88-83.2-339.2-178.36S420.6,290.86,609.61,294.2s340.88,83.19,339.2,178.37S792.54,642.18,603.53,638.85Z"/><path class="cls-2" d="M241.11,639.55c36.82,25.7,79.54,41.37,126.53,41.1,28.74-.16,57.67-6.45,83.25-19.8,23.31-12.17,61.54-40.66,61.54-40.66s10.43-10.51,21.07-9.26,37.1,13.56,86.25,19,173.52,15.42,230.89,13.49,155.3-14.76,199.88-24.43,104.65-41,129.83-69.09c23.8-26.57,34.6-97.43,37.89-122.73,2.72-20.95,4.91-43.73,3.64-64.83a71.58,71.58,0,0,0-1.05-9c-3.75-20.09-17.56-39.39-29.9-55.3a229.16,229.16,0,0,0-47.59-45.75c-62-44.47-194.93-90.22-222.18-98.49s-78.86-22.58-171.38-39.48S619.69,90.47,551.88,92.65l-67.8,2.18c-2.32.08-9.64-8.18-11.23-10-5.29-6-10.62-11.84-16.31-17.41a279.86,279.86,0,0,0-35.84-29.7C384.63,12.63,340.76-4,297.08.85,271.87,3.68,247.79,13.56,226.29,27c-59.37,37.22-107.57,97.48-127.15,165a233.72,233.72,0,0,0-7.62,37.12c-3.17,26.4-3.52,53.6.46,80,4,26.17,14.31,54.41,34.84,72.24-1.5-1.31,4.39-19,5.1-21.35a160.19,160.19,0,0,1,10-25.06,196.19,196.19,0,0,1,30.2-44.08c10.82-11.89,22.32-23.44,35.12-33.05,13.54-10.16,27.66-19.88,42.57-28,26.61-14.54,54.83-27.2,84.89-30.76,18.19-2.15,36.59-.69,54.82,1.06,46.36,4.45,87.67,37.8,123,65.34-1.25-1,2.48-17.66,2.77-20.12,0,0,65.89,3.3,106.82,5.89s113.13,14.24,153.76,24.72,141.09,38.14,141.09,38.14l15.46-2s64.85,25.7,95.51,40.08,69.21,29.07,85.54,44,37.18,34.49,37.18,34.49-41.31,25-121.17,35.24S843,482.05,773.19,479.24s-106.82-5.88-145.83-14c-15.15-3.13-30.32-5.92-45.54-8.65,7.16-8.32,8.87-20.12,8-31.07-4-50.68-26.72-95.83-61.71-132.16q-5.76-6-11.85-11.63a370,370,0,0,0-43-34c-14.07-9.62-29.22-20.72-45.14-27a169,169,0,0,0-33.84-9.37,196.07,196.07,0,0,0-70.21,1.18c-68.59,13.41-136.23,60.79-171.4,121.6a86.84,86.84,0,0,0-6.25,12.78c-24.69,65.44-21.93,138,11,200.13a229.11,229.11,0,0,0,27.1,40.26A295.92,295.92,0,0,0,241.11,639.55Z"/><path class="cls-3" d="M162.68,489.57a198.43,198.43,0,0,1-5.16-48.5c.51-25.15,7.33-50.09,21.9-70.8,36.6-52,115.14-59.8,174.2-37.66,38.88,14.57,64.24,39.09,85.52,72.39s30.63,62,30.27,103.2c-.26,30.33-9.63,60.75-27.38,85.44-21,29.19-49.21,44.21-84.57,48.62-4.4.55-8.8,1-13.21,1.5-29.44,3.27-78.59-14.6-100.69-30.29C203.17,584.8,174,538.69,162.68,489.57Z"/><path class="cls-4" d="M627.36,465.28c-15.15-3.13-30.32-5.92-45.54-8.65,0,0-9.17-2.4-21.06-14.77s-18.9-38.75-27.26-55.7S498.86,317,463,290.21c-19.39-14.47-40.41-26.8-61.83-38-17.76-9.29-36.09-17.78-56.56-11.49-7.51,2.31-14.67,6.48-19.33,12.81-4.17,5.65-8.49,20.14-1.95,25.1,3.56,2.7,12.88,3.08,17.19,4.32,21.37,6.15,43.37,14.54,60.87,28.59,29.29,23.52,68.39,63.28,81.66,90.4s32.46,60.18,51.87,66.95S595.57,488.35,652,494.47s118.79,11,157.87,10.57,98.79-4.48,98.79-4.48-73.56-7.52-83.77-10.84c-4.64-1.51-10-5.68-14.56-9.78-13.17,0-25.64-.24-37.11-.7C703.43,476.44,666.37,473.36,627.36,465.28Z"/><path class="cls-4" d="M926.77,505.43c43.5-2.94,88.59-10.28,131.41-18.87,47.11-9.45,99.27-24.09,134-59.06-3.21,3.22-4.47,14.69-5.88,18.93-3.44,10.33-6.71,20.68-10.86,30.77-8.7,21.17-19.69,41.33-31.5,60.91-8.82,14.63-18.21,29.08-30.19,41.25-16.17,16.43-37.87,25.41-60,30.44a302.5,302.5,0,0,1-33.74,5.37c-5.57.61-11.16,1.12-16.75,1.61-2,.17-12.33-.12-13.54,1.54,18.39-25.38,29-51.73,14.81-82.09-3.48-7.46-8.13-14.59-14.75-19.49-9.48-7-21.46-8.49-32.89-9.4C947.06,506.56,936.61,504.77,926.77,505.43Z"/><path class="cls-4" d="M955.67,186.1s22.69,4.29,74.9,25.89,89,39.51,107.43,54.64,40,35,50.76,58.34,9.38,52.85,2.4,66.62l-7,13.77s-5.4-22-19-35.65-46.34-12.06-46.34-12.06-29.95,3.34-33.56,3.29-50-16.72-56.9-22S989.9,272,989.9,272Z"/><path class="cls-5" d="M797.41,140.58c-37.9-6.45-98.07-17.13-146.65-23.34-48.16-6.15-114.79-8.59-135.88-7.73-21.94.9-31.35,1.8-31.35,1.8s14.18,19.46,19.69,38.31,2.6,52.18,2.6,52.18l.82,27.7s.41,13.43-.27,16.57c5.56.29,27.19,1.91,51.83,3.32,21.8,1.25,46.5,2.39,63.91,3.49C663,255.47,736,267.93,776.67,278.41s139.57,37.45,139.57,37.45l15-7.17,11.52-54.51,5.26-67.1-8.26-8.2S835.31,147,797.41,140.58Z"/><path class="cls-6" d="M129.84,330s.77,2,.69,6.5c-.05,2.75,2.06,10.65,3.72,16.44-1.29-4.48,7.6-17.87,9.76-21.89,31.53-58.78,92.89-101.16,154.65-123.24,11.66-4.17,31.22-6,43.54-7.46,18.18-2.15,27.47-1,45.7.77,46.37,4.44,89.28,36.77,124.57,64.31-1.25-1,2.48-17.66,2.77-20.12l1.08.06c3.78-7.32,5.19-60.36-3.55-88.24-16.06-51.25-38.92-97.88-85.09-128.36-13.36-8.81-26.44-14-42.5-14.22-17.06-.23-34,3.11-50.34,7.82-63.52,18.3-121,58.76-157.77,113.93-15.78,23.67-26.72,51.35-34.23,78.75C129.53,263.64,125.35,299.19,129.84,330Z"/><path class="cls-5" d="M515.19,245.33h-.13l.31,0c.16-10.36.8-20.26-.14-30.34-.23-2.42-.54-4.85-1-7.3a237.42,237.42,0,0,0-10.71-39.82C491.56,135,472,99.4,443,78.67c-10.21-7.29-19.44-10.51-31.68-11.45-26.84-2-54.41,4.39-78.1,17a157.59,157.59,0,0,0-33.77,24.24c-21.07,19.72-38.74,42.91-53.38,67.72a377.85,377.85,0,0,0-19.63,38.19Q222.07,224,218.27,234a65.36,65.36,0,0,0-3.19,12.84c-.37,2.52-.2,4,.36,4.8a331.35,331.35,0,0,1,83.22-43.79c2.17-.77,4.36-1.5,6.57-2.21,7.63-2.43,17.57-2.56,24.6-6.22,4.81-2.51,7.79-7.89,11.89-11.3,6-5,12.33-9.73,19.42-13.11,22.42-10.67,38.71-1.12,53.52,15.9,3,3.42,4.66,7.67,6.27,11.84,2,5.24,2.75,5.54,8,8q14.74,6.94,28.79,15.26c19.55,11.55,36.9,25.52,54.73,39.44-1.25-1,2.48-17.66,2.77-20.12Z"/><path class="cls-6" d="M589.83,425.56c-4-50.68-26.72-95.83-61.71-132.16-29-30.09-63.43-60-103.2-74.9-9.83-3.67-20.18-5.35-30.63-7.13a196.07,196.07,0,0,0-70.21,1.18c-25.43,5-50.72,14.62-74.28,27.88,34.65-10.08,69.51-17.54,106-15.34,24.05,1.44,48.1,7.12,69.58,18.22,20.4,10.54,42.51,23.63,59.28,39.48,42.87,40.5,70.34,91.15,85.3,147.92,1.41,5.34,3.49,22.76,8.69,25.65,1.18.66,10.34.55,10.67-.52C591.24,449.64,590.35,432.08,589.83,425.56Z"/></g></g></svg>