<svg xmlns="http://www.w3.org/2000/svg" viewBox="0 0 1222.32 771.98"><defs><style>.cls-1{fill:#c8c8c8;}.cls-2,.cls-3{fill:#efefef;}.cls-3{stroke:#fff;stroke-miterlimit:10;stroke-width:10px;}.cls-4{fill:#e0e0e0;}.cls-5{fill:#a0a0a0;}.cls-6{fill:#adadad;}.cls-7{font-size:80px;fill:#ef849c;font-family:I-pixel-u, I pixel u;}</style></defs><g id="Layer_2" data-name="Layer 2"><g id="Layer_2-2" data-name="Layer 2"><path class="cls-1" d="M615.68,161.07c335,0,606.64,136.75,606.64,305.46S950.71,772,615.68,772,9,635.22,9,466.53,280.64,161.07,615.68,161.07Zm0,477.81c189,0,342.29-77.17,342.29-172.35S804.72,294.17,615.68,294.17,273.39,371.34,273.39,466.53,426.64,638.88,615.68,638.88Z"/><path class="cls-2" d="M981.14,639.55c-36.82,25.7-79.54,41.37-126.52,41.1-28.74-.16-57.68-6.45-83.25-19.8-23.32-12.17-61.55-40.66-61.55-40.66s-10.43-10.51-21.07-9.26-37.1,13.56-86.25,19S429,645.36,371.62,643.43,216.32,628.67,171.73,619,67.08,578,41.9,549.91C18.11,523.34,7.3,452.48,4,427.18,1.29,406.23-.9,383.45.37,362.35a73.48,73.48,0,0,1,1-9C5.17,333.24,19,313.94,31.32,298a229.41,229.41,0,0,1,47.59-45.75c62-44.47,194.93-90.22,222.19-98.49S380,131.21,472.48,114.31,602.56,90.47,670.37,92.65l67.8,2.18c2.33.08,9.64-8.18,11.23-10,5.29-6,10.62-11.84,16.31-17.41a280.55,280.55,0,0,1,35.84-29.7C837.62,12.63,881.49-4,925.17.85,950.38,3.68,974.46,13.56,996,27c59.37,37.22,107.57,97.48,127.15,165a233.72,233.72,0,0,1,7.62,37.12c3.18,26.4,3.52,53.6-.45,80-4,26.17-14.32,54.41-34.85,72.24,1.5-1.31-4.39-19-5.1-21.35a160.19,160.19,0,0,0-10-25.06,196.19,196.19,0,0,0-30.2-44.08c-10.82-11.89-22.32-23.44-35.12-33.05-13.54-10.16-27.66-19.88-42.57-28-26.61-14.54-54.83-27.2-84.89-30.76-18.19-2.15-36.59-.69-54.82,1.06-46.36,4.45-87.67,37.8-123,65.34,1.25-1-2.48-17.66-2.76-20.12,0,0-65.9,3.3-106.83,5.89s-113.13,14.24-153.76,24.72-141.09,38.14-141.09,38.14l-15.46-2s-64.85,25.7-95.51,40.08-69.21,29.07-85.54,44-37.17,34.49-37.17,34.49,41.3,25,121.16,35.24,186.48,16.16,256.24,13.35,106.82-5.88,145.83-14c15.15-3.13,30.33-5.92,45.54-8.65-7.16-8.32-8.87-20.12-8-31.07,4-50.68,26.72-95.83,61.71-132.16q5.76-6,11.86-11.63a368.32,368.32,0,0,1,43-34c14.06-9.62,29.21-20.72,45.13-27A169,169,0,0,1,828,211.37a196.13,196.13,0,0,1,70.22,1.18c68.58,13.41,136.22,60.79,171.4,121.6a87.79,87.79,0,0,1,6.24,12.78c24.69,65.44,21.93,138-11,200.13a229.11,229.11,0,0,1-27.1,40.26A295.62,295.62,0,0,1,981.14,639.55Z"/><path class="cls-3" d="M1059.57,489.57a198.43,198.43,0,0,0,5.16-48.5c-.51-25.15-7.33-50.09-21.9-70.8-36.6-52-115.14-59.8-174.2-37.66-38.87,14.57-64.24,39.09-85.52,72.39s-30.63,62-30.27,103.2c.26,30.33,9.63,60.75,27.39,85.44,21,29.19,49.2,44.21,84.57,48.62,4.39.55,8.8,1,13.2,1.5,29.44,3.27,78.59-14.6,100.69-30.29C1019.08,584.8,1048.24,538.69,1059.57,489.57Z"/><path class="cls-4" d="M594.89,465.28c15.15-3.13,30.33-5.92,45.54-8.65,0,0,9.18-2.4,21.07-14.77s18.89-38.75,27.25-55.7,34.64-69.16,70.53-96c19.39-14.47,40.41-26.8,61.83-38,17.77-9.29,36.09-17.78,56.56-11.49,7.51,2.31,14.67,6.48,19.33,12.81,4.17,5.65,8.49,20.14,2,25.1-3.57,2.7-12.89,3.08-17.2,4.32-21.37,6.15-43.37,14.54-60.87,28.59-29.28,23.52-68.38,63.28-81.66,90.4s-32.46,60.18-51.86,66.95-60.69,19.47-117.08,25.59-118.8,11-157.88,10.57-98.79-4.48-98.79-4.48,73.56-7.52,83.77-10.84c4.64-1.51,10-5.68,14.56-9.78,13.17,0,25.65-.24,37.11-.7C518.82,476.44,555.88,473.36,594.89,465.28Z"/><path class="cls-4" d="M295.48,505.43c-43.5-2.94-88.59-10.28-131.41-18.87-47.1-9.45-99.27-24.09-134-59.06,3.2,3.22,4.47,14.69,5.88,18.93,3.43,10.33,6.71,20.68,10.85,30.77,8.7,21.17,19.69,41.33,31.5,60.91,8.82,14.63,18.21,29.08,30.19,41.25,16.17,16.43,37.87,25.41,60,30.44a302.5,302.5,0,0,0,33.74,5.37c5.58.61,11.16,1.12,16.75,1.61,2,.17,12.33-.12,13.54,1.54-18.39-25.38-29-51.73-14.81-82.09,3.48-7.46,8.14-14.59,14.75-19.49,9.48-7,21.46-8.49,32.89-9.4C275.2,506.56,285.64,504.77,295.48,505.43Z"/><path class="cls-4" d="M266.58,186.1s-22.69,4.29-74.89,25.89-89,39.51-107.44,54.64-40,35-50.75,58.34-9.38,52.85-2.4,66.62l7,13.77s5.4-22,19-35.65,46.35-12.06,46.35-12.06S133.37,361,137,360.94s50-16.72,56.9-22S232.35,272,232.35,272Z"/><path class="cls-5" d="M424.84,140.58c37.9-6.45,98.07-17.13,146.65-23.34,48.16-6.15,114.79-8.59,135.89-7.73,21.94.9,31.34,1.8,31.34,1.8S724.55,130.77,719,149.62s-2.6,52.18-2.6,52.18l-.82,27.7s-.41,13.43.27,16.57c-5.56.29-27.19,1.91-51.83,3.32-21.8,1.25-46.5,2.39-63.91,3.49-40.93,2.59-113.92,15.05-154.55,25.53S306,315.86,306,315.86L291,308.69l-11.52-54.51-5.26-67.1,8.26-8.2S386.94,147,424.84,140.58Z"/><path class="cls-6" d="M1092.41,330s-.76,2-.69,6.5c0,2.75-2,10.65-3.72,16.44,1.29-4.48-7.59-17.87-9.75-21.89-31.54-58.78-92.9-101.16-154.66-123.24-11.66-4.17-31.22-6-43.54-7.46-18.18-2.15-27.47-1-45.7.77-46.36,4.44-89.28,36.77-124.57,64.31,1.25-1-2.48-17.66-2.76-20.12l-1.09.06c-3.78-7.32-5.19-60.36,3.55-88.24,16.06-51.25,38.92-97.88,85.1-128.36,13.35-8.81,26.43-14,42.49-14.22,17.07-.23,34,3.11,50.35,7.82,63.51,18.3,121,58.76,157.76,113.93,15.78,23.67,26.72,51.35,34.23,78.75C1092.72,263.64,1096.9,299.19,1092.41,330Z"/><path class="cls-5" d="M707.06,245.33h.13l-.31,0c-.16-10.36-.8-20.26.14-30.34.23-2.42.54-4.85,1-7.3a237.42,237.42,0,0,1,10.71-39.82c12-32.9,31.55-68.48,60.58-89.21C789.5,71.38,798.73,68.16,811,67.22c26.84-2,54.41,4.39,78.1,17a157.34,157.34,0,0,1,33.77,24.24c21.07,19.72,38.74,42.91,53.38,67.72a375.8,375.8,0,0,1,19.63,38.19Q1000.19,224,1004,234a64.67,64.67,0,0,1,3.19,12.84c.38,2.52.2,4-.36,4.8a331.18,331.18,0,0,0-83.22-43.79c-2.17-.77-4.36-1.5-6.56-2.21-7.64-2.43-17.58-2.56-24.61-6.22-4.81-2.51-7.79-7.89-11.88-11.3-6-5-12.34-9.73-19.43-13.11-22.42-10.67-38.71-1.12-53.52,15.9-3,3.42-4.66,7.67-6.27,11.84-2,5.24-2.75,5.54-8,8Q778.56,217.7,764.51,226c-19.54,11.55-36.9,25.52-54.73,39.44,1.25-1-2.48-17.66-2.76-20.12Z"/><path class="cls-6" d="M632.42,425.56c4-50.68,26.72-95.83,61.71-132.16,29-30.09,63.43-60,103.2-74.9,9.83-3.67,20.18-5.35,30.63-7.13a196.13,196.13,0,0,1,70.22,1.18c25.42,5,50.71,14.62,74.27,27.88-34.65-10.08-69.51-17.54-106-15.34-24.05,1.44-48.1,7.12-69.57,18.22-20.4,10.54-42.52,23.63-59.29,39.48-42.87,40.5-70.34,91.15-85.3,147.92-1.41,5.34-3.48,22.76-8.69,25.65-1.18.66-10.34.55-10.67-.52C631,449.64,631.91,432.08,632.42,425.56Z"/><text class="cls-7" transform="translate(965.01 516.4) rotate(-111.86)">bit</text></g></g></svg>