<svg xmlns="http://www.w3.org/2000/svg" viewBox="0 0 797.78 630.51"><defs><style>.cls-1{isolation:isolate;}.cls-2{fill:#ff953f;}.cls-3{fill:#fcdf6c;}.cls-4,.cls-8{fill:#d1d1d3;}.cls-4{mix-blend-mode:multiply;}.cls-5{fill:#78332e;}.cls-6{fill:#f66;}.cls-7{fill:#e1e1e1;}.cls-9{fill:#b34c45;}.cls-10{fill:#f2847d;}.cls-11{fill:#321f35;}.cls-12{fill:#8b4b8b;}.cls-13{fill:#422946;}.cls-14{fill:#795f7d;}.cls-15{fill:#84384c;}.cls-16{fill:#c2c2c4;}.cls-17{fill:#a54460;}.cls-18{fill:#ef655c;}.cls-19{fill:#ff8080;}.cls-20{fill:#f9f9fb;}.cls-21{fill:#fdcdc5;}.cls-22{fill:#c06f84;}.cls-23{fill:#58375d;}.cls-24{fill:#6767cc;}.cls-25{fill:#009797;}.cls-26,.cls-28,.cls-35,.cls-36,.cls-37,.cls-43{fill:none;stroke-miterlimit:10;}.cls-26,.cls-28,.cls-37,.cls-43{stroke:#fff;}.cls-26,.cls-28,.cls-35,.cls-36,.cls-37{stroke-linecap:round;}.cls-26{stroke-width:1.4px;}.cls-27{fill:#ff9764;}.cls-28{stroke-width:1.88px;}.cls-29{fill:#b38680;}.cls-30{fill:#f2b9b1;}.cls-31{fill:#efb3ab;}.cls-32{fill:#fcc0b6;}.cls-33{fill:#ff9967;}.cls-34{fill:#003264;}.cls-35{stroke:#18898d;stroke-width:1.43px;}.cls-36{stroke:#222b54;stroke-width:1.78px;}.cls-37{stroke-width:1.59px;}.cls-38{fill:#b04b65;}.cls-39{fill:#f4f4f4;}.cls-40{fill:#fbfbfd;}.cls-41{fill:#fbf1d7;}.cls-42{fill:#ffcc98;}.cls-43{stroke-width:0.49px;}.cls-44{fill:#003056;}.cls-45{fill:#ff9a9a;}.cls-46{fill:#003467;}.cls-47{fill:#f59e83;}.cls-48{fill:#222b55;}.cls-49{fill:#0f385a;}.cls-50{fill:#6565cb;}.cls-51{fill:#fff;}.cls-52{fill:#62c1c4;}.cls-53{fill:#af2c2c;}.cls-54{fill:#ffcc9a;}.cls-55{fill:#f4a086;}.cls-56{fill:#9a9aff;}.cls-57{fill:#003367;}.cls-58{fill:#222b53;}.cls-59{fill:#c7e7ed;}.cls-60{fill:#1b898f;}.cls-61{fill:#0a3c5f;}.cls-62{fill:#fbf1d8;}.cls-63{fill:#212c54;}.cls-64{fill:#ea832e;}.cls-65{fill:#e75165;}.cls-66{fill:#222b54;}.cls-67{fill:#feffff;}.cls-68{fill:#c4e5ee;}.cls-69{fill:#456da4;}.cls-70{fill:#ffc501;}.cls-71{fill:#fd8703;}.cls-72{fill:#ff8c03;}</style></defs><g class="cls-1"><g id="Layer_1" data-name="Layer 1"><path class="cls-2" d="M448.61,179.28s17.14,13.49,27.47-26.86c0,0,12.57-46.28,34.18-40.25l-23.39-6.53s-16.58-1.22-28.27,43.42c0,0-6,28.73-19,27.33Z" transform="translate(-25 -71.19)"/><path class="cls-3" d="M331.5,217s68,5.15,100.84-26.61L408.57,179s-10.17,31.87-92.72,25.8" transform="translate(-25 -71.19)"/><path class="cls-3" d="M455.94,159.19s-9.87,7.51-7.33,20.09l-30.08-9.69s-5.52-12.41,6-18.62" transform="translate(-25 -71.19)"/><path class="cls-2" d="M432.34,190.34s-4.69-34.55,23.6-31.15L424.55,151s-22.46,4.48-16,28" transform="translate(-25 -71.19)"/><polygon class="cls-4" points="142.53 338.99 213.11 381.12 346.77 302.94 276.83 261.3 142.53 338.99"/><path class="cls-5" d="M547.69,417.57l10.39,6V447.9l-10.39-6c-3.73-2.16-6.76-9.36-6.76-16.08S544,415.42,547.69,417.57Z" transform="translate(-25 -71.19)"/><path class="cls-5" d="M549.81,442l116.27,67.13c3.12,1.8,8.57,1.58,12.17-.5l139.06-80.29c3.6-2.08,4-5.23.87-7L701.91,354.14Z" transform="translate(-25 -71.19)"/><path class="cls-6" d="M550.57,415.53c-3.08-1.78-5.69-2-7.59-1L694.67,327c1.75-1.2,4.15-1.24,7.15.24l116.36,67.13c3.12,1.8,2.73,4.95-.87,7L678.25,481.67c-3.6,2.08-9,2.31-12.17.51Z" transform="translate(-25 -71.19)"/><path class="cls-7" d="M818.52,405.15a9.85,9.85,0,0,1-1.21.84L678.25,486.27c-3.6,2.08-9,2.31-12.17.5L552.25,421.05v19.49l113.83,65.72c3.12,1.8,8.57,1.58,12.17-.5l137.29-78.94c2-1.13,3-2.58,3-4V405.15Z" transform="translate(-25 -71.19)"/><path class="cls-8" d="M818.52,421.64c0,1.38-1,2.83-3,4L678.25,504.54c-3.6,2.08-9,2.31-12.17.51L552.25,439.33v1.21l113.83,65.72c3.12,1.8,8.57,1.58,12.17-.5l137.29-78.94c2-1.13,3-2.58,3-4Z" transform="translate(-25 -71.19)"/><path class="cls-8" d="M818.52,419.22c0,1.37-1,2.82-3,4L678.25,502.11c-3.6,2.08-9,2.31-12.17.51L552.25,436.9v1.22l113.83,65.72c3.12,1.8,8.57,1.57,12.17-.51l137.29-78.94c2-1.13,3-2.58,3-4Z" transform="translate(-25 -71.19)"/><path class="cls-8" d="M818.52,416.79c0,1.38-1,2.83-3,4L678.25,499.69c-3.6,2.08-9,2.31-12.17.5L552.25,434.47v1.22l113.83,65.72c3.12,1.8,8.57,1.58,12.17-.5L815.54,422c2-1.14,3-2.59,3-4Z" transform="translate(-25 -71.19)"/><path class="cls-8" d="M818.52,414.36c0,1.38-1,2.83-3,4L678.25,497.26c-3.6,2.08-9,2.31-12.17.51L552.25,432.05v1.22L666.08,499c3.12,1.8,8.57,1.58,12.17-.5l137.29-78.94c2-1.13,3-2.58,3-4Z" transform="translate(-25 -71.19)"/><path class="cls-8" d="M818.52,411.94c0,1.37-1,2.82-3,4L678.25,494.84c-3.6,2.08-9,2.3-12.17.5L552.25,429.62v1.22l113.83,65.72c3.12,1.8,8.57,1.57,12.17-.51l137.29-78.93c2-1.14,3-2.59,3-4Z" transform="translate(-25 -71.19)"/><path class="cls-8" d="M818.52,409.51c0,1.38-1,2.83-3,4L678.25,492.41c-3.6,2.08-9,2.31-12.17.5L552.25,427.19v1.22l113.83,65.72c3.12,1.81,8.57,1.58,12.17-.5l137.29-78.94c2-1.13,3-2.59,3-4Z" transform="translate(-25 -71.19)"/><path class="cls-8" d="M818.52,407.08c0,1.38-1,2.83-3,4L678.25,490c-3.6,2.08-9,2.31-12.17.51L552.25,424.77V426l113.83,65.72c3.12,1.8,8.57,1.57,12.17-.51l137.29-78.94c2-1.13,3-2.58,3-4Z" transform="translate(-25 -71.19)"/><path class="cls-8" d="M818.52,404.66c0,1.37-1,2.82-3,4L678.25,487.56c-3.6,2.08-9,2.3-12.17.5L552.25,422.34v1.22l113.83,65.72c3.12,1.8,8.57,1.57,12.17-.5l137.29-78.94c2-1.14,3-2.59,3-4Z" transform="translate(-25 -71.19)"/><path class="cls-9" d="M539.1,424.62c0-8.35,3.71-13,10.71-9.53l116.27,67.09c3.12,1.8,8.57,1.57,12.17-.51l139.06-80.28c2-1.17,3-2.68,3-4.09h0V402h0c0,1.38-1,2.83-3,4L678.25,486.27c-3.6,2.08-9,2.31-12.17.5l-115.36-66.6c-5.37-3.1-7.61.6-7.61,6.76s2.24,12.45,7.61,15.55l115.36,66.6c3.12,1.8,8.57,1.58,12.17-.5l139.06-80.29c2-1.17,3-2.67,3-4.09h0v4.73h0c0,1.38-1,2.83-3,4L678.25,513.18c-3.6,2.07-9,2.3-12.17.5L549.81,446.5C542.82,441.91,539.1,433,539.1,424.62Z" transform="translate(-25 -71.19)"/><path class="cls-10" d="M678.24,481.66,699.92,469l47.76-27.67,47.84-27.53,21.78-12.46L795.62,414l-47.76,27.67L700,469.2Z" transform="translate(-25 -71.19)"/><path class="cls-10" d="M549.81,415.09,568,425.49l40,23L648,471.6l18.12,10.57-18.21-10.4-40-23-39.92-23.13Z" transform="translate(-25 -71.19)"/><path class="cls-10" d="M678.27,508.57,700,495.94l47.76-27.67,47.84-27.53,21.77-12.46-21.68,12.63-47.76,27.67L700,496.1Z" transform="translate(-25 -71.19)"/><path class="cls-10" d="M550.72,442.48l18.07,10.32,39.7,22.82,39.62,23,18,10.49L648,498.75l-39.7-22.82L568.7,453Z" transform="translate(-25 -71.19)"/><path class="cls-10" d="M702.22,327.52l18.2,10.29,39.93,22.85,39.79,23.09,18,10.59,0,0L702.21,327.55Z" transform="translate(-25 -71.19)"/><path class="cls-11" d="M231.27,249l8.49,4.9v19.89l-8.49-4.9c-3.05-1.76-5.52-7.64-5.52-13.14S228.22,247.27,231.27,249Z" transform="translate(-25 -71.19)"/><path class="cls-11" d="M233,269l95.05,54.88c2.55,1.47,7,1.28,9.95-.42l113.68-65.63c2.94-1.7,3.26-4.27.71-5.74l-95.05-54.88Z" transform="translate(-25 -71.19)"/><path class="cls-12" d="M233.62,247.36c-2.51-1.46-4.65-1.66-6.2-.8l124-71.58c1.43-1,3.38-1,5.84.2h.07l95.05,54.87c2.55,1.48,2.23,4-.71,5.75L338,301.43c-2.94,1.7-7.4,1.89-9.95.41Z" transform="translate(-25 -71.19)"/><path class="cls-7" d="M452.67,238.87a7.81,7.81,0,0,1-1,.69L338,305.19c-2.94,1.7-7.4,1.89-9.95.41L235,251.88v15.93l93.05,53.72c2.55,1.48,7,1.29,9.95-.41l112.24-64.53c1.61-.93,2.42-2.11,2.43-3.24V238.87Z" transform="translate(-25 -71.19)"/><path class="cls-8" d="M452.67,252.35c0,1.13-.82,2.32-2.43,3.24L338,320.12c-2.94,1.7-7.4,1.89-9.95.42L235,266.81v1l93.05,53.72c2.55,1.48,7,1.29,9.95-.41l112.24-64.53c1.61-.93,2.42-2.11,2.43-3.24Z" transform="translate(-25 -71.19)"/><path class="cls-8" d="M452.67,250.37c0,1.13-.82,2.31-2.43,3.24L338,318.14c-2.94,1.7-7.4,1.89-9.95.41L235,264.83v1l93.05,53.72c2.55,1.47,7,1.29,9.95-.41l112.24-64.53c1.61-.93,2.42-2.12,2.43-3.24Z" transform="translate(-25 -71.19)"/><path class="cls-8" d="M452.67,248.39c0,1.12-.82,2.31-2.43,3.24L338,316.16c-2.94,1.7-7.4,1.88-9.95.41L235,262.85v1l93.05,53.73c2.55,1.47,7,1.28,9.95-.42l112.24-64.53c1.61-.92,2.42-2.11,2.43-3.24Z" transform="translate(-25 -71.19)"/><path class="cls-8" d="M452.67,246.4c0,1.13-.82,2.32-2.43,3.24L338,314.17c-2.94,1.71-7.4,1.89-9.95.42L235,260.86v1l93.05,53.72c2.55,1.48,7,1.29,9.95-.41l112.24-64.53c1.61-.93,2.42-2.11,2.43-3.24Z" transform="translate(-25 -71.19)"/><path class="cls-8" d="M452.67,244.42c0,1.13-.82,2.31-2.43,3.24L338,312.19c-2.94,1.7-7.4,1.88-9.95.41L235,258.88v1l93.05,53.72c2.55,1.47,7,1.29,9.95-.41l112.24-64.53c1.61-.93,2.42-2.12,2.43-3.24Z" transform="translate(-25 -71.19)"/><path class="cls-8" d="M452.67,242.44c0,1.12-.82,2.31-2.43,3.24L338,310.21c-2.94,1.7-7.4,1.88-9.95.41L235,256.9v1l93.05,53.73c2.55,1.47,7,1.28,9.95-.42l112.24-64.53c1.61-.92,2.42-2.11,2.43-3.24Z" transform="translate(-25 -71.19)"/><path class="cls-8" d="M452.67,240.45c0,1.13-.82,2.32-2.43,3.24L338,308.22c-2.94,1.7-7.4,1.89-9.95.42L235,254.91v1l93.05,53.72c2.55,1.47,7,1.29,9.95-.41l112.24-64.53c1.61-.93,2.42-2.11,2.43-3.24Z" transform="translate(-25 -71.19)"/><path class="cls-8" d="M452.67,238.47c0,1.13-.82,2.31-2.43,3.24L338,306.24c-2.94,1.7-7.4,1.89-9.95.41L235,252.93v1l93.05,53.73c2.55,1.47,7,1.29,9.95-.41l112.24-64.53c1.61-.93,2.42-2.12,2.43-3.24Z" transform="translate(-25 -71.19)"/><path class="cls-13" d="M224.25,254.79c0-6.82,3-10.65,8.75-7.79l95.05,54.84c2.55,1.48,7,1.29,9.95-.41L451.68,235.8c1.65-1,2.48-2.19,2.43-3.35h0v3.87h0c0,1.12-.83,2.31-2.43,3.24L338,305.19c-2.94,1.7-7.4,1.89-9.95.41l-94.3-54.45c-4.39-2.53-6.23.49-6.23,5.53s1.84,10.18,6.23,12.71l94.3,54.45c2.55,1.47,7,1.28,9.95-.42l113.68-65.63c1.65-1,2.48-2.18,2.43-3.34h0v3.86h0c0,1.13-.83,2.31-2.43,3.24L338,327.18c-2.94,1.7-7.4,1.89-9.95.42L233,272.67C227.29,268.93,224.25,261.61,224.25,254.79Z" transform="translate(-25 -71.19)"/><path class="cls-14" d="M338,301.42l56.77-32.94,56.91-32.69-56.76,32.94Z" transform="translate(-25 -71.19)"/><path class="cls-14" d="M233,247l14.89,8.5,32.71,18.79,32.63,18.91L328,301.84l-14.89-8.5-32.7-18.8-32.64-18.9Z" transform="translate(-25 -71.19)"/><path class="cls-14" d="M338,323.41l56.76-32.94,56.91-32.69-56.76,32.94Z" transform="translate(-25 -71.19)"/><path class="cls-14" d="M233.75,269.39l14.77,8.44L281,296.48l32.39,18.77,14.7,8.58-14.78-8.44-32.46-18.66L248.44,278Z" transform="translate(-25 -71.19)"/><path class="cls-14" d="M357.35,175.16l14.91,8.46L405,202.38l32.62,19L452.39,230v0l-95.05-54.88Z" transform="translate(-25 -71.19)"/><path class="cls-15" d="M465.71,385.06c5.14,3,9.32,10.17,9.32,16.08s-4.18,8.28-9.32,5.31l-34.2-19.74V365.32Z" transform="translate(-25 -71.19)"/><path class="cls-15" d="M587.28,336.41l-89-51.36a7.66,7.66,0,0,0-6.91.28L379.25,350.08c-2.05,1.19-2.27,3-.5,4l89,51.36Z" transform="translate(-25 -71.19)"/><polygon class="cls-7" points="443.69 330.85 356.48 280.5 356.48 262.48 443.69 312.83 443.69 330.85"/><polygon class="cls-8" points="443.69 330.85 356.48 280.5 356.48 279.88 443.69 330.23 443.69 330.85"/><polygon class="cls-8" points="443.69 329.6 356.48 279.25 356.48 278.63 443.69 328.98 443.69 329.6"/><polygon class="cls-8" points="443.69 328.36 356.48 278.01 356.48 277.39 443.69 327.74 443.69 328.36"/><polygon class="cls-8" points="443.69 327.12 356.48 276.77 356.48 276.15 443.69 326.5 443.69 327.12"/><polygon class="cls-8" points="443.69 325.88 356.48 275.53 356.48 274.9 443.69 325.26 443.69 325.88"/><polygon class="cls-8" points="443.69 324.64 356.48 274.28 356.48 273.66 443.69 324.01 443.69 324.64"/><polygon class="cls-8" points="443.69 323.39 356.48 273.04 356.48 272.42 443.69 322.77 443.69 323.39"/><polygon class="cls-8" points="443.69 322.15 356.48 271.8 356.48 271.18 443.69 321.53 443.69 322.15"/><polygon class="cls-8" points="443.69 320.91 356.48 270.56 356.48 269.94 443.69 320.29 443.69 320.91"/><polygon class="cls-8" points="443.69 319.67 356.48 269.31 356.48 268.69 443.69 319.05 443.69 319.67"/><polygon class="cls-8" points="443.69 318.42 356.48 268.07 356.48 267.45 443.69 317.8 443.69 318.42"/><polygon class="cls-8" points="443.69 317.18 356.48 266.83 356.48 266.21 443.69 316.56 443.69 317.18"/><polygon class="cls-8" points="443.69 315.94 356.48 265.59 356.48 264.97 443.69 315.32 443.69 315.94"/><polygon class="cls-8" points="443.69 314.7 356.48 264.35 356.48 263.73 443.69 314.08 443.69 314.7"/><polygon class="cls-8" points="443.69 313.45 356.48 263.1 356.48 262.48 443.69 312.83 443.69 313.45"/><polygon class="cls-8" points="443.69 330.85 530.9 280.5 530.9 262.48 443.69 312.83 443.69 330.85"/><polygon class="cls-16" points="443.69 330.85 530.9 280.5 530.9 279.88 443.69 330.23 443.69 330.85"/><polygon class="cls-16" points="443.69 329.6 530.9 279.25 530.9 278.63 443.69 328.98 443.69 329.6"/><polygon class="cls-16" points="443.69 328.36 530.9 278.01 530.9 277.39 443.69 327.74 443.69 328.36"/><polygon class="cls-16" points="443.69 327.12 530.9 276.77 530.9 276.15 443.69 326.5 443.69 327.12"/><polygon class="cls-16" points="443.69 325.88 530.9 275.53 530.9 274.9 443.69 325.26 443.69 325.88"/><polygon class="cls-16" points="443.69 324.64 530.9 274.28 530.9 273.66 443.69 324.01 443.69 324.64"/><polygon class="cls-16" points="443.69 323.39 530.9 273.04 530.9 272.42 443.69 322.77 443.69 323.39"/><polygon class="cls-16" points="443.69 322.15 530.9 271.8 530.9 271.18 443.69 321.53 443.69 322.15"/><polygon class="cls-16" points="443.69 320.91 530.9 270.56 530.9 269.94 443.69 320.29 443.69 320.91"/><polygon class="cls-16" points="443.69 319.67 530.9 269.31 530.9 268.69 443.69 319.05 443.69 319.67"/><polygon class="cls-16" points="443.69 318.42 530.9 268.07 530.9 267.45 443.69 317.8 443.69 318.42"/><polygon class="cls-16" points="443.69 317.18 530.9 266.83 530.9 266.21 443.69 316.56 443.69 317.18"/><polygon class="cls-8" points="443.69 315.94 530.9 265.59 530.9 264.97 443.69 315.32 443.69 315.94"/><polygon class="cls-8" points="443.69 314.7 530.9 264.35 530.9 263.73 443.69 314.08 443.69 314.7"/><polygon class="cls-8" points="443.69 313.45 530.9 263.1 530.9 262.48 443.69 312.83 443.69 313.45"/><path class="cls-17" d="M467.72,409.11l-89-51.36a2.06,2.06,0,0,1-1.19-1.74h0v-3.6a2.1,2.1,0,0,0,1.19,1.67l89,51.36Z" transform="translate(-25 -71.19)"/><path class="cls-18" d="M378.75,332.58l89,51.36,119.56-69c6.05,3.5,9.28,11,9.28,17.95,0,4-1,6.89-3.08,8l-119.56,69c-1.53.85-3.6.69-6.2-.81v-3.67c4.28,2.48,6.08-.48,6.08-5.4s-1.8-10-6.08-12.42h0l-89-51.37a2,2,0,0,1-1.19-1.73h0v-3.6A2.1,2.1,0,0,0,378.75,332.58Z" transform="translate(-25 -71.19)"/><path class="cls-19" d="M587.28,314.91l-89-51.36a7.69,7.69,0,0,0-6.91.29L379.25,328.59c-2.05,1.18-2.27,3-.5,4l89,51.36Z" transform="translate(-25 -71.19)"/><polygon class="cls-20" points="451.03 224.14 504.04 254.74 522.23 244.23 469.23 213.63 451.03 224.14"/><path class="cls-21" d="M428.46,347.56c-2.77,1.6-2.76,4.21,0,5.81a11.1,11.1,0,0,0,10.07,0c2.77-1.6,2.75-4.2,0-5.81A11.13,11.13,0,0,0,428.46,347.56Z" transform="translate(-25 -71.19)"/><path class="cls-17" d="M467.72,387.62l-89-51.37a2,2,0,0,1-1.19-1.73h0v-3.6a2.1,2.1,0,0,0,1.19,1.66l89,51.36Z" transform="translate(-25 -71.19)"/><path class="cls-17" d="M467.72,387.62v-3.68c6,3.5,9.28,11,9.28,17.95s-3.23,10.72-9.28,7.22v-3.67c4.28,2.48,6.08-.48,6.08-5.4S472,390.09,467.72,387.62Z" transform="translate(-25 -71.19)"/><path class="cls-22" d="M378.75,332.58l13.94,8,30.62,17.6,30.54,17.71,13.87,8.09-13.94-8-30.62-17.59-30.55-17.72Z" transform="translate(-25 -71.19)"/><path class="cls-22" d="M491.4,263.84l-56,32.5-56.15,32.25,56-32.5Z" transform="translate(-25 -71.19)"/><path class="cls-22" d="M587.27,314.93l-89-51.37v0l14,7.91L542.92,289l30.53,17.75,13.83,8.14Z" transform="translate(-25 -71.19)"/><path class="cls-22" d="M378.75,354.08l13.94,8,30.62,17.59,30.54,17.72,13.87,8.09-13.94-8-30.62-17.6-30.55-17.71Z" transform="translate(-25 -71.19)"/><polygon class="cls-8" points="20.59 293.98 111.75 346.76 225.41 281.07 134.25 228.28 20.59 293.98"/><polygon class="cls-8" points="44.18 302.68 135.33 355.46 249 289.77 157.84 236.99 44.18 302.68"/><path class="cls-15" d="M113.15,395.85c5.15,3,9.32,10.17,9.32,16.07s-4.17,8.28-9.32,5.31L79,397.49V376.1Z" transform="translate(-25 -71.19)"/><path class="cls-15" d="M234.72,347.2l-89-51.37a7.71,7.71,0,0,0-6.92.29L26.69,360.87c-2,1.18-2.27,3-.49,4l89,51.37Z" transform="translate(-25 -71.19)"/><polygon class="cls-7" points="91.13 341.63 3.92 291.28 3.92 273.27 91.13 323.62 91.13 341.63"/><polygon class="cls-8" points="91.13 341.63 3.92 291.28 3.92 290.66 91.13 341.01 91.13 341.63"/><polygon class="cls-8" points="91.13 340.39 3.92 290.04 3.92 289.42 91.13 339.77 91.13 340.39"/><polygon class="cls-8" points="91.13 339.15 3.92 288.8 3.92 288.18 91.13 338.52 91.13 339.15"/><polygon class="cls-8" points="91.13 337.9 3.92 287.56 3.92 286.93 91.13 337.29 91.13 337.9"/><polygon class="cls-8" points="91.13 336.66 3.92 286.31 3.92 285.69 91.13 336.04 91.13 336.66"/><polygon class="cls-8" points="91.13 335.42 3.92 285.07 3.92 284.45 91.13 334.8 91.13 335.42"/><polygon class="cls-8" points="91.13 334.18 3.92 283.83 3.92 283.21 91.13 333.56 91.13 334.18"/><polygon class="cls-8" points="91.13 332.94 3.92 282.59 3.92 281.96 91.13 332.31 91.13 332.94"/><polygon class="cls-8" points="91.13 331.69 3.92 281.35 3.92 280.72 91.13 331.07 91.13 331.69"/><polygon class="cls-8" points="91.13 330.45 3.92 280.1 3.92 279.48 91.13 329.83 91.13 330.45"/><polygon class="cls-8" points="91.13 329.21 3.92 278.86 3.92 278.24 91.13 328.59 91.13 329.21"/><polygon class="cls-8" points="91.13 327.97 3.92 277.62 3.92 277 91.13 327.35 91.13 327.97"/><polygon class="cls-8" points="91.13 326.73 3.92 276.37 3.92 275.75 91.13 326.11 91.13 326.73"/><polygon class="cls-8" points="91.13 325.48 3.92 275.13 3.92 274.51 91.13 324.86 91.13 325.48"/><polygon class="cls-8" points="91.13 324.24 3.92 273.89 3.92 273.27 91.13 323.62 91.13 324.24"/><polygon class="cls-8" points="91.13 341.63 178.34 291.28 178.34 273.27 91.13 323.62 91.13 341.63"/><polygon class="cls-16" points="91.13 341.63 178.34 291.28 178.34 290.66 91.13 341.01 91.13 341.63"/><polygon class="cls-16" points="91.13 340.39 178.34 290.04 178.34 289.42 91.13 339.77 91.13 340.39"/><polygon class="cls-16" points="91.13 339.15 178.34 288.8 178.34 288.18 91.13 338.52 91.13 339.15"/><polygon class="cls-16" points="91.13 337.9 178.34 287.56 178.34 286.93 91.13 337.29 91.13 337.9"/><polygon class="cls-16" points="91.13 336.66 178.34 286.31 178.34 285.69 91.13 336.04 91.13 336.66"/><polygon class="cls-16" points="91.13 335.42 178.34 285.07 178.34 284.45 91.13 334.8 91.13 335.42"/><polygon class="cls-16" points="91.13 334.18 178.34 283.83 178.34 283.21 91.13 333.56 91.13 334.18"/><polygon class="cls-16" points="91.13 332.94 178.34 282.59 178.34 281.96 91.13 332.31 91.13 332.94"/><polygon class="cls-16" points="91.13 331.69 178.34 281.35 178.34 280.72 91.13 331.07 91.13 331.69"/><polygon class="cls-16" points="91.13 330.45 178.34 280.1 178.34 279.48 91.13 329.83 91.13 330.45"/><polygon class="cls-16" points="91.13 329.21 178.34 278.86 178.34 278.24 91.13 328.59 91.13 329.21"/><polygon class="cls-16" points="91.13 327.97 178.34 277.62 178.34 277 91.13 327.35 91.13 327.97"/><polygon class="cls-8" points="91.13 326.73 178.34 276.37 178.34 275.75 91.13 326.11 91.13 326.73"/><polygon class="cls-8" points="91.13 325.48 178.34 275.13 178.34 274.51 91.13 324.86 91.13 325.48"/><polygon class="cls-8" points="91.13 324.24 178.34 273.89 178.34 273.27 91.13 323.62 91.13 324.24"/><path class="cls-23" d="M115.16,419.9l-89-51.36A2.06,2.06,0,0,1,25,366.8h0v-3.6a2.07,2.07,0,0,0,1.2,1.66l89,51.37Z" transform="translate(-25 -71.19)"/><path class="cls-23" d="M26.2,343.37l89,51.36,119.56-69c6.06,3.5,9.28,11,9.28,17.94,0,4-1.05,6.9-3.08,8l-119.56,69c-1.52.86-3.6.7-6.2-.8v-3.67c4.29,2.47,6.08-.48,6.08-5.41s-1.79-9.94-6.08-12.42h0L26.2,347A2,2,0,0,1,25,345.3h0v-3.6A2.09,2.09,0,0,0,26.2,343.37Z" transform="translate(-25 -71.19)"/><path class="cls-24" d="M234.72,325.7l-89-51.36a7.71,7.71,0,0,0-6.92.28L26.69,339.38c-2,1.18-2.27,3-.49,4l89,51.36Z" transform="translate(-25 -71.19)"/><path class="cls-23" d="M115.16,398.4,26.2,347A2,2,0,0,1,25,345.3h0v-3.6a2.09,2.09,0,0,0,1.2,1.67l89,51.36Z" transform="translate(-25 -71.19)"/><path class="cls-23" d="M115.16,398.4v-3.67c6,3.49,9.28,11,9.28,17.94s-3.23,10.73-9.28,7.23v-3.67c4.29,2.47,6.08-.48,6.08-5.41S119.45,400.88,115.16,398.4Z" transform="translate(-25 -71.19)"/><line class="cls-23" x1="1.2" y1="272.18" x2="90.16" y2="323.54"/><path class="cls-22" d="M138.84,274.62l-56,32.5L26.69,339.38l56-32.5Z" transform="translate(-25 -71.19)"/><path class="cls-22" d="M234.71,325.71l-89-51.36,0,0,14,7.91,30.64,17.56,30.52,17.75,13.84,8.14Z" transform="translate(-25 -71.19)"/><path class="cls-22" d="M26.2,364.86l13.93,8,30.62,17.6,30.55,17.71,13.86,8.1-13.94-8-30.61-17.6L40.06,373Z" transform="translate(-25 -71.19)"/><path class="cls-25" d="M134.44,351.6S124.65,281,80,288.44C80,288.44,57.52,343.14,134.44,351.6Z" transform="translate(-25 -71.19)"/><line class="cls-26" x1="55.94" y1="218.99" x2="99.51" y2="277.42"/><line class="cls-26" x1="72.22" y1="220.41" x2="68.01" y2="233.24"/><line class="cls-26" x1="95.67" y1="242.81" x2="88.77" y2="261.05"/><path class="cls-27" d="M129.55,353.44s-50.8,29.49-68.69-3.28C60.86,350.16,85,307.8,129.55,353.44Z" transform="translate(-25 -71.19)"/><line class="cls-28" x1="37.49" y1="278.72" x2="97.55" y2="277.32"/><line class="cls-28" x1="46.68" y1="288.57" x2="52.87" y2="279.32"/><line class="cls-28" x1="73.13" y1="292.41" x2="81.47" y2="278.67"/><path class="cls-5" d="M160.81,419.08l9.09,5.25v21.3l-9.09-5.25c-3.27-1.88-5.92-8.18-5.92-14.06S157.54,417.19,160.81,419.08Z" transform="translate(-25 -71.19)"/><path class="cls-5" d="M162.66,440.43l101.79,58.76c2.73,1.58,7.5,1.38,10.66-.44l121.74-70.28c3.15-1.82,3.49-4.58.76-6.16L295.82,363.55Z" transform="translate(-25 -71.19)"/><path class="cls-18" d="M163.33,417.29c-2.7-1.56-5-1.77-6.65-.85l132.8-76.66c1.53-1,3.63-1.08,6.27.21h.07l101.79,58.77c2.73,1.58,2.39,4.33-.76,6.15L275.11,475.2c-3.16,1.82-7.93,2-10.66.44Z" transform="translate(-25 -71.19)"/><path class="cls-7" d="M397.91,408.2a7.92,7.92,0,0,1-1.06.74L275.11,479.23c-3.16,1.82-7.93,2-10.66.44L164.8,422.13v17.06l99.65,57.54c2.73,1.57,7.5,1.38,10.66-.44L395.3,427.18c1.72-1,2.6-2.27,2.61-3.47V408.2Z" transform="translate(-25 -71.19)"/><path class="cls-8" d="M397.91,422.64c0,1.21-.89,2.48-2.61,3.47L275.11,495.22c-3.16,1.82-7.93,2-10.66.44L164.8,438.13v1.06l99.65,57.54c2.73,1.57,7.5,1.38,10.66-.44L395.3,427.18c1.72-1,2.6-2.27,2.61-3.47Z" transform="translate(-25 -71.19)"/><path class="cls-8" d="M397.91,420.52c0,1.21-.89,2.48-2.61,3.47l-120.19,69.1c-3.16,1.83-7.93,2-10.66.45L164.8,436v1.07l99.65,57.53c2.73,1.58,7.5,1.38,10.66-.44L395.3,425.05c1.72-1,2.6-2.26,2.61-3.46Z" transform="translate(-25 -71.19)"/><path class="cls-8" d="M397.91,418.39c0,1.21-.89,2.48-2.61,3.47L275.11,491c-3.16,1.82-7.93,2-10.66.44L164.8,433.88v1.06l99.65,57.54c2.73,1.58,7.5,1.38,10.66-.44L395.3,422.93c1.72-1,2.6-2.26,2.61-3.47Z" transform="translate(-25 -71.19)"/><path class="cls-8" d="M397.91,416.27c0,1.21-.89,2.48-2.61,3.47L275.11,488.85c-3.16,1.82-7.93,2-10.66.44L164.8,431.75v1.07l99.65,57.54c2.73,1.57,7.5,1.37,10.66-.45l120.19-69.1c1.72-1,2.6-2.27,2.61-3.47Z" transform="translate(-25 -71.19)"/><path class="cls-8" d="M397.91,414.15c0,1.2-.89,2.47-2.61,3.46L275.11,486.72c-3.16,1.82-7.93,2-10.66.45L164.8,429.63v1.07l99.65,57.53c2.73,1.58,7.5,1.38,10.66-.44L395.3,418.68c1.72-1,2.6-2.26,2.61-3.47Z" transform="translate(-25 -71.19)"/><path class="cls-8" d="M397.91,412c0,1.21-.89,2.48-2.61,3.47L275.11,484.6c-3.16,1.82-7.93,2-10.66.44L164.8,427.5v1.07l99.65,57.54c2.73,1.58,7.5,1.37,10.66-.45l120.19-69.1c1.72-1,2.6-2.27,2.61-3.47Z" transform="translate(-25 -71.19)"/><path class="cls-8" d="M397.91,409.9c0,1.2-.89,2.48-2.61,3.47l-120.19,69.1c-3.16,1.82-7.93,2-10.66.45L164.8,425.38v1.07L264.45,484c2.73,1.58,7.5,1.38,10.66-.44L395.3,414.43c1.72-1,2.6-2.26,2.61-3.47Z" transform="translate(-25 -71.19)"/><path class="cls-8" d="M397.91,407.77c0,1.21-.89,2.48-2.61,3.47L275.11,480.35c-3.16,1.82-7.93,2-10.66.44L164.8,423.26v1.06l99.65,57.54c2.73,1.58,7.5,1.38,10.66-.44L395.3,412.31c1.72-1,2.6-2.26,2.61-3.47Z" transform="translate(-25 -71.19)"/><path class="cls-9" d="M153.29,425.25c0-7.3,3.25-11.4,9.37-8.34l101.79,58.73c2.73,1.58,7.5,1.38,10.66-.44l121.74-70.29c1.77-1,2.65-2.34,2.6-3.58h0v4.14h0c0,1.2-.88,2.48-2.6,3.47L275.11,479.23c-3.16,1.82-7.93,2-10.66.44l-101-58.31c-4.7-2.72-6.67.52-6.67,5.91s2,10.9,6.67,13.62l101,58.3c2.73,1.58,7.5,1.38,10.66-.44l121.74-70.28c1.77-1,2.65-2.35,2.6-3.58h0V429h0c0,1.21-.88,2.48-2.6,3.47L275.11,502.78c-3.16,1.82-7.93,2-10.66.44L162.66,444.4C156.54,440.39,153.29,432.55,153.29,425.25Z" transform="translate(-25 -71.19)"/><path class="cls-10" d="M275.1,475.19l19-11.05,41.81-24.23,41.88-24.1,19.07-10.9-19,11-41.81,24.22-41.89,24.1Z" transform="translate(-25 -71.19)"/><path class="cls-10" d="M162.66,416.91l16,9.1,35,20.13,35,20.24,15.86,9.25-15.94-9.1-35-20.12-34.95-20.25Z" transform="translate(-25 -71.19)"/><path class="cls-10" d="M275.12,498.74l19-11.05,41.81-24.23,41.89-24.1,19.06-10.9-19,11.05-41.81,24.22-41.89,24.1Z" transform="translate(-25 -71.19)"/><path class="cls-10" d="M163.46,440.89l15.82,9,34.76,20L248.72,490l15.74,9.18-15.82-9-34.76-20-34.68-20.1Z" transform="translate(-25 -71.19)"/><path class="cls-10" d="M298.54,341.49l15.55,8.82,34.12,19.57,34,19.79,15.41,9.07v0l-99.07-57.26Z" transform="translate(-25 -71.19)"/><polygon class="cls-4" points="142.53 338.99 213.11 381.12 346.77 302.94 276.83 261.3 142.53 338.99"/><path class="cls-4" d="M254.1,303.64l35.19,20.13L158.72,399.15l-23,13.15c1.56-1.37,2.37-4.05,2.37-7.53,0-6.95-3.23-14.44-9.28-17.94l-9-5.5Z" transform="translate(-25 -71.19)"/><path class="cls-29" d="M231.15,413c6.43,3.71,11.64,12.7,11.64,20.08s-5.21,10.35-11.64,6.64L188.43,415V388.32Z" transform="translate(-25 -71.19)"/><path class="cls-29" d="M383,352.21,271.88,288.05c-2.22-1.28-6.08-1.12-8.64.36l-140.1,80.88c-2.55,1.48-2.83,3.71-.61,5l111.12,64.16Z" transform="translate(-25 -71.19)"/><polygon class="cls-7" points="209.87 363 100.93 300.1 100.93 277.6 209.87 340.5 209.87 363"/><polygon class="cls-8" points="209.87 363 100.93 300.1 100.93 299.32 209.87 362.22 209.87 363"/><polygon class="cls-8" points="209.87 361.45 100.93 298.55 100.93 297.77 209.87 360.67 209.87 361.45"/><polygon class="cls-8" points="209.87 359.89 100.93 297 100.93 296.22 209.87 359.12 209.87 359.89"/><polygon class="cls-8" points="209.87 358.34 100.93 295.45 100.93 294.67 209.87 357.56 209.87 358.34"/><polygon class="cls-8" points="209.87 356.79 100.93 293.89 100.93 293.12 209.87 356.01 209.87 356.79"/><polygon class="cls-8" points="209.87 355.24 100.93 292.34 100.93 291.57 209.87 354.46 209.87 355.24"/><polygon class="cls-8" points="209.87 353.69 100.93 290.79 100.93 290.02 209.87 352.91 209.87 353.69"/><polygon class="cls-8" points="209.87 352.13 100.93 289.24 100.93 288.46 209.87 351.36 209.87 352.13"/><polygon class="cls-8" points="209.87 350.58 100.93 287.69 100.93 286.91 209.87 349.81 209.87 350.58"/><polygon class="cls-8" points="209.87 349.03 100.93 286.13 100.93 285.36 209.87 348.26 209.87 349.03"/><polygon class="cls-8" points="209.87 347.48 100.93 284.58 100.93 283.81 209.87 346.7 209.87 347.48"/><polygon class="cls-8" points="209.87 345.93 100.93 283.03 100.93 282.26 209.87 345.15 209.87 345.93"/><polygon class="cls-8" points="209.87 344.38 100.93 281.48 100.93 280.7 209.87 343.6 209.87 344.38"/><polygon class="cls-8" points="209.87 342.82 100.93 279.93 100.93 279.15 209.87 342.05 209.87 342.82"/><polygon class="cls-8" points="209.87 341.27 100.93 278.38 100.93 277.6 209.87 340.5 209.87 341.27"/><polygon class="cls-8" points="209.87 363 318.81 300.1 318.81 277.6 209.87 340.5 209.87 363"/><polygon class="cls-16" points="209.87 363 318.81 300.1 318.81 299.32 209.87 362.22 209.87 363"/><polygon class="cls-16" points="209.87 361.45 318.81 298.55 318.81 297.77 209.87 360.67 209.87 361.45"/><polygon class="cls-16" points="209.87 359.89 318.81 297 318.81 296.22 209.87 359.12 209.87 359.89"/><polygon class="cls-16" points="209.87 358.34 318.81 295.45 318.81 294.67 209.87 357.56 209.87 358.34"/><polygon class="cls-16" points="209.87 356.79 318.81 293.89 318.81 293.12 209.87 356.01 209.87 356.79"/><polygon class="cls-16" points="209.87 355.24 318.81 292.34 318.81 291.57 209.87 354.46 209.87 355.24"/><polygon class="cls-16" points="209.87 353.69 318.81 290.79 318.81 290.02 209.87 352.91 209.87 353.69"/><polygon class="cls-16" points="209.87 352.13 318.81 289.24 318.81 288.46 209.87 351.36 209.87 352.13"/><polygon class="cls-16" points="209.87 350.58 318.81 287.69 318.81 286.91 209.87 349.81 209.87 350.58"/><polygon class="cls-16" points="209.87 349.03 318.81 286.13 318.81 285.36 209.87 348.26 209.87 349.03"/><polygon class="cls-16" points="209.87 347.48 318.81 284.58 318.81 283.81 209.87 346.7 209.87 347.48"/><polygon class="cls-16" points="209.87 345.93 318.81 283.03 318.81 282.26 209.87 345.15 209.87 345.93"/><polygon class="cls-8" points="209.87 344.38 318.81 281.48 318.81 280.7 209.87 343.6 209.87 344.38"/><polygon class="cls-8" points="209.87 342.82 318.81 279.93 318.81 279.15 209.87 342.05 209.87 342.82"/><polygon class="cls-8" points="209.87 341.27 318.81 278.38 318.81 277.6 209.87 340.5 209.87 341.27"/><path class="cls-30" d="M233.65,443,122.53,378.87A2.54,2.54,0,0,1,121,376.7h0v-4.5a2.62,2.62,0,0,0,1.5,2.08l111.12,64.16Z" transform="translate(-25 -71.19)"/><path class="cls-31" d="M122.53,347.43l111.12,64.16L383,325.36c7.56,4.37,11.59,13.73,11.59,22.41,0,5-1.31,8.61-3.84,10L241.4,444c-1.9,1.07-4.5.87-7.75-1v-4.59c5.36,3.09,7.6-.6,7.6-6.75s-2.24-12.42-7.6-15.51h0L122.53,352a2.54,2.54,0,0,1-1.49-2.17h0v-4.5A2.62,2.62,0,0,0,122.53,347.43Z" transform="translate(-25 -71.19)"/><path class="cls-32" d="M383,325.36,271.88,261.2c-2.22-1.28-6.08-1.12-8.64.36l-140.1,80.88c-2.55,1.48-2.83,3.71-.61,5l111.12,64.16Z" transform="translate(-25 -71.19)"/><polygon class="cls-20" points="219.04 229.7 285.25 267.93 307.99 254.81 241.77 216.58 219.04 229.7"/><path class="cls-21" d="M184.62,366.14c-3.47,2-3.45,5.25,0,7.26a13.91,13.91,0,0,0,12.58,0c3.46-2,3.45-5.25,0-7.27A13.89,13.89,0,0,0,184.62,366.14Z" transform="translate(-25 -71.19)"/><path class="cls-30" d="M233.65,416.18,122.53,352a2.54,2.54,0,0,1-1.49-2.17h0v-4.5a2.62,2.62,0,0,0,1.5,2.08l111.12,64.16Z" transform="translate(-25 -71.19)"/><path class="cls-30" d="M233.65,416.18v-4.59c7.57,4.37,11.6,13.73,11.6,22.41s-4,13.4-11.6,9v-4.59c5.36,3.09,7.6-.6,7.6-6.75S239,419.27,233.65,416.18Z" transform="translate(-25 -71.19)"/><path class="cls-21" d="M122.53,347.43l17.41,9.94,38.24,22,38.16,22.13,17.31,10.11-17.41-9.94-38.24-22-38.16-22.12Z" transform="translate(-25 -71.19)"/><path class="cls-21" d="M263.24,261.56s-8.74,5.08-21.84,12.72l-48.12,27.87-48.2,27.74-21.94,12.55L145,329.72l48.11-27.88,48.2-27.73Z" transform="translate(-25 -71.19)"/><path class="cls-21" d="M383,325.37,271.87,261.21l0,0,17.44,9.89L327.6,293l38.13,22.18L383,325.34Z" transform="translate(-25 -71.19)"/><path class="cls-21" d="M122.53,374.28l17.41,9.94,38.24,22,38.16,22.13,17.31,10.11-17.41-9.94-38.24-22-38.16-22.12Z" transform="translate(-25 -71.19)"/><path class="cls-29" d="M659.32,670c6.43,3.71,11.64,12.7,11.64,20.08s-5.21,10.35-11.64,6.63l-42.71-24.66V645.34Z" transform="translate(-25 -71.19)"/><path class="cls-29" d="M811.18,609.22,700.05,545.06c-2.21-1.28-6.08-1.12-8.63.36l-140.1,80.89c-2.56,1.47-2.84,3.7-.62,5l111.13,64.16Z" transform="translate(-25 -71.19)"/><polygon class="cls-7" points="638.04 620.01 529.11 557.12 529.11 534.62 638.04 597.51 638.04 620.01"/><polygon class="cls-8" points="638.04 620.01 529.11 557.12 529.11 556.34 638.04 619.24 638.04 620.01"/><polygon class="cls-8" points="638.04 618.46 529.11 555.56 529.11 554.79 638.04 617.68 638.04 618.46"/><polygon class="cls-8" points="638.04 616.91 529.11 554.01 529.11 553.24 638.04 616.13 638.04 616.91"/><polygon class="cls-8" points="638.04 615.36 529.11 552.46 529.11 551.68 638.04 614.58 638.04 615.36"/><polygon class="cls-8" points="638.04 613.8 529.11 550.91 529.11 550.13 638.04 613.03 638.04 613.8"/><polygon class="cls-8" points="638.04 612.25 529.11 549.36 529.11 548.58 638.04 611.48 638.04 612.25"/><polygon class="cls-8" points="638.04 610.7 529.11 547.8 529.11 547.03 638.04 609.92 638.04 610.7"/><polygon class="cls-8" points="638.04 609.15 529.11 546.25 529.11 545.48 638.04 608.38 638.04 609.15"/><polygon class="cls-8" points="638.04 607.6 529.11 544.7 529.11 543.93 638.04 606.82 638.04 607.6"/><polygon class="cls-8" points="638.04 606.05 529.11 543.15 529.11 542.37 638.04 605.27 638.04 606.05"/><polygon class="cls-8" points="638.04 604.49 529.11 541.6 529.11 540.82 638.04 603.72 638.04 604.49"/><polygon class="cls-8" points="638.04 602.94 529.11 540.04 529.11 539.27 638.04 602.17 638.04 602.94"/><polygon class="cls-8" points="638.04 601.39 529.11 538.5 529.11 537.72 638.04 600.61 638.04 601.39"/><polygon class="cls-8" points="638.04 599.84 529.11 536.94 529.11 536.16 638.04 599.06 638.04 599.84"/><polygon class="cls-8" points="638.04 598.29 529.11 535.39 529.11 534.62 638.04 597.51 638.04 598.29"/><polygon class="cls-8" points="638.04 620.01 746.98 557.12 746.98 534.62 638.04 597.51 638.04 620.01"/><polygon class="cls-16" points="638.04 620.01 746.98 557.12 746.98 556.34 638.04 619.24 638.04 620.01"/><polygon class="cls-16" points="638.04 618.46 746.98 555.56 746.98 554.79 638.04 617.68 638.04 618.46"/><polygon class="cls-16" points="638.04 616.91 746.98 554.01 746.98 553.24 638.04 616.13 638.04 616.91"/><polygon class="cls-16" points="638.04 615.36 746.98 552.46 746.98 551.68 638.04 614.58 638.04 615.36"/><polygon class="cls-16" points="638.04 613.8 746.98 550.91 746.98 550.13 638.04 613.03 638.04 613.8"/><polygon class="cls-16" points="638.04 612.25 746.98 549.36 746.98 548.58 638.04 611.48 638.04 612.25"/><polygon class="cls-16" points="638.04 610.7 746.98 547.8 746.98 547.03 638.04 609.92 638.04 610.7"/><polygon class="cls-16" points="638.04 609.15 746.98 546.25 746.98 545.48 638.04 608.38 638.04 609.15"/><polygon class="cls-16" points="638.04 607.6 746.98 544.7 746.98 543.93 638.04 606.82 638.04 607.6"/><polygon class="cls-16" points="638.04 606.05 746.98 543.15 746.98 542.37 638.04 605.27 638.04 606.05"/><polygon class="cls-16" points="638.04 604.49 746.98 541.6 746.98 540.82 638.04 603.72 638.04 604.49"/><polygon class="cls-16" points="638.04 602.94 746.98 540.04 746.98 539.27 638.04 602.17 638.04 602.94"/><polygon class="cls-8" points="638.04 601.39 746.98 538.5 746.98 537.72 638.04 600.61 638.04 601.39"/><polygon class="cls-8" points="638.04 599.84 746.98 536.94 746.98 536.16 638.04 599.06 638.04 599.84"/><polygon class="cls-8" points="638.04 598.29 746.98 535.39 746.98 534.62 638.04 597.51 638.04 598.29"/><path class="cls-30" d="M661.83,700,550.7,635.88a2.56,2.56,0,0,1-1.49-2.17h0v-4.5a2.59,2.59,0,0,0,1.49,2.08l111.13,64.16Z" transform="translate(-25 -71.19)"/><path class="cls-2" d="M550.7,604.44,661.83,668.6l149.35-86.23c7.57,4.37,11.59,13.74,11.59,22.42,0,5-1.31,8.61-3.84,10L669.58,701.05c-1.91,1.06-4.5.87-7.75-1v-4.59c5.36,3.1,7.59-.6,7.59-6.74s-2.23-12.43-7.59-15.52h0L550.7,609a2.56,2.56,0,0,1-1.49-2.17h0v-4.5A2.59,2.59,0,0,0,550.7,604.44Z" transform="translate(-25 -71.19)"/><path class="cls-3" d="M811.18,582.37,700.05,518.21c-2.21-1.28-6.08-1.12-8.63.36l-140.1,80.88c-2.56,1.48-2.84,3.71-.62,5L661.83,668.6Z" transform="translate(-25 -71.19)"/><path class="cls-30" d="M661.83,673.19,550.7,609a2.56,2.56,0,0,1-1.49-2.17h0v-4.5a2.59,2.59,0,0,0,1.49,2.08L661.83,668.6Z" transform="translate(-25 -71.19)"/><path class="cls-30" d="M661.83,673.19V668.6c7.57,4.37,11.59,13.73,11.59,22.41s-4,13.4-11.59,9v-4.59c5.36,3.1,7.59-.6,7.59-6.74S667.19,676.28,661.83,673.19Z" transform="translate(-25 -71.19)"/><path class="cls-21" d="M550.7,604.44l17.41,9.94,38.24,22,38.16,22.12,17.32,10.11-17.41-9.94-38.24-22L568,614.55Z" transform="translate(-25 -71.19)"/><path class="cls-21" d="M691.42,518.57l-21.85,12.72-48.11,27.88-48.2,27.73-21.94,12.55s8.74-5.08,21.84-12.72l48.12-27.87,48.2-27.74Z" transform="translate(-25 -71.19)"/><path class="cls-21" d="M811.17,582.39,700,518.23l0,0,17.45,9.89L755.78,550l38.13,22.18,17.28,10.17Z" transform="translate(-25 -71.19)"/><line class="cls-33" x1="525.7" y1="560.11" x2="636.83" y2="624.26"/><path class="cls-11" d="M386,512.27l10.37,6v24.28l-10.37-6c-3.73-2.16-6.75-9.34-6.75-16S382.29,510.12,386,512.27Z" transform="translate(-25 -71.19)"/><path class="cls-11" d="M388.13,536.6l116.05,67c3.11,1.8,8.55,1.58,12.15-.5L655.11,523c3.6-2.08,4-5.22.88-7l-116-67Z" transform="translate(-25 -71.19)"/><path class="cls-25" d="M388.89,510.23c-3.07-1.78-5.67-2-7.58-1l151.41-87.4c1.74-1.19,4.13-1.23,7.14.24h.08l116,67c3.11,1.8,2.72,4.94-.88,7L516.33,576.25c-3.6,2.07-9,2.3-12.15.5Z" transform="translate(-25 -71.19)"/><path class="cls-7" d="M656.33,499.87a9.27,9.27,0,0,1-1.22.84L516.33,580.84c-3.6,2.07-9,2.3-12.15.5L390.57,515.75V535.2l113.61,65.59c3.11,1.8,8.55,1.57,12.15-.51l137-78.78c2-1.13,3-2.58,3-4V499.87Z" transform="translate(-25 -71.19)"/><path class="cls-8" d="M656.32,516.33c0,1.37-1,2.82-3,3.95l-137,78.79c-3.6,2.07-9,2.3-12.15.5L390.57,534v1.22l113.61,65.59c3.11,1.8,8.55,1.57,12.15-.51l137-78.78c2-1.13,3-2.58,3-4Z" transform="translate(-25 -71.19)"/><path class="cls-8" d="M656.32,513.91c0,1.37-1,2.82-3,4l-137,78.79c-3.6,2.08-9,2.3-12.15.5L390.57,531.56v1.22l113.61,65.59c3.11,1.79,8.55,1.57,12.15-.5l137-78.79c2-1.13,3-2.58,3-4Z" transform="translate(-25 -71.19)"/><path class="cls-8" d="M656.32,511.49c0,1.37-1,2.82-3,4l-137,78.79c-3.6,2.07-9,2.3-12.15.5L390.57,529.14v1.22L504.18,596c3.11,1.79,8.55,1.57,12.15-.51l137-78.78c2-1.13,3-2.58,3-4Z" transform="translate(-25 -71.19)"/><path class="cls-8" d="M656.32,509.06c0,1.38-1,2.83-3,4l-137,78.79c-3.6,2.07-9,2.3-12.15.5L390.57,526.72v1.21l113.61,65.59c3.11,1.8,8.55,1.58,12.15-.5l137-78.78c2-1.14,3-2.58,3-4Z" transform="translate(-25 -71.19)"/><path class="cls-8" d="M656.32,506.64c0,1.38-1,2.83-3,4l-137,78.79c-3.6,2.07-9,2.3-12.15.5l-113.61-65.6v1.22L504.18,591.1c3.11,1.8,8.55,1.58,12.15-.5l137-78.78c2-1.14,3-2.59,3-4Z" transform="translate(-25 -71.19)"/><path class="cls-8" d="M656.32,504.22c0,1.38-1,2.82-3,4L516.33,587c-3.6,2.08-9,2.3-12.15.51l-113.61-65.6v1.22l113.61,65.59c3.11,1.8,8.55,1.57,12.15-.5l137-78.79c2-1.13,3-2.58,3-3.95Z" transform="translate(-25 -71.19)"/><path class="cls-8" d="M656.32,501.8c0,1.38-1,2.82-3,3.95l-137,78.79c-3.6,2.08-9,2.3-12.15.5L390.57,519.45v1.22l113.61,65.59c3.11,1.8,8.55,1.57,12.15-.5l137-78.79c2-1.13,3-2.58,3-4Z" transform="translate(-25 -71.19)"/><path class="cls-8" d="M656.32,499.38c0,1.37-1,2.82-3,3.95l-137,78.79c-3.6,2.07-9,2.3-12.15.5L390.57,517v1.21l113.61,65.6c3.11,1.8,8.55,1.57,12.15-.51l137-78.78c2-1.13,3-2.58,3-4Z" transform="translate(-25 -71.19)"/><path class="cls-13" d="M377.45,519.3c0-8.33,3.7-13,10.68-9.51l116.05,67c3.11,1.8,8.55,1.57,12.15-.5l138.78-80.13c2-1.17,3-2.67,3-4.09h0v4.72h0c0,1.38-1,2.82-3,4L516.33,580.84c-3.6,2.07-9,2.3-12.15.5L389,514.86c-5.36-3.09-7.59.6-7.59,6.75S383.68,534,389,537.13L504.18,603.6c3.11,1.8,8.55,1.58,12.15-.5L655.11,523c2-1.17,3-2.67,3-4.08h0v4.71h0c0,1.38-1,2.83-3,4L516.33,607.69c-3.6,2.07-9,2.3-12.15.5l-116-67.05C381.16,536.56,377.45,527.63,377.45,519.3Z" transform="translate(-25 -71.19)"/><path class="cls-14" d="M516.32,576.24,538,563.63,585.62,536l47.75-27.47,21.74-12.44-21.64,12.6L585.8,536.33,538.05,563.8Z" transform="translate(-25 -71.19)"/><path class="cls-14" d="M388.13,509.79l18.18,10.38,39.93,22.94,39.85,23.08,18.08,10.55L486,566.36l-39.93-22.94-39.84-23.09Z" transform="translate(-25 -71.19)"/><path class="cls-14" d="M516.34,603.09,538,590.48l47.67-27.61,47.75-27.48L655.13,523l-21.64,12.6-47.66,27.62-47.75,27.47Z" transform="translate(-25 -71.19)"/><path class="cls-14" d="M389,537.13l18,10.3,39.63,22.77,39.54,22.92,17.95,10.47-18.05-10.3-39.62-22.78L407,547.6Z" transform="translate(-25 -71.19)"/><path class="cls-14" d="M539.94,422.08l18.22,10.33,40,22.91,39.82,23.15,18,10.61,0,0-116-67Z" transform="translate(-25 -71.19)"/><path class="cls-34" d="M385.9,318.49s15.75-71.41-29.89-80.22C356,238.27,314.89,282.9,385.9,318.49Z" transform="translate(-25 -71.19)"/><line class="cls-35" x1="331.33" y1="169.1" x2="352.4" y2="240.88"/><line class="cls-35" x1="346.48" y1="176.27" x2="337.86" y2="187.12"/><line class="cls-35" x1="361.06" y1="206.19" x2="347.91" y2="221.29"/><path class="cls-27" d="M392.12,334.05s70.52-6.7,17.6-72.48C409.72,261.57,352.17,285.72,392.12,334.05Z" transform="translate(-25 -71.19)"/><line class="cls-36" x1="384.49" y1="193.31" x2="368.33" y2="261.62"/><line class="cls-36" x1="399.84" y1="240.29" x2="371.71" y2="255.02"/><line class="cls-36" x1="361.78" y1="209.68" x2="373.69" y2="227.97"/><path class="cls-25" d="M394.59,351.1s-4.08-79.89-85.35-59C309.24,292.07,315.8,359,394.59,351.1Z" transform="translate(-25 -71.19)"/><line class="cls-37" x1="287.05" y1="222.25" x2="365.15" y2="277.63"/><line class="cls-37" x1="334.07" y1="223.63" x2="334.84" y2="254.4"/><line class="cls-37" x1="300.5" y1="254.74" x2="321.05" y2="248.04"/><polygon class="cls-4" points="384.1 422.04 479.53 476.76 605.37 403.11 510.58 348.87 384.1 422.04"/><polygon class="cls-4" points="276.74 359.86 302.25 374.09 371.85 333.73 346.23 319.67 276.74 359.86"/><polygon class="cls-4" points="302.25 374.09 302.25 401.35 371.85 361.31 371.85 333.72 302.25 374.09"/><path class="cls-15" d="M306.42,421.89v-.12h0A.5.5,0,0,0,306.42,421.89Z" transform="translate(-25 -71.19)"/><path class="cls-15" d="M307.69,424.09l96.57,55.76h0l96.95,56a6.9,6.9,0,0,0,6.92,0l146-84.3a2.62,2.62,0,0,0,1.32-2.25h0v3.55h0a2.62,2.62,0,0,1-1.32,2.27l-146,84.3a6.9,6.9,0,0,1-6.92,0l-89-51.37h0a28.59,28.59,0,0,1-9.63-3.14,17.36,17.36,0,0,1-6.27-6h0l-88.64-51.18a2.5,2.5,0,0,1-1.27-2.18h0v0h0v-3.57A2.51,2.51,0,0,0,307.69,424.09Z" transform="translate(-25 -71.19)"/><path class="cls-38" d="M307.7,419.7l8.5-4.83v7L504.66,530.69h0L646,449.08v-6.3l8,4.09a2.65,2.65,0,0,1,.12,4.65l-146,84.3a6.9,6.9,0,0,1-6.92,0l-96.95-56h0l-96.57-55.76A2.53,2.53,0,0,1,307.7,419.7Z" transform="translate(-25 -71.19)"/><path class="cls-22" d="M654.14,451.52l-22.77,13.25-50.15,29.05L531,522.73l-22.87,13.09,22.77-13.25L581,493.52l50.24-28.91Z" transform="translate(-25 -71.19)"/><path class="cls-22" d="M501.2,535.82l-13.95-7.94-30.63-17.59-30.54-17.73-13.86-8.11,13.95,7.95L456.8,510l30.54,17.73Z" transform="translate(-25 -71.19)"/><path class="cls-22" d="M396.32,475.27l-13.9-7.91-30.51-17.52-30.42-17.67-13.8-8.08L321.58,432l30.51,17.53,30.43,17.66Z" transform="translate(-25 -71.19)"/><path class="cls-15" d="M418.35,480.86l-6.13,3.59a28.33,28.33,0,0,1-9.63-3.14,17.36,17.36,0,0,1-6.27-6l6.13-3.59Z" transform="translate(-25 -71.19)"/><polygon class="cls-15" points="479.66 459.51 621.01 377.9 621.01 378.9 479.66 460.51 479.66 460.51 291.2 351.32 291.2 350.7 479.66 459.51"/><polygon class="cls-7" points="621.01 348.69 511.07 314.43 385.43 386.97 479.66 430.3 621.01 348.69"/><polygon class="cls-39" points="479.66 459.51 385.43 405.1 385.43 386.97 479.66 430.3 479.66 459.51"/><polygon class="cls-7" points="479.66 459.5 621.01 377.89 621.01 348.69 479.66 430.3 479.66 459.5"/><polygon class="cls-8" points="479.66 459.5 621.01 377.89 621.01 376.88 479.66 458.49 479.66 459.5"/><polygon class="cls-8" points="479.66 457.48 621.01 375.88 621.01 374.87 479.66 456.48 479.66 457.48"/><polygon class="cls-8" points="479.66 455.47 621.01 373.86 621.01 372.86 479.66 454.46 479.66 455.47"/><polygon class="cls-8" points="479.66 453.46 621.01 371.85 621.01 370.84 479.66 452.45 479.66 453.46"/><polygon class="cls-8" points="479.66 451.44 621.01 369.83 621.01 368.83 479.66 450.44 479.66 451.44"/><polygon class="cls-8" points="479.66 449.43 621.01 367.82 621.01 366.81 479.66 448.42 479.66 449.43"/><polygon class="cls-8" points="479.66 447.42 621.01 365.81 621.01 364.8 479.66 446.41 479.66 447.42"/><polygon class="cls-8" points="479.66 445.4 621.01 363.8 621.01 362.79 479.66 444.39 479.66 445.4"/><polygon class="cls-8" points="479.66 443.39 621.01 361.78 621.01 360.78 479.66 442.38 479.66 443.39"/><polygon class="cls-8" points="479.66 441.38 621.01 359.77 621.01 358.76 479.66 440.37 479.66 441.38"/><polygon class="cls-8" points="479.66 439.36 621.01 357.75 621.01 356.75 479.66 438.36 479.66 439.36"/><polygon class="cls-8" points="479.66 437.35 621.01 355.74 621.01 354.73 479.66 436.34 479.66 437.35"/><polygon class="cls-8" points="479.66 435.33 621.01 353.73 621.01 352.72 479.66 434.33 479.66 435.33"/><polygon class="cls-8" points="479.66 433.32 621.01 351.71 621.01 350.71 479.66 432.32 479.66 433.32"/><polygon class="cls-8" points="479.66 431.31 621.01 349.7 621.01 348.69 479.66 430.3 479.66 431.31"/><polygon class="cls-7" points="479.66 459.5 385.43 405.1 385.43 404.48 479.66 458.49 479.66 459.5"/><polygon class="cls-7" points="479.66 457.48 385.43 403.85 385.43 403.23 479.66 456.48 479.66 457.48"/><polygon class="cls-7" points="479.66 455.47 385.43 402.6 385.43 401.98 479.66 454.46 479.66 455.47"/><polygon class="cls-7" points="479.66 453.46 385.43 401.35 385.43 400.73 479.66 452.45 479.66 453.46"/><polygon class="cls-7" points="479.66 451.44 385.43 400.1 385.43 399.48 479.66 450.44 479.66 451.44"/><polygon class="cls-7" points="479.66 449.43 385.43 398.85 385.43 398.23 479.66 448.42 479.66 449.43"/><polygon class="cls-7" points="479.66 447.42 385.43 397.6 385.43 396.98 479.66 446.41 479.66 447.42"/><polygon class="cls-7" points="479.66 445.4 385.43 396.36 385.43 395.73 479.66 444.39 479.66 445.4"/><polygon class="cls-7" points="479.66 443.39 385.43 395.11 385.43 394.48 479.66 442.38 479.66 443.39"/><polygon class="cls-7" points="479.66 441.38 385.43 393.86 385.43 393.23 479.66 440.37 479.66 441.38"/><polygon class="cls-7" points="479.66 439.36 385.43 392.61 385.43 391.98 479.66 438.36 479.66 439.36"/><polygon class="cls-7" points="479.66 437.35 385.43 391.35 385.43 390.73 479.66 436.34 479.66 437.35"/><polygon class="cls-7" points="479.66 435.33 385.43 390.11 385.43 389.48 479.66 434.33 479.66 435.33"/><polygon class="cls-7" points="479.66 433.32 385.43 388.86 385.43 388.23 479.66 432.32 479.66 433.32"/><polygon class="cls-7" points="479.66 431.31 385.43 387.61 385.43 386.98 479.66 430.3 479.66 431.31"/><polygon class="cls-39" points="385.43 386.97 385.43 405.1 291.2 350.7 291.2 321.44 385.43 386.97"/><polygon class="cls-7" points="385.43 386.98 291.2 321.44 416.84 249.08 511.07 314.43 385.43 386.98"/><polygon class="cls-7" points="291.2 350.7 385.43 405.1 385.43 404.48 291.2 349.69 291.2 350.7"/><polygon class="cls-7" points="291.2 348.62 385.43 403.85 385.43 403.23 291.2 347.62 291.2 348.62"/><polygon class="cls-7" points="291.2 346.61 385.43 402.6 385.43 401.98 291.2 345.6 291.2 346.61"/><polygon class="cls-7" points="291.2 344.6 385.43 401.35 385.43 400.73 291.2 343.59 291.2 344.6"/><polygon class="cls-7" points="291.2 342.58 385.43 400.1 385.43 399.48 291.2 341.57 291.2 342.58"/><polygon class="cls-7" points="291.2 340.57 385.43 398.85 385.43 398.23 291.2 339.56 291.2 340.57"/><polygon class="cls-7" points="291.2 338.56 385.43 397.6 385.43 396.98 291.2 337.55 291.2 338.56"/><polygon class="cls-7" points="291.2 336.54 385.43 396.36 385.43 395.73 291.2 335.54 291.2 336.54"/><polygon class="cls-7" points="291.2 334.53 385.43 395.11 385.43 394.48 291.2 333.52 291.2 334.53"/><polygon class="cls-7" points="291.2 332.52 385.43 393.86 385.43 393.23 291.2 331.51 291.2 332.52"/><polygon class="cls-7" points="291.2 330.5 385.43 392.61 385.43 391.98 291.2 329.49 291.2 330.5"/><polygon class="cls-7" points="291.2 328.49 385.43 391.35 385.43 390.73 291.2 327.48 291.2 328.49"/><polygon class="cls-7" points="291.2 326.48 385.43 390.11 385.43 389.48 291.2 325.47 291.2 326.48"/><polygon class="cls-7" points="291.2 324.46 385.43 388.86 385.43 388.23 291.2 323.45 291.2 324.46"/><polygon class="cls-7" points="291.2 322.45 385.43 387.61 385.43 386.98 291.2 321.44 291.2 322.45"/><polygon class="cls-20" points="385.43 386.97 479.66 423.24 621.01 341.63 511.07 314.43 385.43 386.97"/><polygon class="cls-7" points="479.66 424.24 621.01 342.64 621.01 341.63 479.66 423.24 479.66 424.24"/><polygon class="cls-39" points="479.66 424.24 385.43 386.97 479.66 423.24 479.66 424.24"/><polygon class="cls-40" points="511.07 314.43 416.95 241.89 291.2 314.36 385.43 386.97 511.07 314.43"/><polygon class="cls-39" points="291.2 315.37 385.43 386.97 291.2 314.36 291.2 315.37"/><polygon class="cls-7" points="320.1 315.86 387.38 367.7 385.42 368.83 318.15 316.98 320.1 315.86"/><polygon class="cls-7" points="323.57 313.86 390.84 365.7 388.89 366.83 321.61 314.98 323.57 313.86"/><polygon class="cls-7" points="327.03 311.85 394.31 363.7 392.35 364.83 325.08 312.98 327.03 311.85"/><polygon class="cls-7" points="330.5 309.85 397.77 361.7 395.82 362.83 328.54 310.98 330.5 309.85"/><polygon class="cls-7" points="333.96 307.85 401.24 359.7 399.28 360.83 332.01 308.98 333.96 307.85"/><polygon class="cls-7" points="337.43 305.85 404.71 357.7 402.75 358.83 335.47 306.98 337.43 305.85"/><polygon class="cls-7" points="340.9 303.85 408.17 355.7 406.21 356.83 338.94 304.98 340.9 303.85"/><polygon class="cls-7" points="344.36 301.85 411.63 353.7 409.68 354.83 342.41 302.98 344.36 301.85"/><polygon class="cls-7" points="347.83 299.85 415.1 351.69 413.14 352.82 345.87 300.98 347.83 299.85"/><polygon class="cls-7" points="351.29 297.85 418.57 349.69 416.61 350.82 349.34 298.98 351.29 297.85"/><polygon class="cls-7" points="361.69 291.85 428.96 343.69 427.01 344.82 359.73 292.98 361.69 291.85"/><polygon class="cls-7" points="365.15 289.85 432.43 341.69 430.47 342.82 363.2 290.97 365.15 289.85"/><polygon class="cls-7" points="368.62 287.84 435.9 339.69 433.94 340.82 366.66 288.97 368.62 287.84"/><path class="cls-7" d="M464.25,368.46l.41-.23,3.88,3-.42.22-1.64-1.26-7.4,4.07,12.87-.4,4.36,3.38-.41.23-1.67-1.3-11.14,6.14,1.67,1.29-.45.25-3.89-3,.45-.25,1.67,1.29,10.8-5.94-18.72.73-.5-.4,11.82-6.51Z" transform="translate(-25 -71.19)"/><path class="cls-7" d="M458.17,364.85a5,5,0,0,1,2.75-.56,4.28,4.28,0,0,1,2.48.77,1.79,1.79,0,0,1,.77,1.75,2.35,2.35,0,0,1-1.33,1.65,5.06,5.06,0,0,1-2.74.57,4.29,4.29,0,0,1-2.49-.78,1.79,1.79,0,0,1-.77-1.74A2.37,2.37,0,0,1,458.17,364.85Zm.63,1.42a3.22,3.22,0,0,0-1.25,1c-.2.29-.11.58.28.88a1.64,1.64,0,0,0,1.3.34,5.39,5.39,0,0,0,1.68-.65l1.4-.77a3.46,3.46,0,0,0,1.26-1c.19-.29.1-.59-.29-.89a1.64,1.64,0,0,0-1.3-.34,5.62,5.62,0,0,0-1.68.65Z" transform="translate(-25 -71.19)"/><path class="cls-7" d="M439.86,364.94l.42-.22,2,1.53,11.14-6.14,1.51,1.37c.48.41,1.22,1,2.23,1.79l-.45.25-1.46-1.14a1.41,1.41,0,0,0-.7-.34,1.73,1.73,0,0,0-.76.27l-9.71,5.33,2,1.57-.42.23Z" transform="translate(-25 -71.19)"/><path class="cls-7" d="M436.41,354.81a11.83,11.83,0,0,1,5.3-1.43,6.62,6.62,0,0,1,4.34,1,2.43,2.43,0,0,1,.81,3,6.25,6.25,0,0,1-3.06,3.15,11.94,11.94,0,0,1-5.26,1.43,6.51,6.51,0,0,1-4.36-1,2.43,2.43,0,0,1-.81-3A6.19,6.19,0,0,1,436.41,354.81Zm-.11,2.81a5.27,5.27,0,0,0-2,1.66,1,1,0,0,0,.3,1.41,2.7,2.7,0,0,0,2.13.46,8.94,8.94,0,0,0,2.82-1l4.4-2.43a5.53,5.53,0,0,0,2-1.64,1,1,0,0,0-.31-1.43,2.75,2.75,0,0,0-2.13-.45,8.7,8.7,0,0,0-2.82,1Z" transform="translate(-25 -71.19)"/><path class="cls-7" d="M536.07,385.61,516.49,397l-43.15,25L430.11,446.9l-19.68,11.25L430,446.74l43.15-25,43.23-24.86Z" transform="translate(-25 -71.19)"/><path class="cls-41" d="M638,118.94c0,7.16,2,80.64,2,80.64s.32,6.58,7.15,5.59c3.06-.44,29.81-11,29.81-11s4.5-1.13,4.5-10.09V115.25s-1.49-7.31-8.06-6.34-29.12,4.48-29.12,4.48S638,113.74,638,118.94Zm4.11,4.56,36.25-5.86V181l-34.7,11.38Z" transform="translate(-25 -71.19)"/><polygon class="cls-42" points="700.79 80.29 710.91 70.32 696.07 51.72 686.63 61.69 700.79 80.29"/><polyline class="cls-43" points="710.91 70.32 697.4 65.45 696.07 51.72"/><line class="cls-43" x1="702.05" y1="67.13" x2="700.79" y2="80.29"/><line class="cls-43" x1="696.97" y1="61.02" x2="686.64" y2="61.69"/><polygon class="cls-42" points="688.31 106.82 692.31 93.19 670.3 84.14 666.9 97.44 688.31 106.82"/><polyline class="cls-43" points="692.31 93.19 678.14 95.5 670.3 84.14"/><line class="cls-43" x1="683.02" y1="94.7" x2="688.31" y2="106.82"/><line class="cls-43" x1="675.61" y1="91.83" x2="666.9" y2="97.44"/><polygon class="cls-44" points="624.95 68.57 622.34 101.81 644.23 95.48 647.39 66.01 624.95 68.57"/><polygon class="cls-42" points="630 103.45 624.95 68.57 647.39 66.01 651.89 96.38 630 103.45"/><polygon class="cls-45" points="189.93 260.92 187.15 269.12 181.59 268.97 182.7 259.48 189.93 260.92"/><path class="cls-46" d="M220.5,232.35a37.87,37.87,0,0,0-1.67,20.13c2.22,10.74,5.56,25.66,5.56,25.66s-11.06,11.27-15,32.73c-3.24,17.57-3.15,20-3.15,20l9.09,2.78s15.21-29.91,19.65-44.51,7.79-22.54,5.57-37.31-2.78-18.12-2.78-18.12Z" transform="translate(-25 -71.19)"/><polygon class="cls-47" points="222.58 98.12 222.02 107.51 211.45 105.5 213.53 95.9 222.58 98.12"/><polygon class="cls-45" points="230.37 259.85 229.25 269.91 223.69 268.57 223.69 259.18 230.37 259.85"/><path class="cls-48" d="M248.5,339.75l.11.05.08,0Z" transform="translate(-25 -71.19)"/><path class="cls-48" d="M265,338.19c-4.45-1.79-10.76,2.3-10.76,2.3l-5.64-.69c-2.12.79-1.4,6.44-1.4,6.44h22.25S269.46,340,265,338.19Z" transform="translate(-25 -71.19)"/><path class="cls-48" d="M204,339.75l.1.05.09,0Z" transform="translate(-25 -71.19)"/><path class="cls-48" d="M222.91,336.89c-4.45-1.79-10.76,2.31-10.76,2.31l-5.64-.7c-2.12.8-1.4,6.45-1.4,6.45h22.25S227.36,338.68,222.91,336.89Z" transform="translate(-25 -71.19)"/><path class="cls-45" d="M242.29,143.92s18.36,16.77,10.57,24.16-16.69,2.68-17.8-4S229.49,149.29,242.29,143.92Z" transform="translate(-25 -71.19)"/><path class="cls-49" d="M247.85,138.55c-3-3.13-8.34-8.05-10.57-2.69A34.14,34.14,0,0,1,225.6,150c-10.43,7.25,13.91,20.8,13.91,20.8l1.67-2.68S236.73,158,239.51,158a4.47,4.47,0,0,1,3.89,2.68l2.23-2s-5.57-8.05-3.34-8.72S252.31,143.25,247.85,138.55Z" transform="translate(-25 -71.19)"/><path class="cls-50" d="M250.91,225s11.5,40.1,12.62,49.65-5.94,59.07-5.94,59.07l-10,.14a216.45,216.45,0,0,1-2.6-35.09c0-12.39,3.34-18.92,3.34-18.92S226.43,251.18,223.09,229Z" transform="translate(-25 -71.19)"/><path class="cls-51" d="M236.45,176.68s-8.9,4.69-11.69,14.52c-5.42,19.16-6.49,50.07-6.49,50.07L255,238s-.19-49.88-8-59.27Z" transform="translate(-25 -71.19)"/><polygon class="cls-45" points="242.61 107.51 239.55 66.69 234.96 66.97 232.59 110.87 242.61 107.51"/><polygon class="cls-48" points="225.81 77.5 256.11 48.57 263.53 58.95 227.55 79.36 225.81 77.5"/><path class="cls-52" d="M286.39,123.85c2.14,2.84,3.22,5.65,2.39,6.27s-3.24-1.17-5.38-4-3.22-5.65-2.39-6.27S284.25,121,286.39,123.85Z" transform="translate(-25 -71.19)"/><path class="cls-45" d="M263.16,177.11l9.87-8.77,2.78-35.06s-8.2-.81-6.53-4.08,7.78-3.26,11.12,2.73,3.9,34.84,2.79,38.65-12.11,16.12-12.11,16.12Z" transform="translate(-25 -71.19)"/><path class="cls-51" d="M244.38,192.68c-2.13-3.94-.14-11.3,7.65-13.31a37.34,37.34,0,0,0,13.35-6.71l10,10.74S252.72,208.11,244.38,192.68Z" transform="translate(-25 -71.19)"/><path class="cls-45" d="M266.05,134.16c.85,1.19-.15,3.37-2.23,4.87s-4.47,1.77-5.32.58.14-3.36,2.23-4.86S265.19,133,266.05,134.16Z" transform="translate(-25 -71.19)"/><path class="cls-45" d="M659.69,299.34s-10.4,13-9.75,24.72,1.22,22.72,1.22,22.72l-32.89,25.65,2.44,5.92S657.18,360,661.78,351.9s4.65-44.52,4.65-44.52Z" transform="translate(-25 -71.19)"/><path class="cls-48" d="M619,371.13v.1l.06,0Z" transform="translate(-25 -71.19)"/><path class="cls-48" d="M624.83,384A6.83,6.83,0,0,0,621.1,378L619,371.23c-1.18-1.46-5.11.9-5.11.9l6.35,18S624.8,388.14,624.83,384Z" transform="translate(-25 -71.19)"/><path class="cls-45" d="M657.52,301.49s1.17,20.59,8,31.71c5.67,9.18,8.37,11.49,8.37,11.49s0,14.29-.32,26S676.74,410,676.74,410h4.88s6.15-55,5.82-71.21-4.92-41.21-4.92-41.21Z" transform="translate(-25 -71.19)"/><path class="cls-53" d="M684.4,299.34s3.83,36.2,3.83,47.34v11.14s-16.36,2.78-27.5-1.4a155.72,155.72,0,0,1-23-11.48s6.27-3.48,7.66-15,7.45-24,11.48-28.54Z" transform="translate(-25 -71.19)"/><path class="cls-48" d="M689.15,407.4c-3.49-1.55-7.18,1.89-7.18,1.89l-5.69-.49c-1.66.68-1.09,5.59-1.09,5.59h17.45S692.64,409,689.15,407.4Z" transform="translate(-25 -71.19)"/><path class="cls-45" d="M638.67,280.49,625.6,299.58s-5.89,1.1-7.2,2.75,0,10.51,3.29,8.87-.06-6.27,2.24-6.6a13.61,13.61,0,0,0,3.68-1l17.75-19.43Z" transform="translate(-25 -71.19)"/><path class="cls-45" d="M691.58,226.74l4.35-6-6.36-24.11s-10.09-3.64-7-6.7c5.69-5.69,10.79,4.22,10.79,4.22l11.39,26.93-5.48,10.2Z" transform="translate(-25 -71.19)"/><path class="cls-54" d="M658.43,251.52s-6.7-1.72-14.11,9.49c-5,7.51-8.54,20.3-8.54,20.3l8.58,5S668.94,258.63,658.43,251.52Z" transform="translate(-25 -71.19)"/><path class="cls-54" d="M676.47,242.82l15.78-19.23,9.71,4.14S686.66,269.21,676.47,242.82Z" transform="translate(-25 -71.19)"/><path class="cls-54" d="M669,246.46s-14.13,5.75-14.13,10.15-2.46,44.82-2.46,44.82,3.1.72,14.27,1.39a66.29,66.29,0,0,0,19.4-1.55l-1.84-47.68S677.84,245.79,669,246.46Z" transform="translate(-25 -71.19)"/><path class="cls-34" d="M658.45,216.69c-1.3.2-8.87,1-10.51,10.15s12.67,48.43,23.21,47.44c14.74-1.38,8-17.67,14.58-13.95s17.41,4.06,19-3S689,238.34,680.14,236,671.59,214.66,658.45,216.69Z" transform="translate(-25 -71.19)"/><polygon class="cls-55" points="647.14 432.9 649.95 450.6 631.49 450.34 632.79 430.49 647.14 432.9"/><path class="cls-56" d="M666.11,521s-9.61-6.84-16.64-.09c-17,16.29-17.34,63.8-17.34,63.8s12.84,13.95,32.94,12.45S702,586,702,586s-6.49-31.52-12-48.83C684.83,520.75,678.33,510.86,666.11,521Z" transform="translate(-25 -71.19)"/><path class="cls-45" d="M628.41,537.9s-6,12.83-6.67,20.45.69,14.56,10,19.42a76,76,0,0,0,19.76,6.58l2.08-6.58a56.91,56.91,0,0,0-9.88-7.46c-5.28-2.9-10.45-3.86-9.19-7.1,2.43-6.24,5-18.37,5-18.37Z" transform="translate(-25 -71.19)"/><path class="cls-45" d="M702.24,538.16s6.35,12.57,7,20.19-.69,14.56-10,19.42a76,76,0,0,1-19.76,6.58l-2.08-6.58s7-4.49,12.64-8.67c3-2.24,7.27-3.72,6.43-5.89-2.43-6.24-5.05-18-5.05-18Z" transform="translate(-25 -71.19)"/><path class="cls-57" d="M657.79,517.27s-15.95-8-25.65,4.86c-6.46,8.54-11,21.23-11,21.23l18.46,5.46S642.19,522.82,657.79,517.27Z" transform="translate(-25 -71.19)"/><path class="cls-57" d="M673.65,517.36s9.1-7.54,18.45-1.55,17.42,26.25,17.42,26.25l-18.2,6S688.72,524.38,673.65,517.36Z" transform="translate(-25 -71.19)"/><path class="cls-45" d="M661.92,471.32c-12.08,1.45-14.6,12.65-12.16,24.32s12,16.33,19.46,14.11C682.35,505.86,686.24,468.4,661.92,471.32Z" transform="translate(-25 -71.19)"/><path class="cls-58" d="M674.17,479.1c-4.74-2.67-10.22,2.83-15.08,6.23S644.4,489.8,642,483.48s-1.46-9.73,5.35-11.19,4.87-11.19,13.62-12.16,18,2.92,19,7.78,5.53,7.21,6.81,11.19c2.51,7.79-6.27,20.31-9.18,20.79S682,483.47,674.17,479.1Z" transform="translate(-25 -71.19)"/><path class="cls-45" d="M676.51,489.76s2.34-2.35,3.38.51-3.12,6.24-3.12,6.24Z" transform="translate(-25 -71.19)"/><polygon class="cls-59" points="667.8 523.56 615.45 523.56 609.56 483.7 672.31 483 667.8 523.56"/><polygon class="cls-45" points="603.62 538.99 591.59 541.11 592.61 547.21 604.92 548.35 603.62 538.99"/><path class="cls-58" d="M627.44,610.27s68.33-33.8,88.07-27.78c19.18,5.85,3.87,19.67-6.29,25.09s-81.11,12.85-81.11,12.85Z" transform="translate(-25 -71.19)"/><path class="cls-60" d="M622.12,610.7s-21.39-4.77-24.44-1-5.82,14.83,9.09,13.48,18-3.73,18-3.73S615.35,616.12,622.12,610.7Z" transform="translate(-25 -71.19)"/><rect class="cls-59" x="582.09" y="541.72" width="6.76" height="3.9"/><polygon class="cls-45" points="672.05 537.43 684.07 539.55 683.06 545.65 670.75 546.79 672.05 537.43"/><path class="cls-61" d="M698.23,608.71s-68.33-33.8-88.07-27.78c-19.19,5.85-3.87,19.67,6.29,25.09s81.1,12.85,81.1,12.85Z" transform="translate(-25 -71.19)"/><path class="cls-60" d="M703.55,609.14s21.38-4.77,24.43-1,5.82,14.83-9.08,13.48-18-3.73-18-3.73S710.32,614.56,703.55,609.14Z" transform="translate(-25 -71.19)"/><rect class="cls-59" x="684.26" y="540.29" width="6.76" height="3.9"/><path class="cls-51" d="M674.08,572.05c0,2-3.34,3.64-7.45,3.64s-7.46-1.63-7.46-3.64,3.34-3.64,7.46-3.64S674.08,570,674.08,572.05Z" transform="translate(-25 -71.19)"/><path class="cls-62" d="M309.19,132.36c1.86-1.25,6.44-2.37,6.33-5.28-.14-3.71-6.27-1.46-6.19-5.15a8.75,8.75,0,0,1,1.62-.06c-2.11-.51-6.38-5.43-5.86-7.77a2.14,2.14,0,0,1,2,1c-2.73-2.59-3.41-8.77-2.17-12.12,1.34.93,2.33,3.08,3.28,4.5a12.9,12.9,0,0,1-1.89-8.32c1.67,0,1.86,2.36,2.55,3.63a27.25,27.25,0,0,0,3.68,4.55c2.12,2.41,4.37,3.37,7.35,4.4.1-1.85-.94-3.22-.32-5.21,1.48-4.77,4.51-6.27,9.43-6.07,3.64.15,6,.14,8.57-3,0,1.92-.8,3.42-1.35,5.16a5.8,5.8,0,0,0,2.58-2c.16,2.55-1.83,4-2.24,6.24-.82,4.36,1.45,7.62-.41,12.13a21.28,21.28,0,0,1-9.76,10.11,35,35,0,0,1-8.46,2.95,25.28,25.28,0,0,1-4.34.47C312.76,132.61,309.81,132,309.19,132.36Z" transform="translate(-25 -71.19)"/><path class="cls-3" d="M351.22,128.27c1.19-.26,3.71.1,4.23-1.39.67-1.88-2.86-2-2.08-3.81a3.56,3.56,0,0,1,.83.29c-1-.68-2.12-4-1.39-5.07a1.16,1.16,0,0,1,.8.89c-.86-1.84,0-5.08,1.33-6.52a9.15,9.15,0,0,1,.74,2.92,7,7,0,0,1,.72-4.56c.84.32.46,1.56.55,2.33a15.11,15.11,0,0,0,.94,3,8.43,8.43,0,0,0,2.81,3.68c.42-.91.17-1.81.88-2.68,1.7-2.1,3.52-2.25,5.95-1.17,1.8.8,3,1.26,4.89.24a8.46,8.46,0,0,1-1.71,2.31,3.15,3.15,0,0,0,1.69-.46C372,119.6,370.68,120,370,121c-1.28,2-.79,4.12-2.63,6a11.47,11.47,0,0,1-6.92,3.12,18.6,18.6,0,0,1-4.83-.2,13.63,13.63,0,0,1-2.27-.63C353,129.11,351.61,128.19,351.22,128.27Z" transform="translate(-25 -71.19)"/><path class="cls-62" d="M364.82,91.56c.93-.79,3.33-1.65,3.1-3.21-.29-2-3.45-.42-3.63-2.4a4.25,4.25,0,0,1,.87-.13c-1.16-.15-3.74-2.55-3.6-3.83a1.16,1.16,0,0,1,1.13.41c-1.62-1.23-2.34-4.51-1.87-6.38a9.05,9.05,0,0,1,2,2.23,7.07,7.07,0,0,1-1.5-4.36c.9-.12,1.14,1.16,1.58,1.79a14.83,14.83,0,0,0,2.24,2.24,8.36,8.36,0,0,0,4.21,1.93c-.06-1-.69-1.67-.47-2.78.51-2.64,2.06-3.63,4.71-3.8,2-.13,3.21-.27,4.43-2.08a8.77,8.77,0,0,1-.42,2.84,3.09,3.09,0,0,0,1.27-1.2c.23,1.36-.75,2.28-.84,3.49-.19,2.39,1.22,4,.48,6.53a11.48,11.48,0,0,1-4.66,6,18.84,18.84,0,0,1-4.37,2.08,14.09,14.09,0,0,1-2.3.5C366.76,91.48,365.13,91.3,364.82,91.56Z" transform="translate(-25 -71.19)"/><polygon class="cls-45" points="352 458.41 351.01 473.88 364.23 474.13 365.48 458.16 352 458.41"/><path class="cls-63" d="M389.73,543.44s-5.24,1.88-9.73,0l-4.49-1.87a22.23,22.23,0,0,1-8.24,7.49c-5.61,3-21.33,6-22.45,9.36l-1.12,3.36s22.08,3,30.68-.37L383,558v3.74h7.11S395,550.18,389.73,543.44Z" transform="translate(-25 -71.19)"/><polygon class="cls-45" points="278.48 464.11 270.17 478.45 283.15 479.95 295.62 464.98 278.48 464.11"/><path class="cls-63" d="M310.91,548.39s-5.24,1.87-9.73,0l-4.49-1.87a22.34,22.34,0,0,1-8.23,7.49c-5.62,3-21.33,6-22.46,9.35l-1.12,3.37s22.08,3,30.69-.38l8.61-3.36v3.74h7.11S316.15,555.13,310.91,548.39Z" transform="translate(-25 -71.19)"/><path class="cls-64" d="M484,386.47s-84.33,3.28-91.82,3.28-18,4.2-16.46,53.29-.5,91.63-.5,91.63l16.46.93s13-40.67,17-67.32-2-54.22-2-54.22,62.39,16.82,113.28-7.49Z" transform="translate(-25 -71.19)"/><polygon class="cls-65" points="504.45 179.06 512.94 192.54 501.46 205.51 496.47 194.53 504.45 179.06"/><path class="cls-45" d="M490.78,225.05S490,273.7,514,269.21s16.46-21.7,13.47-30.68S506.5,201.1,490.78,225.05Z" transform="translate(-25 -71.19)"/><path class="cls-66" d="M506.5,222.81s1.1,13.6-18.92,16.32c-6.77.92-11.52-11.33-1.05-13.57S499,212.33,499,212.33s.75-12,10.48-9.73S526,230.29,526,234.78,506.5,222.81,506.5,222.81Z" transform="translate(-25 -71.19)"/><path class="cls-45" d="M512.55,229.27s3.51-6,6.68-3.73-.9,6.42-.9,6.42Z" transform="translate(-25 -71.19)"/><polygon class="cls-67" points="511.44 190.04 499.96 202.02 502.96 213 521.42 203.02 518.33 199 511.44 190.04"/><path class="cls-2" d="M519.47,404.94s-111.78-.5-123.75-.5-18.44-1.12-43.41,41.41c-27.7,47.15-53.4,91.81-53.4,91.81l16.72,5.49s36.18-35.93,68.61-75.84a94.4,94.4,0,0,0,14-24.45s111.78,58.38,160.18-16Z" transform="translate(-25 -71.19)"/><path class="cls-34" d="M546.42,270.71s-11,8-15,10l-4,2L473.07,386l85.82,42.92S593.32,332.58,546.42,270.71Z" transform="translate(-25 -71.19)"/><polygon class="cls-4" points="413.51 337.92 439.28 354.06 474.84 335.07 449.24 319.07 413.51 337.92"/><polygon class="cls-4" points="384.52 319.59 391.42 323.8 411.08 313.4 404.15 309.24 384.52 319.59"/><polygon class="cls-4" points="391.42 323.8 391.12 331.33 410.78 321.01 411.08 313.39 391.42 323.8"/><path class="cls-15" d="M410.92,388.3v0h0Z" transform="translate(-25 -71.19)"/><path class="cls-15" d="M411.24,388.92l26.08,16.44h0l26.17,16.51a1.92,1.92,0,0,0,1.91.07l41.25-21.71a.76.76,0,0,0,.39-.61h0l0,1h0a.72.72,0,0,1-.39.61l-41.24,21.72a1.91,1.91,0,0,1-1.92-.08l-24-15.14h0a8,8,0,0,1-2.63-1,4.82,4.82,0,0,1-1.67-1.73h0L411.2,389.91a.72.72,0,0,1-.32-.62h0l0-1A.68.68,0,0,0,411.24,388.92Z" transform="translate(-25 -71.19)"/><path class="cls-38" d="M411.29,387.71l2.4-1.25-.07,1.94,50.88,32.09h0l39.93-21,.06-1.73,2.17,1.21a.74.74,0,0,1,0,1.29L465.4,421.94a1.92,1.92,0,0,1-1.91-.07l-26.17-16.51h0l-26.08-16.44A.7.7,0,0,1,411.29,387.71Z" transform="translate(-25 -71.19)"/><path class="cls-22" d="M506.65,400.23l-20.6,10.9L465.4,421.94,486,411Z" transform="translate(-25 -71.19)"/><path class="cls-22" d="M463.49,421.87l-12-7.54-12-7.61,12,7.53Z" transform="translate(-25 -71.19)"/><path class="cls-22" d="M435.17,404l-12-7.5-11.94-7.59,12,7.5Z" transform="translate(-25 -71.19)"/><path class="cls-15" d="M441.2,405.79l-1.73.93a8,8,0,0,1-2.63-1,4.78,4.78,0,0,1-1.67-1.74l1.73-.92Z" transform="translate(-25 -71.19)"/><polygon class="cls-15" points="439.5 349.3 479.43 328.28 479.42 328.56 439.49 349.58 439.49 349.58 388.61 317.39 388.62 317.21 439.5 349.3"/><polygon class="cls-7" points="479.74 320.21 449.75 309.56 414.26 328.25 439.82 341.23 479.74 320.21"/><polygon class="cls-39" points="439.5 349.3 414.06 333.26 414.26 328.25 439.82 341.23 439.5 349.3"/><polygon class="cls-7" points="439.5 349.3 479.43 328.28 479.74 320.21 439.82 341.23 439.5 349.3"/><polygon class="cls-8" points="439.5 349.3 479.43 328.28 479.44 328 439.51 349.02 439.5 349.3"/><polygon class="cls-8" points="439.53 348.74 479.45 327.72 479.46 327.44 439.54 348.46 439.53 348.74"/><polygon class="cls-8" points="439.55 348.19 479.47 327.16 479.48 326.88 439.56 347.91 439.55 348.19"/><polygon class="cls-8" points="439.57 347.63 479.49 326.61 479.5 326.33 439.58 347.35 439.57 347.63"/><polygon class="cls-8" points="439.59 347.07 479.51 326.05 479.52 325.77 439.6 346.79 439.59 347.07"/><polygon class="cls-8" points="439.61 346.52 479.54 325.5 479.55 325.22 439.62 346.24 439.61 346.52"/><polygon class="cls-8" points="439.63 345.96 479.56 324.94 479.57 324.66 439.64 345.68 439.63 345.96"/><polygon class="cls-8" points="439.65 345.4 479.58 324.38 479.59 324.11 439.67 345.13 439.65 345.4"/><polygon class="cls-8" points="439.68 344.85 479.6 323.83 479.61 323.55 439.69 344.57 439.68 344.85"/><polygon class="cls-8" points="439.7 344.29 479.62 323.27 479.63 322.99 439.71 344.01 439.7 344.29"/><polygon class="cls-8" points="439.72 343.73 479.64 322.71 479.66 322.44 439.73 343.46 439.72 343.73"/><polygon class="cls-8" points="439.74 343.18 479.67 322.16 479.68 321.88 439.75 342.9 439.74 343.18"/><polygon class="cls-8" points="439.76 342.62 479.69 321.6 479.7 321.32 439.78 342.35 439.76 342.62"/><polygon class="cls-8" points="439.79 342.07 479.71 321.05 479.72 320.77 439.8 341.79 439.79 342.07"/><polygon class="cls-8" points="439.81 341.51 479.73 320.49 479.74 320.21 439.82 341.23 439.81 341.51"/><polygon class="cls-7" points="439.5 349.3 414.06 333.26 414.07 333.09 439.51 349.02 439.5 349.3"/><polygon class="cls-7" points="439.53 348.74 414.07 332.91 414.08 332.74 439.54 348.46 439.53 348.74"/><polygon class="cls-7" points="439.55 348.19 414.09 332.57 414.09 332.39 439.56 347.91 439.55 348.19"/><polygon class="cls-7" points="439.57 347.63 414.1 332.22 414.11 332.05 439.58 347.35 439.57 347.63"/><polygon class="cls-7" points="439.59 347.07 414.12 331.88 414.12 331.7 439.6 346.79 439.59 347.07"/><polygon class="cls-7" points="439.61 346.52 414.13 331.53 414.14 331.36 439.62 346.24 439.61 346.52"/><polygon class="cls-7" points="439.63 345.96 414.14 331.19 414.15 331.01 439.64 345.68 439.63 345.96"/><polygon class="cls-7" points="439.65 345.4 414.15 330.84 414.16 330.67 439.67 345.13 439.65 345.4"/><polygon class="cls-7" points="439.68 344.85 414.17 330.5 414.17 330.32 439.69 344.57 439.68 344.85"/><polygon class="cls-7" points="439.7 344.29 414.18 330.15 414.19 329.98 439.71 344.01 439.7 344.29"/><polygon class="cls-7" points="439.72 343.73 414.2 329.81 414.2 329.63 439.73 343.46 439.72 343.73"/><polygon class="cls-7" points="439.74 343.18 414.21 329.46 414.22 329.29 439.75 342.9 439.74 343.18"/><polygon class="cls-7" points="439.76 342.62 414.22 329.12 414.23 328.94 439.78 342.35 439.76 342.62"/><polygon class="cls-7" points="439.79 342.07 414.24 328.77 414.24 328.6 439.8 341.79 439.79 342.07"/><polygon class="cls-7" points="439.81 341.51 414.25 328.42 414.26 328.25 439.82 341.23 439.81 341.51"/><polygon class="cls-39" points="414.26 328.25 414.06 333.26 388.62 317.21 388.93 309.13 414.26 328.25"/><polygon class="cls-7" points="414.26 328.25 388.93 309.13 424.42 290.5 449.75 309.56 414.26 328.25"/><polygon class="cls-7" points="388.62 317.21 414.06 333.26 414.07 333.09 388.63 316.94 388.62 317.21"/><polygon class="cls-7" points="388.64 316.64 414.07 332.91 414.08 332.74 388.65 316.36 388.64 316.64"/><polygon class="cls-7" points="388.66 316.09 414.09 332.57 414.09 332.39 388.67 315.81 388.66 316.09"/><polygon class="cls-7" points="388.68 315.53 414.1 332.22 414.11 332.05 388.69 315.25 388.68 315.53"/><polygon class="cls-7" points="388.7 314.97 414.12 331.88 414.12 331.7 388.72 314.69 388.7 314.97"/><polygon class="cls-7" points="388.73 314.42 414.13 331.53 414.14 331.36 388.74 314.14 388.73 314.42"/><polygon class="cls-7" points="388.75 313.86 414.14 331.19 414.15 331.01 388.76 313.58 388.75 313.86"/><polygon class="cls-7" points="388.77 313.31 414.15 330.84 414.16 330.67 388.78 313.03 388.77 313.31"/><polygon class="cls-7" points="388.79 312.75 414.17 330.5 414.17 330.32 388.8 312.47 388.79 312.75"/><polygon class="cls-7" points="388.81 312.19 414.18 330.15 414.19 329.98 388.82 311.92 388.81 312.19"/><polygon class="cls-7" points="388.83 311.64 414.2 329.81 414.2 329.63 388.85 311.36 388.83 311.64"/><polygon class="cls-7" points="388.86 311.08 414.21 329.46 414.22 329.29 388.87 310.8 388.86 311.08"/><polygon class="cls-7" points="388.88 310.52 414.22 329.12 414.23 328.94 388.89 310.25 388.88 310.52"/><polygon class="cls-7" points="388.9 309.97 414.24 328.77 414.24 328.6 388.91 309.69 388.9 309.97"/><polygon class="cls-7" points="388.92 309.41 414.25 328.42 414.26 328.25 388.93 309.13 388.92 309.41"/><polygon class="cls-20" points="414.26 328.25 439.89 339.28 479.82 318.26 449.75 309.56 414.26 328.25"/><polygon class="cls-7" points="439.88 339.56 479.81 318.54 479.82 318.26 439.89 339.28 439.88 339.56"/><polygon class="cls-39" points="439.88 339.56 414.26 328.25 439.89 339.28 439.88 339.56"/><polygon class="cls-40" points="449.75 309.56 424.53 288.51 389.01 307.18 414.26 328.25 449.75 309.56"/><polygon class="cls-39" points="389 307.46 414.26 328.25 389.01 307.18 389 307.46"/><polygon class="cls-7" points="396.98 307.9 415 322.95 414.45 323.24 396.42 308.19 396.98 307.9"/><polygon class="cls-7" points="397.95 307.39 415.98 322.43 415.43 322.72 397.4 307.68 397.95 307.39"/><polygon class="cls-7" points="398.93 306.87 416.96 321.92 416.41 322.21 398.38 307.16 398.93 306.87"/><polygon class="cls-7" points="399.91 306.36 417.94 321.4 417.38 321.69 399.36 306.65 399.91 306.36"/><polygon class="cls-7" points="400.89 305.84 418.92 320.89 418.36 321.18 400.34 306.13 400.89 305.84"/><polygon class="cls-7" points="401.87 305.33 419.89 320.37 419.35 320.66 401.32 305.62 401.87 305.33"/><polygon class="cls-7" points="402.85 304.81 420.88 319.86 420.32 320.15 402.3 305.1 402.85 304.81"/><polygon class="cls-7" points="403.83 304.29 421.85 319.34 421.3 319.63 403.28 304.58 403.83 304.29"/><polygon class="cls-7" points="404.81 303.78 422.83 318.82 422.28 319.12 404.25 304.07 404.81 303.78"/><polygon class="cls-7" points="405.79 303.26 423.81 318.31 423.26 318.6 405.23 303.56 405.79 303.26"/><polygon class="cls-7" points="408.72 301.72 426.75 316.76 426.2 317.05 408.17 302.01 408.72 301.72"/><polygon class="cls-7" points="409.7 301.2 427.73 316.25 427.17 316.54 409.15 301.49 409.7 301.2"/><polygon class="cls-7" points="410.68 300.69 428.71 315.73 428.15 316.02 410.13 300.98 410.68 300.69"/><path class="cls-7" d="M455.09,375.24l.11-.06,1,.87-.11.06-.44-.37-2.09,1,3.56,0,1.17,1-.12.06-.45-.37-3.14,1.57.45.38-.13.06-1-.87.12-.07.45.38,3-1.53h-5.18l-.14-.11,3.34-1.67Z" transform="translate(-25 -71.19)"/><path class="cls-7" d="M453.45,374.18a1.35,1.35,0,0,1,.76-.13,1.15,1.15,0,0,1,.68.24.52.52,0,0,1,.2.49.65.65,0,0,1-.39.44,1.3,1.3,0,0,1-.77.13,1.12,1.12,0,0,1-.67-.24.5.5,0,0,1-.2-.49A.63.63,0,0,1,453.45,374.18Zm.16.39a1,1,0,0,0-.36.26c-.06.08,0,.16.07.25a.45.45,0,0,0,.35.11,1.47,1.47,0,0,0,.48-.17l.39-.19a1,1,0,0,0,.36-.26c.05-.08,0-.16-.07-.25a.52.52,0,0,0-.36-.11,1.7,1.7,0,0,0-.47.17Z" transform="translate(-25 -71.19)"/><path class="cls-7" d="M448.39,374l.12-.06.53.44,3.14-1.57.41.39c.12.12.32.29.59.52l-.13.06-.39-.33a.47.47,0,0,0-.18-.1.46.46,0,0,0-.22.07l-2.74,1.37.54.45-.11.06Z" transform="translate(-25 -71.19)"/><path class="cls-7" d="M447.54,371.17a3.25,3.25,0,0,1,1.48-.34,1.86,1.86,0,0,1,1.19.32.69.69,0,0,1,.2.84,1.75,1.75,0,0,1-.88.83,3.18,3.18,0,0,1-1.47.34,1.81,1.81,0,0,1-1.2-.32.68.68,0,0,1-.19-.84A1.72,1.72,0,0,1,447.54,371.17Zm-.05.77a1.38,1.38,0,0,0-.58.44.26.26,0,0,0,.07.39.7.7,0,0,0,.58.15,2.55,2.55,0,0,0,.79-.25l1.24-.62a1.61,1.61,0,0,0,.58-.44.26.26,0,0,0-.07-.39.71.71,0,0,0-.58-.15,2.4,2.4,0,0,0-.79.25Z" transform="translate(-25 -71.19)"/><path class="cls-7" d="M474.74,380.75,457,390.14l-17.76,9.29L457,390.05Z" transform="translate(-25 -71.19)"/><path class="cls-45" d="M469.07,362.52s-5.73-8.48-22.7-8c-15.85.46-4.74,18-2.74,15.47a7.6,7.6,0,0,0,1.5-5.49s7.23,5.74,21.2,4.74Z" transform="translate(-25 -71.19)"/><path class="cls-68" d="M543.42,294.66c-7.9,4.72-18.46,16-13,43.41s10,43.41,10,43.41L469.07,360l-5.48,15s75.85,44.4,104.29,35.92S574.36,276.2,543.42,294.66Z" transform="translate(-25 -71.19)"/><path class="cls-57" d="M502.07,207.93l-19.15,5.15,1.81,12.47s6,3,20,1,18.94-6.61,18.94-6.61l-1.81-12.47Z" transform="translate(-25 -71.19)"/><polygon class="cls-69" points="475.28 124.39 436.67 140.46 436.86 141.77 478.44 146.22 517.05 130.14 516.86 128.83 475.28 124.39"/><polygon class="cls-34" points="475.28 124.39 436.67 140.46 478.25 144.9 516.86 128.83 475.28 124.39"/><path class="cls-70" d="M535,222.88l-.42,0s-.2-1.76-.66-4.54c-.14-.9-.23-1.29-.31-1.63-.15-.71-.25-1.18-.78-5.77,0-.27,0-.55-.08-.85-.16-1.79-.37-4-1.86-5-1.15-.72-2.61-.55-4-.37-.56.06-1.08.13-1.59.14-2.59,0-5.23.15-7.78.25l-1.89.07c-6.24.22-11.59.46-11.64.47l0-.42c.06,0,5.4-.25,11.64-.47l1.9-.07c2.55-.1,5.19-.2,7.79-.25a14.91,14.91,0,0,0,1.54-.14c1.48-.18,3-.37,4.28.44,1.68,1.06,1.89,3.4,2.05,5.29,0,.29.06.57.09.83a50.39,50.39,0,0,0,.78,5.73c.07.35.15.74.31,1.65C534.83,221.11,535,222.86,535,222.88Z" transform="translate(-25 -71.19)"/><path class="cls-69" d="M504.46,205.44c.09.66-1,1.37-2.52,1.58s-2.77-.14-2.87-.8,1-1.36,2.52-1.58S504.36,204.78,504.46,205.44Z" transform="translate(-25 -71.19)"/><path class="cls-70" d="M535.92,221a1.38,1.38,0,1,1-1.56-1.16A1.39,1.39,0,0,1,535.92,221Z" transform="translate(-25 -71.19)"/><path class="cls-71" d="M534.66,221.9c-1.06.16-1.31,0-1.31,0l.16,1.11,2.55-.37-.16-1.11S535.73,221.75,534.66,221.9Z" transform="translate(-25 -71.19)"/><path class="cls-70" d="M536.7,222.92a2.29,2.29,0,0,0-3.77.75c-.75,1.84.41,4.27,1.72,5.57l.23.24,0,.06a1.63,1.63,0,0,1,.17.2l0,0a1.84,1.84,0,0,1,.17.22,0,0,0,0,1,0,0l.18.25a9.05,9.05,0,0,1,.56.91,7.54,7.54,0,0,0,1.21-2.23,7.82,7.82,0,0,0,.6-2.6A4.42,4.42,0,0,0,536.7,222.92Z" transform="translate(-25 -71.19)"/><path class="cls-72" d="M534.09,222.81s-.06.08-.15.23a5,5,0,0,0-.3.64c0,.14-.09.29-.14.45a2.38,2.38,0,0,0,0,.26,1.09,1.09,0,0,0,0,.26l0,.28v.42l0,.15,0,.28c0,.19.09.38.14.56s.13.36.21.52l.25.47.26.39.12.18a1.58,1.58,0,0,1,.12.15c.08.09.15.17.2.24l.17.21-.2-.18-.23-.22-.14-.14-.13-.17c-.09-.11-.2-.24-.3-.38s-.19-.3-.28-.47-.16-.35-.24-.53-.11-.39-.16-.59l0-.3,0-.16v-.15c0-.1,0-.2,0-.3a2.7,2.7,0,0,1,0-.28.87.87,0,0,1,0-.28c0-.09,0-.17.07-.26a3.83,3.83,0,0,1,.18-.45,2.9,2.9,0,0,1,.2-.36,1.17,1.17,0,0,1,.18-.26A1.32,1.32,0,0,1,534.09,222.81Z" transform="translate(-25 -71.19)"/><path class="cls-72" d="M534.54,222.74s0,.1,0,.29,0,.2,0,.33,0,.27,0,.43c0,.31,0,.68,0,1.06,0,.2,0,.4.05.6s0,.41.07.62.07.41.1.61.1.39.15.58.11.37.18.53l.19.46.21.38a1.58,1.58,0,0,0,.18.27l.16.24-.19-.21a2.11,2.11,0,0,1-.22-.26l-.24-.36c-.08-.14-.15-.3-.23-.46s-.14-.35-.21-.53-.12-.39-.17-.6a6.17,6.17,0,0,1-.11-.62c0-.21-.06-.42-.07-.63s0-.41,0-.61,0-.39,0-.57l0-.51a6.79,6.79,0,0,1,.11-.76C534.52,222.84,534.54,222.74,534.54,222.74Z" transform="translate(-25 -71.19)"/><path class="cls-72" d="M535,223.42l.12.26c.07.16.18.4.28.68l.15.47c.06.17.11.35.16.53.1.37.19.77.26,1.17,0,.2.06.41.09.61s0,.39.07.58,0,.38,0,.55,0,.34,0,.5,0,.56,0,.74,0,.27,0,.27,0-.1,0-.27,0-.2,0-.32,0-.27,0-.42,0-.31,0-.49,0-.35-.07-.54,0-.38-.08-.58-.06-.39-.1-.59c-.06-.4-.15-.79-.23-1.16s-.16-.72-.25-1-.14-.54-.2-.71Z" transform="translate(-25 -71.19)"/><path class="cls-72" d="M535.07,222.58l.17.21a6.11,6.11,0,0,1,.37.58,7.17,7.17,0,0,1,.45.88c.07.17.15.34.21.52l.18.55c0,.18.09.37.13.56s.06.37.09.55,0,.35,0,.52,0,.16,0,.24v.22c0,.15,0,.28,0,.4s0,.22,0,.3,0,.26,0,.26,0-.1,0-.26v-.3c0-.12,0-.25,0-.39s0-.15,0-.22l0-.24c0-.16,0-.33-.07-.51s-.07-.35-.11-.53a5.36,5.36,0,0,0-.14-.54c0-.19-.1-.37-.16-.54s-.13-.35-.19-.52-.12-.32-.19-.47-.13-.3-.19-.42-.23-.47-.31-.62Z" transform="translate(-25 -71.19)"/><path class="cls-72" d="M536.24,223.24a7.09,7.09,0,0,1,.47.87c.06.13.12.28.18.44a4.86,4.86,0,0,1,.17.5,4.92,4.92,0,0,1,.14.55c0,.19.08.39.11.58s0,.4,0,.59a3.72,3.72,0,0,1,0,.58,4.51,4.51,0,0,1-.07.53,3.1,3.1,0,0,1-.11.46c0,.15-.09.27-.13.39s-.1.2-.13.28l-.13.24a2.32,2.32,0,0,0,.09-.26,2.39,2.39,0,0,0,.1-.29c0-.11,0-.24.09-.38a3.17,3.17,0,0,0,.07-.46,4.38,4.38,0,0,0,0-.52c0-.18,0-.37,0-.56a5.48,5.48,0,0,0,0-.57l-.09-.57c0-.18-.08-.37-.13-.54a5.07,5.07,0,0,0-.14-.5c0-.17-.1-.31-.14-.45s-.18-.5-.25-.66Z" transform="translate(-25 -71.19)"/><path class="cls-2" d="M734.89,537.83s10.58-19.55,33-17.31c0,0,35.67,14.16,50.36-.53l-33-18.56S723.39,504,714.18,529Z" transform="translate(-25 -71.19)"/><path class="cls-3" d="M728.78,577.31s-8.58-60.47,50-69.12c0,0,29.33-1.92,33.84-21.63L787.67,485s-2.06,14-38.85,13.64c0,0-45.73,14.11-41.21,67Z" transform="translate(-25 -71.19)"/></g></g></svg>