<svg id="visual" viewBox="0 0 960 300" width="960" height="300" xmlns="http://www.w3.org/2000/svg" xmlns:xlink="http://www.w3.org/1999/xlink" version="1.1"><rect x="0" y="0" width="960" height="300" fill="#1a1a2e"></rect><path d="M0 117L12.3 126C24.7 135 49.3 153 74 150.5C98.7 148 123.3 125 148 118.5C172.7 112 197.3 122 221.8 123.3C246.3 124.7 270.7 117.3 295.2 116.3C319.7 115.3 344.3 120.7 369 126.8C393.7 133 418.3 140 443 143.8C467.7 147.7 492.3 148.3 517 142C541.7 135.7 566.3 122.3 591 119.2C615.7 116 640.3 123 664.8 134.3C689.3 145.7 713.7 161.3 738.2 158.2C762.7 155 787.3 133 812 132C836.7 131 861.3 151 886 149.8C910.7 148.7 935.3 126.3 947.7 115.2L960 104L960 301L947.7 301C935.3 301 910.7 301 886 301C861.3 301 836.7 301 812 301C787.3 301 762.7 301 738.2 301C713.7 301 689.3 301 664.8 301C640.3 301 615.7 301 591 301C566.3 301 541.7 301 517 301C492.3 301 467.7 301 443 301C418.3 301 393.7 301 369 301C344.3 301 319.7 301 295.2 301C270.7 301 246.3 301 221.8 301C197.3 301 172.7 301 148 301C123.3 301 98.7 301 74 301C49.3 301 24.7 301 12.3 301L0 301Z" fill="#e94560"></path><path d="M0 143L12.3 143.7C24.7 144.3 49.3 145.7 74 147.8C98.7 150 123.3 153 148 157.8C172.7 162.7 197.3 169.3 221.8 173.3C246.3 177.3 270.7 178.7 295.2 182.5C319.7 186.3 344.3 192.7 369 193C393.7 193.3 418.3 187.7 443 182.7C467.7 177.7 492.3 173.3 517 168.8C541.7 164.3 566.3 159.7 591 156.5C615.7 153.3 640.3 151.7 664.8 157.7C689.3 163.7 713.7 177.3 738.2 186C762.7 194.7 787.3 198.3 812 192.3C836.7 186.3 861.3 170.7 886 163C910.7 155.3 935.3 155.7 947.7 155.8L960 156L960 301L947.7 301C935.3 301 910.7 301 886 301C861.3 301 836.7 301 812 301C787.3 301 762.7 301 738.2 301C713.7 301 689.3 301 664.8 301C640.3 301 615.7 301 591 301C566.3 301 541.7 301 517 301C492.3 301 467.7 301 443 301C418.3 301 393.7 301 369 301C344.3 301 319.7 301 295.2 301C270.7 301 246.3 301 221.8 301C197.3 301 172.7 301 148 301C123.3 301 98.7 301 74 301C49.3 301 24.7 301 12.3 301L0 301Z" fill="#b73771"></path><path d="M0 220L12.3 212.8C24.7 205.7 49.3 191.3 74 192.2C98.7 193 123.3 209 148 209.7C172.7 210.3 197.3 195.7 221.8 192.2C246.3 188.7 270.7 196.3 295.2 203.3C319.7 210.3 344.3 216.7 369 211.5C393.7 206.3 418.3 189.7 443 182.8C467.7 176 492.3 179 517 179.7C541.7 180.3 566.3 178.7 591 179.3C615.7 180 640.3 183 664.8 184.3C689.3 185.7 713.7 185.3 738.2 183.5C762.7 181.7 787.3 178.3 812 181.3C836.7 184.3 861.3 193.7 886 200C910.7 206.3 935.3 209.7 947.7 211.3L960 213L960 301L947.7 301C935.3 301 910.7 301 886 301C861.3 301 836.7 301 812 301C787.3 301 762.7 301 738.2 301C713.7 301 689.3 301 664.8 301C640.3 301 615.7 301 591 301C566.3 301 541.7 301 517 301C492.3 301 467.7 301 443 301C418.3 301 393.7 301 369 301C344.3 301 319.7 301 295.2 301C270.7 301 246.3 301 221.8 301C197.3 301 172.7 301 148 301C123.3 301 98.7 301 74 301C49.3 301 24.7 301 12.3 301L0 301Z" fill="#7c3471"></path><path d="M0 248L12.3 243.8C24.7 239.7 49.3 231.3 74 225.5C98.7 219.7 123.3 216.3 148 218.8C172.7 221.3 197.3 229.7 221.8 230.2C246.3 230.7 270.7 223.3 295.2 218.2C319.7 213 344.3 210 369 211.7C393.7 213.3 418.3 219.7 443 224.7C467.7 229.7 492.3 233.3 517 234C541.7 234.7 566.3 232.3 591 229.2C615.7 226 640.3 222 664.8 219.5C689.3 217 713.7 216 738.2 218.2C762.7 220.3 787.3 225.7 812 226.8C836.7 228 861.3 225 886 224.2C910.7 223.3 935.3 224.7 947.7 225.3L960 226L960 301L947.7 301C935.3 301 910.7 301 886 301C861.3 301 836.7 301 812 301C787.3 301 762.7 301 738.2 301C713.7 301 689.3 301 664.8 301C640.3 301 615.7 301 591 301C566.3 301 541.7 301 517 301C492.3 301 467.7 301 443 301C418.3 301 393.7 301 369 301C344.3 301 319.7 301 295.2 301C270.7 301 246.3 301 221.8 301C197.3 301 172.7 301 148 301C123.3 301 98.7 301 74 301C49.3 301 24.7 301 12.3 301L0 301Z" fill="#432e5e"></path><path d="M0 239L12.3 240C24.7 241 49.3 243 74 246.7C98.7 250.3 123.3 255.7 148 258C172.7 260.3 197.3 259.7 221.8 262.5C246.3 265.3 270.7 271.7 295.2 271.8C319.7 272 344.3 266 369 265.3C393.7 264.7 418.3 269.3 443 267.8C467.7 266.3 492.3 258.7 517 254.7C541.7 250.7 566.3 250.3 591 248.8C615.7 247.3 640.3 244.7 664.8 247.8C689.3 251 713.7 260 738.2 264.7C762.7 269.3 787.3 269.7 812 266.8C836.7 264 861.3 258 886 258.2C910.7 258.3 935.3 264.7 947.7 267.8L960 271L960 301L947.7 301C935.3 301 910.7 301 886 301C861.3 301 836.7 301 812 301C787.3 301 762.7 301 738.2 301C713.7 301 689.3 301 664.8 301C640.3 301 615.7 301 591 301C566.3 301 541.7 301 517 301C492.3 301 467.7 301 443 301C418.3 301 393.7 301 369 301C344.3 301 319.7 301 295.2 301C270.7 301 246.3 301 221.8 301C197.3 301 172.7 301 148 301C123.3 301 98.7 301 74 301C49.3 301 24.7 301 12.3 301L0 301Z" fill="#16213e"></path></svg>