<svg xmlns="http://www.w3.org/2000/svg" viewBox="0 0 23.93 87.94"><defs><style>.cls-1{fill:#fff;}</style></defs><g id="Layer_2" data-name="Layer 2"><g id="Layer_1-2" data-name="Layer 1"><path class="cls-1" d="M0,11.84A12.13,12.13,0,0,1,12.21,0,12.13,12.13,0,0,1,23.93,11.83a12.13,12.13,0,0,1-12,12.1A12.13,12.13,0,0,1,0,11.84Z"/><path class="cls-1" d="M0,44.19A12.13,12.13,0,0,1,11.87,32a12,12,0,0,1,.44,23.93A12.15,12.15,0,0,1,0,44.19Z"/><path class="cls-1" d="M0,76.2A12.14,12.14,0,0,1,11.86,64a12,12,0,0,1,.46,23.93A12.15,12.15,0,0,1,0,76.2Z"/></g></g></svg>