<svg xmlns="http://www.w3.org/2000/svg" viewBox="0 0 997.59 262.98"><defs><style>.cls-1,.cls-9{fill:none;}.cls-1{stroke:red;}.cls-1,.cls-4,.cls-8,.cls-9{stroke-miterlimit:10;}.cls-2{fill:#c8c8c8;}.cls-3,.cls-8{fill:#efefef;}.cls-4,.cls-6{fill:#fff;}.cls-4,.cls-8{stroke:#fff;}.cls-4,.cls-8,.cls-9{stroke-width:2px;}.cls-5{fill:#969696;}.cls-7{fill:#e0e0e0;}.cls-9{stroke:#969696;}</style></defs><g id="Layer_2" data-name="Layer 2"><g id="Layer_1-2" data-name="Layer 1"><circle class="cls-1" cx="769.85" cy="214.79" r="3.06"/></g><g id="phone"><path class="cls-2" d="M915.48,263l-101.42-5.7L577.71,244,308.17,228.87l-201-11.29c-33.83-1.9-67.52-2.36-99.86-14.09C1.94,183.27-6.64,153.6,8.59,137c11.46-12.47,23.09-24.78,34.63-37.17,18.91-20.31,37.24-41.43,56.86-61.06,0,0,15.64-14.59,21.9-17.72s34.41-6.26,34.41-6.26L955.1,53.39s18.77,0,33.37,9.39,7.3,51.09,7.3,51.09L974.91,243.16S955.1,263,935.29,263Z"/><path class="cls-3" d="M905.68,243.06l-96-5.39L584.73,225l-259.87-14.6L124.23,199.17c-36.4-2-73.35-1.89-108.07-14.33C13.64,172.18,10,159,10,146V127.66L107,23.49s15.32-14.3,21.44-17.36S162.19,0,162.19,0L944.48,37.79s18.39,0,32.69,9.19,7.14,50,7.14,50L963.89,223.66s-19.41,19.4-38.81,19.4Z"/><polyline class="cls-4" points="849.91 195.46 849.91 239.93 860.23 240.51 859.72 194.04 852.59 193.67"/><polyline class="cls-4" points="83.94 153.92 85.59 195.46 92.23 195.46 91.77 154.36 83.94 153.92"/><path class="cls-5" d="M981.64,51.87h0l-.13-.22A13.83,13.83,0,0,0,977.17,47c-14.3-9.19-32.69-9.19-32.69-9.19L162.19,0s-27.58,3.06-33.71,6.13S107,23.49,107,23.49l-87.7,94.15S10,140.94,28.4,146s65.36,8.17,65.36,8.17l766,39.83s70.47,5.11,81.7-4.08,20.43-11.24,24.51-36.77S981.63,51.87,981.64,51.87Z"/><path class="cls-6" d="M143.55,10.21s3.06-3.06,14.55-3.06h31.41L911,41.62s21.44,1.53,32.17,3.06,19.15,6.13,20.68,9.2c1.81,3.72-1.29,13.18-1.84,17-1.76,12.18-3.8,24.32-5.83,36.46-3.28,19.66-3.05,58.48-20.7,70.72-7.37,5.11-16.47,7.12-25.41,7.93a329.46,329.46,0,0,1-42.73,1.17l-792-46s-32.94-2.3-37.53-4.59-8.43-10,0-19.15S57,97.24,57,97.24s13.78.48,24.51,0,17.61-6.6,23-13.5,26.05-29.87,29.88-35.23-25.28-9.19-25.28-9.19A172.77,172.77,0,0,1,124.4,20.94C132.06,13.28,143.55,10.21,143.55,10.21Z"/><rect class="cls-7" x="338.38" y="185.12" width="71.23" height="20.68" rx="10.34" transform="translate(12.62 -22.45) rotate(3.5)"/><rect class="cls-8" x="338.7" y="182.04" width="71.23" height="20.68" rx="10.34" transform="translate(12.43 -22.47) rotate(3.5)"/><rect class="cls-7" x="247.83" y="179.58" width="71.23" height="20.68" rx="10.34" transform="translate(12.11 -16.93) rotate(3.5)"/><rect class="cls-8" x="247.83" y="176.49" width="71.23" height="20.68" rx="10.34" transform="translate(11.92 -16.94) rotate(3.5)"/><rect class="cls-7" x="173.7" y="178.1" width="44.65" height="12.96" rx="6.48" transform="translate(11.62 -11.61) rotate(3.5)"/><rect class="cls-8" x="173.89" y="175.02" width="44.65" height="12.96" rx="6.48" transform="translate(11.43 -11.63) rotate(3.5)"/><rect class="cls-9" x="669.09" y="204.58" width="108.89" height="14.3" rx="6.31" transform="translate(14.51 -44.42) rotate(3.55)"/><circle class="cls-5" cx="769.85" cy="214.6" r="3.06"/></g></g></svg>