<svg xmlns="http://www.w3.org/2000/svg" viewBox="0 0 599.37 431.37"><defs><style>.cls-1{fill:#e94560;}.cls-2{fill:#ef6f8e;}.cls-3{fill:none;}</style></defs><g id="Layer_2" data-name="Layer 2"><g id="Layer_1-2" data-name="Layer 1"><path class="cls-1" d="M287.74,71.66h23.89l.09.09q0,69.75,0,139.49c0,23.84.08,47.67-.09,71.5,0,4,1.16,5.24,5.1,5.05,6.32-.29,12.66-.08,19-.09v24c-6.47,0-12.94.13-19.39-.06-3.29-.1-4.89.68-4.69,4.37.27,5.13.21,10.28,0,15.41-.12,3.19.91,4.43,4.22,4.33,6.63-.19,13.26,0,19.89,0v23.63H263.63V335.74c6.63,0,13.26-.16,19.89,0,3.31.1,4.34-1.14,4.22-4.33-.2-5.13-.26-10.28,0-15.41.2-3.69-1.4-4.47-4.69-4.37-6.46.19-12.92.06-19.39.06v-24c6.34,0,12.68-.2,19,.09,3.94.19,5.1-1.06,5.1-5.05q-.19-105.49-.12-211Z"/><path class="cls-1" d="M47.66,95.64v-24h24l.09.09q0,45.75,0,91.49c0,31.84.06,63.67-.09,95.5,0,4,1.16,5.24,5.1,5.05,6.32-.29,12.66-.08,19-.09v24c-6.47,0-12.94.13-19.39-.06-3.29-.1-4.89.68-4.69,4.37.27,5.13.21,10.28,0,15.41-.12,3.19.91,4.43,4.22,4.33,6.63-.19,13.26,0,19.89,0v23.55H47.68V119.71Q47.68,107.68,47.66,95.64Z"/><path class="cls-1" d="M527.74,71.66h24v24q0,12,0,24.07V335.39H503.63V311.74c6.63,0,13.26-.16,19.89,0,3.31.1,4.34-1.14,4.22-4.33-.2-5.13-.26-10.28,0-15.41.2-3.69-1.41-4.47-4.69-4.37-6.46.19-12.92.06-19.39.06v-24c6.34,0,12.68-.2,19,.09,3.94.19,5.11-1.06,5.1-5.05q-.19-93.49-.12-187Z"/><path d="M23.74,407.66H0V119.77H23.74l-.09-.09V407.75Z"/><path d="M575.63,119.77h23.74V407.66H575.63l.09.09V119.68Z"/><path class="cls-1" d="M119.63,23.66V0H239.74V23.66l-.09.09H119.72Z"/><path class="cls-1" d="M359.63,23.66V0H479.74V23.66l-.09.09H359.72Z"/><path d="M239.74,383.66H119.63l.09.09v-23.7H239.65v23.7Z"/><path d="M479.74,383.66H359.63l.09.09v-23.7H479.65v23.7Z"/><path d="M359.63,383.66v23.73H239.74V383.66l-.09.09H359.72Z"/><path d="M575.63,407.66v23.71H527.74V407.66l-.09.09h48.07Z"/><path d="M119.63,383.66v24h-48l.09.09v-24h48Z"/><path d="M527.74,407.66h-48v-24l-.09.09h48v24Z"/><path d="M71.63,407.66v23.71H23.74V407.66l-.09.09H71.72Z"/><path class="cls-1" d="M95.63,47.66v-24h24l.09.09c0,6.66-.14,13.32,0,20,.07,3-1,4.11-4,4-6.66-.15-13.32,0-20,0Z"/><path class="cls-1" d="M239.74,23.66h24v24l-.09.09c-6.66,0-13.32-.14-20,0-3,.08-4.11-1-4-4,.16-6.66,0-13.32,0-20Z"/><path class="cls-1" d="M335.63,47.66v-24h24l.09.09c0,6.66-.14,13.32,0,20,.07,3-1,4.11-4,4-6.66-.15-13.32,0-20,0Z"/><path class="cls-1" d="M479.74,23.66h24v24l-.09.09c-6.66,0-13.32-.14-20,0-3,.08-4.11-1-4-4,.16-6.66,0-13.32,0-20Z"/><path class="cls-1" d="M263.74,47.66h24v24l-.09.09c-6.66,0-13.32-.14-20,0-3,.08-4.11-1-4-4,.16-6.66,0-13.32,0-20Z"/><path class="cls-1" d="M311.63,71.66v-24h24l.09.09c0,6.66-.14,13.32,0,20,.07,3-1,4.11-4,4-6.66-.15-13.32,0-20,0Z"/><path class="cls-1" d="M503.74,47.66h24v24l-.09.09c-6.66,0-13.32-.14-20,0-3,.08-4.11-1-4-4,.16-6.66,0-13.32,0-20Z"/><path class="cls-1" d="M551.69,119.71q0-12,0-24.07h23.92v24.13l.09-.09Z"/><path d="M47.66,95.64q0,12,0,24.07l-24,0,.09.09V95.64Z"/><path class="cls-1" d="M71.63,71.66v-24h24l.09.09c0,6.66-.14,13.32,0,20,.07,3-1,4.11-4,4-6.66-.15-13.32,0-20,0Z"/><path class="cls-2" d="M23.65,119.68l24,0V335.29H95.74V311.74l0,0h144l0,0v24h24l0,0v23.63h72.11V335.74l0,0h24v-24l0,0h144l0,0v23.65h48.06V119.71l24,0V407.75H527.65v-24h-48v-23.7H359.72v23.7H239.65v-23.7H119.72v23.7h-48v24H23.65Z"/><path class="cls-3" d="M71.72,71.75c6.66,0,13.32-.14,20,0,3,.08,4.11-1,4-4-.16-6.66,0-13.32,0-20,6.66,0,13.32-.14,20,0,3,.08,4.11-1,4-4-.16-6.66,0-13.32,0-20H239.65c0,6.66.14,13.32,0,20-.07,3,1,4.11,4,4,6.66-.15,13.32,0,20,0,0,6.66.14,13.32,0,20-.07,3,1,4.11,4,4,6.66-.15,13.32,0,20,0q0,105.5.12,211c0,4-1.16,5.24-5.1,5.05-6.32-.29-12.66-.08-19-.09l0,0c0-6.76-.1-13.53,0-20.3,0-2.77-1-3.8-3.75-3.75-6.76.13-13.53,0-20.3,0l0,0c0-6.65-.12-13.3,0-20,.07-2.94-.83-4.11-3.95-4.11q-68.1.12-136.19,0c-3.12,0-4,1.17-4,4.11.15,6.65,0,13.3,0,20l0,0c-6.34,0-12.68-.2-19,.09-3.94.19-5.12-1.06-5.1-5.05.15-31.83.08-63.66.09-95.5Q71.69,117.51,71.72,71.75Zm168,95.95c0,6.64.08,13.28-.06,19.91-.06,2.88.71,4.27,3.9,4.15,5.46-.19,11-.15,16.42,0,2.79.07,3.84-1,3.76-3.76-.14-5.31-.24-10.63,0-15.93.19-3.66-1.35-4.51-4.67-4.4-6.46.2-12.94.06-19.41.06,0-6.64-.09-13.3.06-19.94.07-2.94-.81-4.12-3.94-4.12q-56.1.12-112.21,0c-3.13,0-4,1.18-3.94,4.12.15,6.64,0,13.3.06,19.94-6.64,0-13.28.09-19.91-.05-2.88-.06-4.27.71-4.16,3.89.2,5.47.16,11,0,16.43-.08,2.79,1,3.84,3.76,3.76,5.31-.14,10.63-.24,15.93,0,3.66.19,4.51-1.35,4.4-4.67-.2-6.46-.06-12.94-.07-19.41Zm-120-72h120c0,6.64.08,13.28-.06,19.91-.06,2.88.71,4.27,3.9,4.15,5.46-.19,11-.15,16.42,0,2.79.07,3.84-1,3.76-3.76-.14-5.31-.24-10.63,0-15.93.19-3.66-1.35-4.51-4.67-4.4-6.46.2-12.94.06-19.41.06,0-6.64-.09-13.3.06-19.94.07-2.94-.81-4.12-3.94-4.12q-56.1.12-112.21,0c-3.13,0-4,1.18-3.94,4.12.15,6.64,0,13.3.06,19.94-6.64,0-13.28.09-19.91,0-2.88-.06-4.27.71-4.16,3.89.2,5.47.16,11,0,16.43-.08,2.79,1,3.84,3.76,3.76,5.31-.14,10.63-.24,15.93,0,3.66.19,4.51-1.35,4.4-4.67C119.54,108.65,119.68,102.17,119.67,95.7Z"/><path class="cls-3" d="M503.65,47.75c0,6.66.14,13.32,0,20-.07,3,1,4.11,4,4,6.66-.15,13.32,0,20,0q0,93.5.12,187c0,4-1.16,5.24-5.1,5.05-6.32-.29-12.66-.08-19-.09l0,0c0-6.65-.12-13.3,0-20,.07-2.94-.83-4.11-4-4.11q-68.1.12-136.19,0c-3.12,0-4,1.17-3.95,4.11.15,6.65,0,13.3,0,20l0,0c-6.77,0-13.54.1-20.31,0-2.77-.05-3.79,1-3.74,3.75.12,6.77,0,13.54,0,20.3l0,0c-6.34,0-12.68-.2-19,.09-3.94.19-5.13-1.06-5.1-5.05.17-23.83.08-47.66.09-71.5q0-69.75,0-139.49c6.66,0,13.32-.14,20,0,3,.08,4.11-1,4-4-.16-6.66,0-13.32,0-20,6.66,0,13.32-.14,20,0,3,.08,4.11-1,4-4-.16-6.66,0-13.32,0-20H479.65c0,6.66.14,13.32,0,20-.07,3,1,4.11,4,4C490.33,47.61,497,47.73,503.65,47.75Zm-144,48h120c0,6.64.08,13.28-.06,19.91-.06,2.88.71,4.27,3.9,4.15,5.46-.19,10.95-.15,16.42,0,2.79.07,3.84-1,3.76-3.76-.14-5.31-.24-10.63,0-15.93.19-3.66-1.35-4.51-4.67-4.4-6.46.2-12.94.06-19.41.06,0-6.64-.09-13.3.06-19.94.07-2.94-.81-4.12-3.94-4.12q-56.1.12-112.21,0c-3.13,0-4,1.18-3.94,4.12.15,6.64.05,13.3.06,19.94-6.64,0-13.28.09-19.91,0-2.88-.06-4.27.71-4.16,3.89.2,5.47.16,11,0,16.43-.08,2.79,1,3.84,3.76,3.76,5.31-.14,10.63-.24,15.93,0,3.66.19,4.51-1.35,4.4-4.67C359.54,108.65,359.68,102.17,359.67,95.7Zm120,72c0,6.64.08,13.28-.06,19.91-.06,2.88.71,4.27,3.9,4.15,5.46-.19,10.95-.15,16.42,0,2.79.07,3.84-1,3.76-3.76-.14-5.31-.24-10.63,0-15.93.19-3.66-1.35-4.51-4.67-4.4-6.46.2-12.94.06-19.41.06,0-6.64-.09-13.3.06-19.94.07-2.94-.81-4.12-3.94-4.12q-56.1.12-112.21,0c-3.13,0-4,1.18-3.94,4.12.15,6.64.05,13.3.06,19.94-6.64,0-13.28.09-19.91-.05-2.88-.06-4.27.71-4.16,3.89.2,5.47.16,11,0,16.43-.08,2.79,1,3.84,3.76,3.76,5.31-.14,10.63-.24,15.93,0,3.66.19,4.51-1.35,4.4-4.67-.2-6.46-.06-12.94-.07-19.41Z"/><path class="cls-3" d="M263.67,287.7v24l0,0-24.07,0,0,0,0-24.07,0,0h24Z"/><path class="cls-3" d="M263.67,311.72c6.47,0,12.93.13,19.39-.06,3.29-.1,4.89.68,4.69,4.37-.27,5.13-.21,10.28,0,15.41.12,3.19-.91,4.43-4.22,4.33-6.63-.19-13.26,0-19.89,0l0,0,0-24.07Z"/><path class="cls-3" d="M335.74,335.74c-6.63,0-13.26-.16-19.89,0-3.31.1-4.34-1.14-4.22-4.33.2-5.13.26-10.28,0-15.41-.2-3.69,1.4-4.47,4.69-4.37,6.45.19,12.92.06,19.39.06l0,0,0,24.07Z"/><path class="cls-3" d="M335.7,311.72v-24l0,0h24l0,0,0,24.07,0,0-24.07,0Z"/><path class="cls-3" d="M95.7,287.72v-24l0,0h144l0,0v24l0,0h-144Z"/><path class="cls-3" d="M95.74,311.74c-6.63,0-13.26-.16-19.89,0-3.31.1-4.34-1.14-4.22-4.33.2-5.13.26-10.28,0-15.41-.2-3.69,1.4-4.47,4.69-4.37,6.45.19,12.92.06,19.39.06l0,0,0,24.07Z"/><path class="cls-3" d="M503.67,263.7v24l0,0h-144l0,0v-24l0,0h144Z"/><path class="cls-3" d="M503.67,287.72c6.47,0,12.93.13,19.39-.06,3.28-.1,4.89.68,4.69,4.37-.27,5.13-.21,10.28,0,15.41.12,3.19-.91,4.43-4.22,4.33-6.63-.19-13.26,0-19.89,0l0,0,0-24.07Z"/><path class="cls-1" d="M503.7,287.7l0,24.07h-144l0-24.07Z"/><path class="cls-1" d="M95.7,311.77l0-24.07h144l0,24.07Z"/><path class="cls-1" d="M263.7,311.7l0,24.07h-24v-24Z"/><path class="cls-1" d="M335.67,311.7l24.07,0v24h-24Z"/><path class="cls-1" d="M239.7,263.72h-144c0-6.65.12-13.3,0-20-.07-2.94.83-4.11,4-4.11q68.1.12,136.19,0c3.12,0,4,1.17,3.95,4.11C239.58,250.42,239.69,257.07,239.7,263.72Z"/><path class="cls-1" d="M239.7,95.7h-120l0,0c0-6.64.09-13.3-.06-19.94-.07-2.94.81-4.12,3.94-4.12q56.1.12,112.21,0c3.13,0,4,1.18,3.94,4.12-.15,6.64,0,13.3-.06,19.94Z"/><path class="cls-1" d="M119.7,167.72c0-6.64.09-13.3-.06-19.94-.07-2.94.81-4.12,3.94-4.12q56.1.12,112.21,0c3.13,0,4,1.18,3.94,4.12-.15,6.64,0,13.3-.06,19.94l0,0h-120Z"/><path class="cls-1" d="M239.67,287.72v-24c6.77,0,13.54.1,20.3,0,2.78-.05,3.8,1,3.75,3.75-.12,6.77,0,13.54,0,20.3Z"/><path class="cls-1" d="M239.67,95.72c6.47,0,13,.14,19.41-.06,3.32-.11,4.86.74,4.67,4.4-.27,5.3-.17,10.62,0,15.93.08,2.79-1,3.83-3.76,3.76-5.47-.14-11-.18-16.42,0-3.19.12-4-1.27-3.9-4.15.14-6.63.05-13.27.06-19.91Z"/><path class="cls-1" d="M119.67,95.7c0,6.47-.13,13,.07,19.41.11,3.32-.74,4.86-4.4,4.67-5.3-.27-10.62-.17-15.93,0-2.79.08-3.84-1-3.76-3.76.14-5.47.18-11,0-16.43-.11-3.18,1.28-4,4.16-3.89,6.63.14,13.27,0,19.91,0Z"/><path class="cls-1" d="M239.67,167.72c6.47,0,13,.14,19.41-.06,3.32-.11,4.86.74,4.67,4.4-.27,5.3-.17,10.62,0,15.93.08,2.79-1,3.83-3.76,3.76-5.47-.14-11-.18-16.42,0-3.19.12-4-1.27-3.9-4.15.14-6.63.05-13.27.06-19.91Z"/><path class="cls-1" d="M119.67,167.7c0,6.47-.13,13,.07,19.41.11,3.32-.74,4.86-4.4,4.67-5.3-.27-10.62-.17-15.93,0-2.79.08-3.84-1-3.76-3.76.14-5.47.18-11,0-16.43-.11-3.18,1.28-3.95,4.16-3.89,6.63.14,13.27.05,19.91.05Z"/><path class="cls-1" d="M503.7,263.72h-144c0-6.65.12-13.3,0-20-.07-2.94.83-4.11,3.95-4.11q68.1.12,136.19,0c3.12,0,4,1.17,4,4.11C503.58,250.42,503.69,257.07,503.7,263.72Z"/><path class="cls-1" d="M359.7,167.72c0-6.64.09-13.3-.06-19.94-.07-2.94.81-4.12,3.94-4.12q56.1.12,112.21,0c3.13,0,4,1.18,3.94,4.12-.15,6.64-.05,13.3-.06,19.94l0,0h-120Z"/><path class="cls-1" d="M479.7,95.7h-120l0,0c0-6.64.09-13.3-.06-19.94-.07-2.94.81-4.12,3.94-4.12q56.1.12,112.21,0c3.13,0,4,1.18,3.94,4.12-.15,6.64-.05,13.3-.06,19.94Z"/><path class="cls-1" d="M479.67,167.72c6.47,0,12.95.14,19.41-.06,3.32-.11,4.86.74,4.67,4.4-.27,5.3-.17,10.62,0,15.93.08,2.79-1,3.83-3.76,3.76-5.47-.14-11-.18-16.42,0-3.19.12-4-1.27-3.9-4.15.14-6.63.05-13.27.06-19.91Z"/><path class="cls-1" d="M479.67,95.72c6.47,0,12.95.14,19.41-.06,3.32-.11,4.86.74,4.67,4.4-.27,5.3-.17,10.62,0,15.93.08,2.79-1,3.83-3.76,3.76-5.47-.14-11-.18-16.42,0-3.19.12-4-1.27-3.9-4.15.14-6.63.05-13.27.06-19.91Z"/><path class="cls-1" d="M359.67,95.7c0,6.47-.13,13,.07,19.41.11,3.32-.74,4.86-4.4,4.67-5.3-.27-10.62-.17-15.93,0-2.79.08-3.84-1-3.76-3.76.14-5.47.18-11,0-16.43-.11-3.18,1.28-4,4.16-3.89,6.63.14,13.27,0,19.91,0Z"/><path class="cls-1" d="M359.7,263.7v24h-24c0-6.76.1-13.53,0-20.3,0-2.77,1-3.8,3.74-3.75C346.16,263.8,352.93,263.71,359.7,263.7Z"/><path class="cls-1" d="M359.67,167.7c0,6.47-.13,13,.07,19.41.11,3.32-.74,4.86-4.4,4.67-5.3-.27-10.62-.17-15.93,0-2.79.08-3.84-1-3.76-3.76.14-5.47.18-11,0-16.43-.11-3.18,1.28-3.95,4.16-3.89,6.63.14,13.27.05,19.91.05Z"/></g></g></svg>