<svg id="Layer_1" data-name="Layer 1" xmlns="http://www.w3.org/2000/svg" viewBox="0 0 98.91 100"><defs><style>.cls-1{fill:#e95460;}</style></defs><path class="cls-1" d="M56.6,21.6c-22.5,0-40.8,18.5-40.8,41.2A41,41,0,0,0,56.6,104,40.35,40.35,0,0,0,83.5,93.7L85.8,96l-2.1,2.2a3,3,0,0,0,0,4.3l18,18.2a2.88,2.88,0,0,0,2.1.9,2.72,2.72,0,0,0,2.1-.9l8-8.1a3,3,0,0,0-.1-4.2l-18-18.2a2.88,2.88,0,0,0-2.1-.9,2.72,2.72,0,0,0-2.1.9l-2.1,2.2L87.2,90A41.56,41.56,0,0,0,97.4,62.8C97.4,40.1,79.1,21.6,56.6,21.6Zm0,6.1A35.15,35.15,0,1,1,21.8,62.9,35,35,0,0,1,56.6,27.7Zm.1,12.5A22.62,22.62,0,0,0,35.5,55.3a2.53,2.53,0,0,0,1.6,3.3,2.92,2.92,0,0,0,.9.2A2.67,2.67,0,0,0,40.5,57,17.32,17.32,0,0,1,56.7,45.4a2.6,2.6,0,1,0,0-5.2Zm-19,24.7a2.58,2.58,0,0,0-2.6,2.6v.4a2.74,2.74,0,0,0,2.7,2.6,2.65,2.65,0,0,0,2.6-2.6v-.3a2.61,2.61,0,0,0-2.6-2.7ZM93.8,96.6l13.8,14-3.8,3.8L90,100.4Z" transform="translate(-15.8 -21.6)"/></svg>