<?xml version="1.0" encoding="utf-8"?>
<!-- Generator: Adobe Illustrator 25.4.1, SVG Export Plug-In . SVG Version: 6.00 Build 0)  -->
<svg version="1.1" id="Layer_1" xmlns="http://www.w3.org/2000/svg" xmlns:xlink="http://www.w3.org/1999/xlink" x="0px" y="0px"
	 viewBox="0 0 128 128" style="enable-background:new 0 0 128 128;" xml:space="preserve">
<style type="text/css">
	.st0{fill:#E95460;}
</style>
<path class="st0" d="M56.6,21.6c-22.5,0-40.8,18.5-40.8,41.2c0,22.8,18.3,41.2,40.8,41.2c10.3,0,19.7-3.9,26.9-10.3l2.3,2.3
	l-2.1,2.2c-1.2,1.2-1.2,3.1,0,4.3l18,18.2c0.6,0.6,1.3,0.9,2.1,0.9c0.8,0,1.6-0.3,2.1-0.9l8-8.1c1.1-1.2,1.1-3.1-0.1-4.2l-18-18.2
	c-0.6-0.6-1.3-0.9-2.1-0.9s-1.6,0.3-2.1,0.9l-2.1,2.2L87.2,90c6.3-7.3,10.2-16.8,10.2-27.2C97.4,40.1,79.1,21.6,56.6,21.6z
	 M56.6,27.7c19.2,0,34.8,15.8,34.8,35.2S75.8,98,56.6,98S21.8,82.3,21.8,62.9S37.4,27.7,56.6,27.7z M56.7,40.2
	c-9.5,0-18,6.1-21.2,15.1c-0.5,1.3,0.2,2.9,1.6,3.3c0.3,0.1,0.6,0.2,0.9,0.2c1.1,0,2.1-0.7,2.5-1.8c2.4-6.9,9-11.6,16.2-11.6
	c1.4,0,2.6-1.2,2.6-2.6S58.1,40.2,56.7,40.2z M37.7,64.9c-1.4,0-2.6,1.1-2.6,2.6v0.4c0.1,1.4,1.2,2.6,2.7,2.6c1.4,0,2.6-1.2,2.6-2.6
	v-0.3c0-1.5-1.1-2.7-2.6-2.7H37.7z M93.8,96.6l13.8,14l-3.8,3.8l-13.8-14L93.8,96.6z"/>
</svg>
