<svg xmlns="http://www.w3.org/2000/svg" viewBox="0 0 98.61 99.72"><defs><style>.cls-1{fill:#fff;}</style></defs><g id="Layer_2" data-name="Layer 2"><g id="Layer_1-2" data-name="Layer 1"><path class="cls-1" d="M73.64,70.76c3.31-4.61,5.87-3.09,8.73,0,4.51,4.89,9.25,9.58,14,14.19,2.7,2.58,3,4.68.2,7.49-10.05,9.89-7.55,9.45-16.88.25C76.3,89.3,73,85.79,69.54,82.41c-2.12-2.07-3.5-4-1-6.8.44-.48.11-1.67.14-2.53a11.74,11.74,0,0,0-2.95.47C60.21,76.08,55,79.8,49.15,81.11,25.83,86.35,3.34,70.11.34,46.51c-3-23.78,14.58-45.3,38-46.46a40.7,40.7,0,0,1,43.11,42.1,41.75,41.75,0,0,1-7.82,23.28c-.8,1.15-1,2.71-1.5,4.09Zm1.85-29.54c0-19.55-15.26-35.09-34.58-35.15A34.7,34.7,0,0,0,6.1,41a34.7,34.7,0,1,0,69.39.21Zm-1,37.06,13.76,14.1c1.15-1.23,2.21-2.36,3.36-3.57L77.37,75.21Z"/><path class="cls-1" d="M40.73,18.49l2.48,2.06c-1,1-1.9,2.83-3,3-7.21,1-12.3,4.53-15.36,11.19-.46,1-2.24,1.37-3.41,2-.41-1.39-1.48-3-1.14-4.15C22.34,25.27,32.12,18.33,40.73,18.49Z"/></g></g></svg>