<svg id="visual" viewBox="0 0 960 300" width="960" height="300" xmlns="http://www.w3.org/2000/svg" xmlns:xlink="http://www.w3.org/1999/xlink" version="1.1"><rect x="0" y="0" width="960" height="300" fill="#1a1a2e"></rect><path d="M0 193L32 165.2C64 137.3 128 81.7 192 71C256 60.3 320 94.7 384 124.8C448 155 512 181 576 175C640 169 704 131 768 100.8C832 70.7 896 48.3 928 37.2L960 26L960 0L928 0C896 0 832 0 768 0C704 0 640 0 576 0C512 0 448 0 384 0C320 0 256 0 192 0C128 0 64 0 32 0L0 0Z" fill="#16213e" stroke-linecap="round" stroke-linejoin="miter"></path></svg>