<svg id="visual" viewBox="0 0 900 400" width="900" height="400" xmlns="http://www.w3.org/2000/svg" xmlns:xlink="http://www.w3.org/1999/xlink" version="1.1"><rect x="0" y="0" width="900" height="400" fill="#FFFFFF"></rect><path d="M0 93L10 95.2C20 97.3 40 101.7 60 114C80 126.3 100 146.7 120 159.5C140 172.3 160 177.7 180 168C200 158.3 220 133.7 240 120C260 106.3 280 103.7 300 110.3C320 117 340 133 360 143.3C380 153.7 400 158.3 420 150.2C440 142 460 121 480 125.2C500 129.3 520 158.7 540 158.8C560 159 580 130 600 119.5C620 109 640 117 660 126.7C680 136.3 700 147.7 720 145.3C740 143 760 127 780 124.5C800 122 820 133 840 130.3C860 127.7 880 111.3 890 103.2L900 95L900 401L890 401C880 401 860 401 840 401C820 401 800 401 780 401C760 401 740 401 720 401C700 401 680 401 660 401C640 401 620 401 600 401C580 401 560 401 540 401C520 401 500 401 480 401C460 401 440 401 420 401C400 401 380 401 360 401C340 401 320 401 300 401C280 401 260 401 240 401C220 401 200 401 180 401C160 401 140 401 120 401C100 401 80 401 60 401C40 401 20 401 10 401L0 401Z" fill="#e94560"></path><path d="M0 161L10 161C20 161 40 161 60 161.8C80 162.7 100 164.3 120 170C140 175.7 160 185.3 180 190.8C200 196.3 220 197.7 240 189.5C260 181.3 280 163.7 300 165.7C320 167.7 340 189.3 360 191.5C380 193.7 400 176.3 420 176.2C440 176 460 193 480 194.8C500 196.7 520 183.3 540 172.2C560 161 580 152 600 147.5C620 143 640 143 660 142.7C680 142.3 700 141.7 720 144.7C740 147.7 760 154.3 780 168.7C800 183 820 205 840 207.7C860 210.3 880 193.7 890 185.3L900 177L900 401L890 401C880 401 860 401 840 401C820 401 800 401 780 401C760 401 740 401 720 401C700 401 680 401 660 401C640 401 620 401 600 401C580 401 560 401 540 401C520 401 500 401 480 401C460 401 440 401 420 401C400 401 380 401 360 401C340 401 320 401 300 401C280 401 260 401 240 401C220 401 200 401 180 401C160 401 140 401 120 401C100 401 80 401 60 401C40 401 20 401 10 401L0 401Z" fill="#c2386f"></path><path d="M0 184L10 186.3C20 188.7 40 193.3 60 197.3C80 201.3 100 204.7 120 213.5C140 222.3 160 236.7 180 241.3C200 246 220 241 240 239.7C260 238.3 280 240.7 300 240.5C320 240.3 340 237.7 360 231C380 224.3 400 213.7 420 215.2C440 216.7 460 230.3 480 233.7C500 237 520 230 540 227.2C560 224.3 580 225.7 600 229.8C620 234 640 241 660 233.8C680 226.7 700 205.3 720 205.5C740 205.7 760 227.3 780 230.2C800 233 820 217 840 213.7C860 210.3 880 219.7 890 224.3L900 229L900 401L890 401C880 401 860 401 840 401C820 401 800 401 780 401C760 401 740 401 720 401C700 401 680 401 660 401C640 401 620 401 600 401C580 401 560 401 540 401C520 401 500 401 480 401C460 401 440 401 420 401C400 401 380 401 360 401C340 401 320 401 300 401C280 401 260 401 240 401C220 401 200 401 180 401C160 401 140 401 120 401C100 401 80 401 60 401C40 401 20 401 10 401L0 401Z" fill="#943573"></path><path d="M0 257L10 257.7C20 258.3 40 259.7 60 261.3C80 263 100 265 120 264.2C140 263.3 160 259.7 180 265C200 270.3 220 284.7 240 285.3C260 286 280 273 300 268.5C320 264 340 268 360 270.2C380 272.3 400 272.7 420 269.2C440 265.7 460 258.3 480 254.5C500 250.7 520 250.3 540 257C560 263.7 580 277.3 600 274.8C620 272.3 640 253.7 660 255C680 256.3 700 277.7 720 284.3C740 291 760 283 780 277C800 271 820 267 840 263.8C860 260.7 880 258.3 890 257.2L900 256L900 401L890 401C880 401 860 401 840 401C820 401 800 401 780 401C760 401 740 401 720 401C700 401 680 401 660 401C640 401 620 401 600 401C580 401 560 401 540 401C520 401 500 401 480 401C460 401 440 401 420 401C400 401 380 401 360 401C340 401 320 401 300 401C280 401 260 401 240 401C220 401 200 401 180 401C160 401 140 401 120 401C100 401 80 401 60 401C40 401 20 401 10 401L0 401Z" fill="#64336c"></path><path d="M0 304L10 305.8C20 307.7 40 311.3 60 316.7C80 322 100 329 120 331.5C140 334 160 332 180 324.8C200 317.7 220 305.3 240 302.2C260 299 280 305 300 307.8C320 310.7 340 310.3 360 314C380 317.7 400 325.3 420 326.3C440 327.3 460 321.7 480 313.2C500 304.7 520 293.3 540 287.5C560 281.7 580 281.3 600 286C620 290.7 640 300.3 660 300C680 299.7 700 289.3 720 286.8C740 284.3 760 289.7 780 298.7C800 307.7 820 320.3 840 317.3C860 314.3 880 295.7 890 286.3L900 277L900 401L890 401C880 401 860 401 840 401C820 401 800 401 780 401C760 401 740 401 720 401C700 401 680 401 660 401C640 401 620 401 600 401C580 401 560 401 540 401C520 401 500 401 480 401C460 401 440 401 420 401C400 401 380 401 360 401C340 401 320 401 300 401C280 401 260 401 240 401C220 401 200 401 180 401C160 401 140 401 120 401C100 401 80 401 60 401C40 401 20 401 10 401L0 401Z" fill="#382c59"></path><path d="M0 348L10 345.7C20 343.3 40 338.7 60 341.7C80 344.7 100 355.3 120 359.5C140 363.7 160 361.3 180 360.2C200 359 220 359 240 360.5C260 362 280 365 300 359.3C320 353.7 340 339.3 360 335.5C380 331.7 400 338.3 420 339C440 339.7 460 334.3 480 336.7C500 339 520 349 540 350.5C560 352 580 345 600 345.7C620 346.3 640 354.7 660 352.2C680 349.7 700 336.3 720 332C740 327.7 760 332.3 780 337.2C800 342 820 347 840 347.8C860 348.7 880 345.3 890 343.7L900 342L900 401L890 401C880 401 860 401 840 401C820 401 800 401 780 401C760 401 740 401 720 401C700 401 680 401 660 401C640 401 620 401 600 401C580 401 560 401 540 401C520 401 500 401 480 401C460 401 440 401 420 401C400 401 380 401 360 401C340 401 320 401 300 401C280 401 260 401 240 401C220 401 200 401 180 401C160 401 140 401 120 401C100 401 80 401 60 401C40 401 20 401 10 401L0 401Z" fill="#16213e"></path></svg>