<svg xmlns="http://www.w3.org/2000/svg" viewBox="0 0 23.96 87.96"><defs><style>.cls-1{fill:#e94560;}</style></defs><g id="Layer_2" data-name="Layer 2"><g id="Layer_1-2" data-name="Layer 1"><path class="cls-1" d="M0,12.17A12.13,12.13,0,0,1,11.91,0,12.11,12.11,0,0,1,24,11.53,12.14,12.14,0,0,1,12.3,24,12.15,12.15,0,0,1,0,12.17Z"/><path class="cls-1" d="M0,44.19A12.13,12.13,0,0,1,11.9,32a12,12,0,0,1,.42,24A12.15,12.15,0,0,1,0,44.19Z"/><path class="cls-1" d="M12.05,64a12,12,0,1,1-.39,24,12,12,0,0,1,.39-24Z"/></g></g></svg>